<svg width="438" height="27" viewBox="0 0 438 27" fill="none" xmlns="http://www.w3.org/2000/svg">
<path d="M25.6 26.52V26.64H18.8C18.6133 26 18.3867 25.2667 18.12 24.44C17.88 23.6133 17.6133 22.7333 17.32 21.8H8.68C8.14667 23.6667 7.65333 25.28 7.2 26.64H0.4V26.56L8.6 1.32H17.4L25.6 26.52ZM12.92 5.88C12.6533 7.24 12.2667 8.89333 11.76 10.84C11.2533 12.7867 10.72 14.7733 10.16 16.8H15.88C15.2933 14.7733 14.7467 12.7867 14.24 10.84C13.7333 8.89333 13.3467 7.24 13.08 5.88H12.92ZM49.8556 20.16C49.8556 22.2933 49.189 23.9067 47.8556 25C46.549 26.0933 44.229 26.64 40.8956 26.64H28.4156V1.32H29.9756H40.4956C42.709 1.32 44.429 1.56 45.6556 2.04C46.909 2.49333 47.789 3.17333 48.2956 4.08C48.8023 4.98667 49.0556 6.12 49.0556 7.48C49.0556 9.34667 48.6023 10.8 47.6956 11.84C46.8156 12.8533 45.149 13.4667 42.6956 13.68V13.8C44.509 13.9333 45.9356 14.24 46.9756 14.72C48.0156 15.1733 48.749 15.84 49.1756 16.72C49.629 17.6 49.8556 18.7467 49.8556 20.16ZM38.7356 6.36H34.8156V11.32H38.7356C40.0423 11.32 40.989 11.16 41.5756 10.84C42.1623 10.4933 42.4556 9.82667 42.4556 8.84C42.4556 7.88 42.1623 7.22667 41.5756 6.88C40.989 6.53333 40.0423 6.36 38.7356 6.36ZM39.5356 16.56H34.8156V21.64H39.5356C40.8423 21.64 41.789 21.4667 42.3756 21.12C42.9623 20.7467 43.2556 20.0667 43.2556 19.08C43.2556 18.0667 42.9623 17.4 42.3756 17.08C41.789 16.7333 40.8423 16.56 39.5356 16.56ZM52.6547 13.96C52.6547 10.7333 53.0147 8.17333 53.7347 6.28C54.4814 4.38667 55.748 3.02667 57.5347 2.2C59.348 1.37333 61.868 0.959999 65.0947 0.959999C67.5214 0.959999 69.5347 1.18667 71.1347 1.64C72.7347 2.09333 74.0014 2.82666 74.9347 3.84C75.868 4.85333 76.5214 6.2 76.8947 7.88C77.2947 9.53333 77.4947 11.56 77.4947 13.96C77.4947 16.3867 77.2947 18.44 76.8947 20.12C76.5214 21.7733 75.868 23.1067 74.9347 24.12C74.0014 25.1333 72.7347 25.8667 71.1347 26.32C69.5347 26.7733 67.5214 27 65.0947 27C62.668 27 60.6547 26.7733 59.0547 26.32C57.4547 25.8667 56.188 25.1333 55.2547 24.12C54.3214 23.1067 53.6547 21.7733 53.2547 20.12C52.8547 18.44 52.6547 16.3867 52.6547 13.96ZM65.0947 21.4C66.8014 21.4 68.0814 21.1867 68.9347 20.76C69.788 20.3333 70.3614 19.5867 70.6547 18.52C70.948 17.4267 71.0947 15.9067 71.0947 13.96C71.0947 12.04 70.948 10.5467 70.6547 9.48C70.3614 8.41333 69.788 7.66667 68.9347 7.24C68.0814 6.78667 66.8014 6.56 65.0947 6.56C63.4147 6.56 62.1347 6.78667 61.2547 7.24C60.4014 7.66667 59.8147 8.41333 59.4947 9.48C59.2014 10.5467 59.0547 12.04 59.0547 13.96C59.0547 15.9067 59.2014 17.4267 59.4947 18.52C59.8147 19.5867 60.4014 20.3333 61.2547 20.76C62.1347 21.1867 63.4147 21.4 65.0947 21.4ZM103.422 1.32V16.24C103.422 18.8533 103.102 20.9467 102.462 22.52C101.848 24.0933 100.768 25.24 99.2216 25.96C97.6749 26.6533 95.4882 27 92.6616 27C89.7282 27 87.4482 26.6533 85.8216 25.96C84.2216 25.24 83.1016 24.0933 82.4616 22.52C81.8216 20.9467 81.5016 18.8533 81.5016 16.24V1.32H87.9016V16.12C87.9016 17.48 88.0349 18.5467 88.3016 19.32C88.5682 20.0933 89.0482 20.64 89.7416 20.96C90.4349 21.2533 91.4082 21.4 92.6616 21.4C93.8349 21.4 94.7282 21.2533 95.3416 20.96C95.9816 20.64 96.4216 20.0933 96.6616 19.32C96.9016 18.5467 97.0216 17.48 97.0216 16.12V1.32H103.422ZM113.42 26.64V6.72H106.22V1.32H127.02V6.72H119.82V26.64H113.42Z" fill="white"/>
<path d="M141.174 20.12C142.347 20.52 143.627 20.84 145.014 21.08C146.427 21.2933 147.827 21.4 149.214 21.4C151.107 21.4 152.507 21.32 153.414 21.16C154.347 20.9733 154.961 20.6933 155.254 20.32C155.547 19.9467 155.694 19.4667 155.694 18.88C155.694 18.3733 155.587 17.9733 155.374 17.68C155.161 17.3867 154.747 17.16 154.134 17C153.521 16.8133 152.614 16.6667 151.414 16.56L148.774 16.32C146.801 16.1333 145.241 15.72 144.094 15.08C142.974 14.44 142.174 13.5867 141.694 12.52C141.241 11.4267 141.014 10.12 141.014 8.6C141.014 6.78667 141.374 5.32 142.094 4.2C142.841 3.08 144.041 2.26666 145.694 1.76C147.347 1.22667 149.547 0.959999 152.294 0.959999C155.867 0.959999 158.814 1.42667 161.134 2.36L161.014 7.8L160.894 7.96C158.254 7.02667 155.494 6.56 152.614 6.56C151.227 6.56 150.161 6.64 149.414 6.8C148.667 6.93333 148.147 7.16 147.854 7.48C147.561 7.8 147.414 8.25333 147.414 8.84C147.414 9.42667 147.507 9.86667 147.694 10.16C147.907 10.4533 148.321 10.68 148.934 10.84C149.547 10.9733 150.441 11.1067 151.614 11.24L154.134 11.52C156.267 11.76 157.907 12.1867 159.054 12.8C160.201 13.4133 160.987 14.24 161.414 15.28C161.867 16.2933 162.094 17.5333 162.094 19C162.094 20.7867 161.707 22.28 160.934 23.48C160.187 24.6533 158.961 25.5333 157.254 26.12C155.547 26.7067 153.267 27 150.414 27C148.547 27 146.867 26.9067 145.374 26.72C143.881 26.5067 142.427 26.2267 141.014 25.88V20.24L141.174 20.12ZM171.311 26.64V6.72H164.111V1.32H184.911V6.72H177.711V26.64H171.311ZM210.913 26.52V26.64H204.113C203.926 26 203.699 25.2667 203.433 24.44C203.193 23.6133 202.926 22.7333 202.633 21.8H193.993C193.459 23.6667 192.966 25.28 192.513 26.64H185.713V26.56L193.913 1.32H202.713L210.913 26.52ZM198.233 5.88C197.966 7.24 197.579 8.89333 197.072 10.84C196.566 12.7867 196.033 14.7733 195.473 16.8H201.193C200.606 14.7733 200.059 12.7867 199.553 10.84C199.046 8.89333 198.659 7.24 198.393 5.88H198.233ZM220.128 26.64H213.728V1.32H225.808C228.981 1.32 231.288 2.04 232.728 3.48C234.195 4.89333 234.928 6.98667 234.928 9.76C234.928 11.84 234.408 13.6267 233.368 15.12C232.328 16.5867 230.955 17.5067 229.248 17.88L229.208 18C229.875 18.4267 230.608 19.1333 231.408 20.12C232.208 21.1067 232.995 22.1867 233.768 23.36C234.568 24.5067 235.275 25.5867 235.888 26.6V26.64H228.448L224.128 20.24C223.755 19.68 223.448 19.28 223.208 19.04C222.995 18.8 222.728 18.6533 222.408 18.6C222.115 18.5467 221.635 18.52 220.968 18.52H220.128V26.64ZM224.768 6.52H220.128V13.32H224.768C226.101 13.32 227.021 13.0533 227.528 12.52C228.061 11.9867 228.328 11.12 228.328 9.92C228.328 8.72 228.061 7.85333 227.528 7.32C227.021 6.78667 226.101 6.52 224.768 6.52ZM244.709 26.64V6.72H237.509V1.32H258.309V6.72H251.109V26.64H244.709ZM283.031 1.32V16.24C283.031 18.8533 282.711 20.9467 282.071 22.52C281.458 24.0933 280.378 25.24 278.831 25.96C277.284 26.6533 275.098 27 272.271 27C269.338 27 267.058 26.6533 265.431 25.96C263.831 25.24 262.711 24.0933 262.071 22.52C261.431 20.9467 261.111 18.8533 261.111 16.24V1.32H267.511V16.12C267.511 17.48 267.644 18.5467 267.911 19.32C268.178 20.0933 268.658 20.64 269.351 20.96C270.044 21.2533 271.018 21.4 272.271 21.4C273.444 21.4 274.338 21.2533 274.951 20.96C275.591 20.64 276.031 20.0933 276.271 19.32C276.511 18.5467 276.631 17.48 276.631 16.12V1.32H283.031ZM294.23 26.64H287.83V1.32H299.11C301.643 1.32 303.67 1.62667 305.19 2.24C306.71 2.85333 307.803 3.85333 308.47 5.24C309.136 6.62667 309.47 8.50667 309.47 10.88C309.47 13.12 309.136 14.9467 308.47 16.36C307.803 17.7467 306.71 18.7733 305.19 19.44C303.67 20.1067 301.643 20.44 299.11 20.44H294.23V26.64ZM298.07 6.56H294.23V15.2H298.07C299.963 15.2 301.23 14.88 301.87 14.24C302.51 13.6 302.83 12.48 302.83 10.88C302.83 9.36 302.51 8.26667 301.87 7.6C301.23 6.90667 299.963 6.56 298.07 6.56ZM343.741 21.16V26.2C342.461 26.4667 341.208 26.6667 339.981 26.8C338.754 26.9333 337.301 27 335.621 27C333.461 27 331.634 26.8133 330.141 26.44C328.674 26.0667 327.488 25.4133 326.581 24.48C325.701 23.52 325.061 22.1733 324.661 20.44C324.261 18.7067 324.061 16.48 324.061 13.76C324.061 11.1467 324.261 9 324.661 7.32C325.061 5.64 325.701 4.34667 326.581 3.44C327.488 2.50667 328.674 1.86667 330.141 1.52C331.634 1.14667 333.461 0.959999 335.621 0.959999C337.301 0.959999 338.754 1.02667 339.981 1.16C341.208 1.26667 342.461 1.46667 343.741 1.76V6.96L343.621 7.04C342.501 6.77333 341.421 6.58667 340.381 6.48C339.341 6.34667 338.061 6.28 336.541 6.28C335.314 6.28 334.301 6.37333 333.501 6.56C332.728 6.72 332.114 7.05333 331.661 7.56C331.208 8.06667 330.888 8.81333 330.701 9.8C330.541 10.7867 330.461 12.1067 330.461 13.76C330.461 15.4933 330.541 16.8933 330.701 17.96C330.888 19 331.208 19.7867 331.661 20.32C332.114 20.8533 332.728 21.2133 333.501 21.4C334.301 21.5867 335.314 21.68 336.541 21.68C338.034 21.68 339.301 21.64 340.341 21.56C341.408 21.4533 342.474 21.2667 343.541 21L343.741 21.16ZM365.527 21.2V26.64H347.127V1.32H353.527V21.2H365.527ZM374.738 26.64H368.338V1.32H374.738V26.64ZM395.948 1.32H402.348V26.64H395.988L388.788 15.92C388.228 15.0667 387.762 14.3467 387.388 13.76C387.015 13.1733 386.668 12.5867 386.348 12C386.028 11.4133 385.668 10.72 385.268 9.92L385.148 10.08C385.522 11.36 385.748 12.56 385.828 13.68C385.908 14.7733 385.948 15.84 385.948 16.88V26.64H379.548V1.32H385.908L393.108 12.04C393.668 12.8667 394.135 13.5867 394.508 14.2C394.882 14.7867 395.228 15.3733 395.548 15.96C395.868 16.5467 396.228 17.24 396.628 18.04L396.748 17.88C396.482 16.76 396.282 15.68 396.148 14.64C396.015 13.5733 395.948 12.52 395.948 11.48V1.32ZM413.566 26.64H407.166V1.32H413.566V26.64ZM437.257 21.16V26.2C435.977 26.4667 434.723 26.6667 433.497 26.8C432.27 26.9333 430.817 27 429.137 27C426.977 27 425.15 26.8133 423.657 26.44C422.19 26.0667 421.003 25.4133 420.097 24.48C419.217 23.52 418.577 22.1733 418.177 20.44C417.777 18.7067 417.577 16.48 417.577 13.76C417.577 11.1467 417.777 9 418.177 7.32C418.577 5.64 419.217 4.34667 420.097 3.44C421.003 2.50667 422.19 1.86667 423.657 1.52C425.15 1.14667 426.977 0.959999 429.137 0.959999C430.817 0.959999 432.27 1.02667 433.497 1.16C434.723 1.26667 435.977 1.46667 437.257 1.76V6.96L437.137 7.04C436.017 6.77333 434.937 6.58667 433.897 6.48C432.857 6.34667 431.577 6.28 430.057 6.28C428.83 6.28 427.817 6.37333 427.017 6.56C426.243 6.72 425.63 7.05333 425.177 7.56C424.723 8.06667 424.403 8.81333 424.217 9.8C424.057 10.7867 423.977 12.1067 423.977 13.76C423.977 15.4933 424.057 16.8933 424.217 17.96C424.403 19 424.723 19.7867 425.177 20.32C425.63 20.8533 426.243 21.2133 427.017 21.4C427.817 21.5867 428.83 21.68 430.057 21.68C431.55 21.68 432.817 21.64 433.857 21.56C434.923 21.4533 435.99 21.2667 437.057 21L437.257 21.16Z" fill="#0DBFE1"/>
</svg>
