<svg width="708" height="52" viewBox="0 0 708 52" fill="none" xmlns="http://www.w3.org/2000/svg">
<path d="M215.889 33.52V33.64H209.089C208.902 33 208.676 32.2667 208.409 31.44C208.169 30.6133 207.902 29.7333 207.609 28.8H198.969C198.436 30.6667 197.942 32.28 197.489 33.64H190.689V33.56L198.889 8.32H207.689L215.889 33.52ZM203.209 12.88C202.942 14.24 202.556 15.8933 202.049 17.84C201.542 19.7867 201.009 21.7733 200.449 23.8H206.169C205.582 21.7733 205.036 19.7867 204.529 17.84C204.022 15.8933 203.636 14.24 203.369 12.88H203.209ZM241.745 27.16C241.745 29.2933 241.078 30.9067 239.745 32C238.438 33.0933 236.118 33.64 232.785 33.64H220.305V8.32H221.865H232.385C234.598 8.32 236.318 8.56 237.545 9.04C238.798 9.49333 239.678 10.1733 240.185 11.08C240.691 11.9867 240.945 13.12 240.945 14.48C240.945 16.3467 240.491 17.8 239.585 18.84C238.705 19.8533 237.038 20.4667 234.585 20.68V20.8C236.398 20.9333 237.825 21.24 238.865 21.72C239.905 22.1733 240.638 22.84 241.065 23.72C241.518 24.6 241.745 25.7467 241.745 27.16ZM230.625 13.36H226.705V18.32H230.625C231.931 18.32 232.878 18.16 233.465 17.84C234.051 17.4933 234.345 16.8267 234.345 15.84C234.345 14.88 234.051 14.2267 233.465 13.88C232.878 13.5333 231.931 13.36 230.625 13.36ZM231.425 23.56H226.705V28.64H231.425C232.731 28.64 233.678 28.4667 234.265 28.12C234.851 27.7467 235.145 27.0667 235.145 26.08C235.145 25.0667 234.851 24.4 234.265 24.08C233.678 23.7333 232.731 23.56 231.425 23.56ZM246.144 20.96C246.144 17.7333 246.504 15.1733 247.224 13.28C247.97 11.3867 249.237 10.0267 251.024 9.2C252.837 8.37333 255.357 7.96 258.584 7.96C261.01 7.96 263.024 8.18667 264.624 8.64C266.224 9.09333 267.49 9.82666 268.424 10.84C269.357 11.8533 270.01 13.2 270.384 14.88C270.784 16.5333 270.984 18.56 270.984 20.96C270.984 23.3867 270.784 25.44 270.384 27.12C270.01 28.7733 269.357 30.1067 268.424 31.12C267.49 32.1333 266.224 32.8667 264.624 33.32C263.024 33.7733 261.01 34 258.584 34C256.157 34 254.144 33.7733 252.544 33.32C250.944 32.8667 249.677 32.1333 248.744 31.12C247.81 30.1067 247.144 28.7733 246.744 27.12C246.344 25.44 246.144 23.3867 246.144 20.96ZM258.584 28.4C260.29 28.4 261.57 28.1867 262.424 27.76C263.277 27.3333 263.85 26.5867 264.144 25.52C264.437 24.4267 264.584 22.9067 264.584 20.96C264.584 19.04 264.437 17.5467 264.144 16.48C263.85 15.4133 263.277 14.6667 262.424 14.24C261.57 13.7867 260.29 13.56 258.584 13.56C256.904 13.56 255.624 13.7867 254.744 14.24C253.89 14.6667 253.304 15.4133 252.984 16.48C252.69 17.5467 252.544 19.04 252.544 20.96C252.544 22.9067 252.69 24.4267 252.984 25.52C253.304 26.5867 253.89 27.3333 254.744 27.76C255.624 28.1867 256.904 28.4 258.584 28.4ZM298.511 8.32V23.24C298.511 25.8533 298.191 27.9467 297.551 29.52C296.937 31.0933 295.857 32.24 294.311 32.96C292.764 33.6533 290.577 34 287.751 34C284.817 34 282.537 33.6533 280.911 32.96C279.311 32.24 278.191 31.0933 277.551 29.52C276.911 27.9467 276.591 25.8533 276.591 23.24V8.32H282.991V23.12C282.991 24.48 283.124 25.5467 283.391 26.32C283.657 27.0933 284.137 27.64 284.831 27.96C285.524 28.2533 286.497 28.4 287.751 28.4C288.924 28.4 289.817 28.2533 290.431 27.96C291.071 27.64 291.511 27.0933 291.751 26.32C291.991 25.5467 292.111 24.48 292.111 23.12V8.32H298.511ZM310.109 33.64V13.72H302.909V8.32H323.709V13.72H316.509V33.64H310.109Z" fill="#1BD8D7"/>
<path d="M364.335 28.16C364.335 30.2933 363.668 31.9067 362.335 33C361.028 34.0933 358.708 34.64 355.375 34.64H342.895V9.32H344.455H354.975C357.188 9.32 358.908 9.56 360.135 10.04C361.388 10.4933 362.268 11.1733 362.775 12.08C363.281 12.9867 363.535 14.12 363.535 15.48C363.535 17.3467 363.081 18.8 362.175 19.84C361.295 20.8533 359.628 21.4667 357.175 21.68V21.8C358.988 21.9333 360.415 22.24 361.455 22.72C362.495 23.1733 363.228 23.84 363.655 24.72C364.108 25.6 364.335 26.7467 364.335 28.16ZM353.215 14.36H349.295V19.32H353.215C354.521 19.32 355.468 19.16 356.055 18.84C356.641 18.4933 356.935 17.8267 356.935 16.84C356.935 15.88 356.641 15.2267 356.055 14.88C355.468 14.5333 354.521 14.36 353.215 14.36ZM354.015 24.56H349.295V29.64H354.015C355.321 29.64 356.268 29.4667 356.855 29.12C357.441 28.7467 357.735 28.0667 357.735 27.08C357.735 26.0667 357.441 25.4 356.855 25.08C356.268 24.7333 355.321 24.56 354.015 24.56ZM387.934 29.2V34.64H369.534V9.32H375.934V29.2H387.934ZM414.265 9.32V24.24C414.265 26.8533 413.945 28.9467 413.305 30.52C412.691 32.0933 411.611 33.24 410.065 33.96C408.518 34.6533 406.331 35 403.505 35C400.571 35 398.291 34.6533 396.665 33.96C395.065 33.24 393.945 32.0933 393.305 30.52C392.665 28.9467 392.345 26.8533 392.345 24.24V9.32H398.745V24.12C398.745 25.48 398.878 26.5467 399.145 27.32C399.411 28.0933 399.891 28.64 400.585 28.96C401.278 29.2533 402.251 29.4 403.505 29.4C404.678 29.4 405.571 29.2533 406.185 28.96C406.825 28.64 407.265 28.0933 407.505 27.32C407.745 26.5467 407.865 25.48 407.865 24.12V9.32H414.265ZM420.663 34.64V9.32H439.463V14.52H427.063V19.32H437.823V24.52H427.063V29.44H439.463V34.64H420.663ZM450.655 34.64H444.255V9.32H455.535C458.069 9.32 460.095 9.62667 461.615 10.24C463.135 10.8533 464.229 11.8533 464.895 13.24C465.562 14.6267 465.895 16.5067 465.895 18.88C465.895 21.12 465.562 22.9467 464.895 24.36C464.229 25.7467 463.135 26.7733 461.615 27.44C460.095 28.1067 458.069 28.44 455.535 28.44H450.655V34.64ZM454.495 14.56H450.655V23.2H454.495C456.389 23.2 457.655 22.88 458.295 22.24C458.935 21.6 459.255 20.48 459.255 18.88C459.255 17.36 458.935 16.2667 458.295 15.6C457.655 14.9067 456.389 14.56 454.495 14.56ZM477.295 34.64H470.895V9.32H482.975C486.148 9.32 488.455 10.04 489.895 11.48C491.361 12.8933 492.095 14.9867 492.095 17.76C492.095 19.84 491.575 21.6267 490.535 23.12C489.495 24.5867 488.121 25.5067 486.415 25.88L486.375 26C487.041 26.4267 487.775 27.1333 488.575 28.12C489.375 29.1067 490.161 30.1867 490.935 31.36C491.735 32.5067 492.441 33.5867 493.055 34.6V34.64H485.615L481.295 28.24C480.921 27.68 480.615 27.28 480.375 27.04C480.161 26.8 479.895 26.6533 479.575 26.6C479.281 26.5467 478.801 26.52 478.135 26.52H477.295V34.64ZM481.935 14.52H477.295V21.32H481.935C483.268 21.32 484.188 21.0533 484.695 20.52C485.228 19.9867 485.495 19.12 485.495 17.92C485.495 16.72 485.228 15.8533 484.695 15.32C484.188 14.7867 483.268 14.52 481.935 14.52ZM504.676 34.64H498.276V9.32H504.676V34.64ZM527.487 9.32H533.887V34.64H527.527L520.327 23.92C519.767 23.0667 519.3 22.3467 518.927 21.76C518.553 21.1733 518.207 20.5867 517.887 20C517.567 19.4133 517.207 18.72 516.807 17.92L516.687 18.08C517.06 19.36 517.287 20.56 517.367 21.68C517.447 22.7733 517.487 23.84 517.487 24.88V34.64H511.087V9.32H517.447L524.647 20.04C525.207 20.8667 525.673 21.5867 526.047 22.2C526.42 22.7867 526.767 23.3733 527.087 23.96C527.407 24.5467 527.767 25.24 528.167 26.04L528.287 25.88C528.02 24.76 527.82 23.68 527.687 22.64C527.553 21.5733 527.487 20.52 527.487 19.48V9.32ZM545.504 34.64V14.72H538.304V9.32H559.104V14.72H551.904V34.64H545.504Z" fill="#FFC438"/>
</svg>
