<svg width="143" height="27" viewBox="0 0 143 27" fill="none" xmlns="http://www.w3.org/2000/svg">
<path d="M7.6 26.64V6.72H0.4V1.32H21.2V6.72H14V26.64H7.6ZM30.4016 26.64H24.0016V1.32H36.0816C39.2549 1.32 41.5616 2.04 43.0016 3.48C44.4682 4.89333 45.2016 6.98667 45.2016 9.76C45.2016 11.84 44.6816 13.6267 43.6416 15.12C42.6016 16.5867 41.2282 17.5067 39.5216 17.88L39.4816 18C40.1482 18.4267 40.8816 19.1333 41.6816 20.12C42.4816 21.1067 43.2682 22.1867 44.0416 23.36C44.8416 24.5067 45.5482 25.5867 46.1616 26.6V26.64H38.7216L34.4016 20.24C34.0282 19.68 33.7216 19.28 33.4816 19.04C33.2682 18.8 33.0016 18.6533 32.6816 18.6C32.3882 18.5467 31.9082 18.52 31.2416 18.52H30.4016V26.64ZM35.0416 6.52H30.4016V13.32H35.0416C36.3749 13.32 37.2949 13.0533 37.8016 12.52C38.3349 11.9867 38.6016 11.12 38.6016 9.92C38.6016 8.72 38.3349 7.85333 37.8016 7.32C37.2949 6.78667 36.3749 6.52 35.0416 6.52ZM72.9828 26.52V26.64H66.1828C65.9961 26 65.7695 25.2667 65.5028 24.44C65.2628 23.6133 64.9961 22.7333 64.7028 21.8H56.0628C55.5295 23.6667 55.0361 25.28 54.5828 26.64H47.7828V26.56L55.9828 1.32H64.7828L72.9828 26.52ZM60.3028 5.88C60.0361 7.24 59.6495 8.89333 59.1428 10.84C58.6361 12.7867 58.1028 14.7733 57.5428 16.8H63.2628C62.6761 14.7733 62.1295 12.7867 61.6228 10.84C61.1161 8.89333 60.7295 7.24 60.4628 5.88H60.3028Z" fill="white"/>
<path d="M94.6784 21.16V26.2C93.3984 26.4667 92.1451 26.6667 90.9184 26.8C89.6918 26.9333 88.2384 27 86.5584 27C84.3984 27 82.5718 26.8133 81.0784 26.44C79.6118 26.0667 78.4251 25.4133 77.5184 24.48C76.6384 23.52 75.9984 22.1733 75.5984 20.44C75.1984 18.7067 74.9984 16.48 74.9984 13.76C74.9984 11.1467 75.1984 9 75.5984 7.32C75.9984 5.64 76.6384 4.34667 77.5184 3.44C78.4251 2.50667 79.6118 1.86667 81.0784 1.52C82.5718 1.14667 84.3984 0.959999 86.5584 0.959999C88.2384 0.959999 89.6918 1.02667 90.9184 1.16C92.1451 1.26667 93.3984 1.46667 94.6784 1.76V6.96L94.5584 7.04C93.4384 6.77333 92.3584 6.58667 91.3184 6.48C90.2784 6.34667 88.9984 6.28 87.4784 6.28C86.2518 6.28 85.2384 6.37333 84.4384 6.56C83.6651 6.72 83.0518 7.05333 82.5984 7.56C82.1451 8.06667 81.8251 8.81333 81.6384 9.8C81.4784 10.7867 81.3984 12.1067 81.3984 13.76C81.3984 15.4933 81.4784 16.8933 81.6384 17.96C81.8251 19 82.1451 19.7867 82.5984 20.32C83.0518 20.8533 83.6651 21.2133 84.4384 21.4C85.2384 21.5867 86.2518 21.68 87.4784 21.68C88.9718 21.68 90.2384 21.64 91.2784 21.56C92.3451 21.4533 93.4118 21.2667 94.4784 21L94.6784 21.16ZM104.464 26.64H98.0641V1.32H104.464V11.92C104.517 11.92 104.557 11.92 104.584 11.92C104.851 11.92 105.157 11.7067 105.504 11.28C105.877 10.8533 106.211 10.4267 106.504 10L111.864 1.32H118.824V1.44L114.264 8.8C113.864 9.46667 113.411 10.1867 112.904 10.96C112.397 11.7067 111.891 12.3733 111.384 12.96C110.904 13.52 110.477 13.8667 110.104 14V14.12C110.477 14.28 110.904 14.6267 111.384 15.16C111.891 15.6667 112.397 16.2667 112.904 16.96C113.437 17.6267 113.944 18.2933 114.424 18.96L119.744 26.52V26.64H112.384L107.384 18.96V19C107.224 18.7333 106.971 18.3867 106.624 17.96C106.304 17.5067 105.957 17.0933 105.584 16.72C105.237 16.3467 104.931 16.16 104.664 16.16C104.611 16.16 104.571 16.16 104.544 16.16C104.517 16.16 104.491 16.16 104.464 16.16V26.64ZM121.682 20.12C122.855 20.52 124.135 20.84 125.522 21.08C126.935 21.2933 128.335 21.4 129.722 21.4C131.615 21.4 133.015 21.32 133.922 21.16C134.855 20.9733 135.469 20.6933 135.762 20.32C136.055 19.9467 136.202 19.4667 136.202 18.88C136.202 18.3733 136.095 17.9733 135.882 17.68C135.669 17.3867 135.255 17.16 134.642 17C134.029 16.8133 133.122 16.6667 131.922 16.56L129.282 16.32C127.309 16.1333 125.749 15.72 124.602 15.08C123.482 14.44 122.682 13.5867 122.202 12.52C121.749 11.4267 121.522 10.12 121.522 8.6C121.522 6.78667 121.882 5.32 122.602 4.2C123.349 3.08 124.549 2.26666 126.202 1.76C127.855 1.22667 130.055 0.959999 132.802 0.959999C136.375 0.959999 139.322 1.42667 141.642 2.36L141.522 7.8L141.402 7.96C138.762 7.02667 136.002 6.56 133.122 6.56C131.735 6.56 130.669 6.64 129.922 6.8C129.175 6.93333 128.655 7.16 128.362 7.48C128.069 7.8 127.922 8.25333 127.922 8.84C127.922 9.42667 128.015 9.86667 128.202 10.16C128.415 10.4533 128.829 10.68 129.442 10.84C130.055 10.9733 130.949 11.1067 132.122 11.24L134.642 11.52C136.775 11.76 138.415 12.1867 139.562 12.8C140.709 13.4133 141.495 14.24 141.922 15.28C142.375 16.2933 142.602 17.5333 142.602 19C142.602 20.7867 142.215 22.28 141.442 23.48C140.695 24.6533 139.469 25.5333 137.762 26.12C136.055 26.7067 133.775 27 130.922 27C129.055 27 127.375 26.9067 125.882 26.72C124.389 26.5067 122.935 26.2267 121.522 25.88V20.24L121.682 20.12Z" fill="#0DBFE1"/>
</svg>
