<svg width="189" height="27" viewBox="0 0 189 27" fill="none" xmlns="http://www.w3.org/2000/svg">
<mask id="mask0_1931_69" style="mask-type:alpha" maskUnits="userSpaceOnUse" x="0" y="0" width="189" height="27">
<path d="M25.6004 26.52V26.64H18.8004C18.6137 26 18.3871 25.2666 18.1204 24.44C17.8804 23.6133 17.6137 22.7333 17.3204 21.8H8.68039C8.14706 23.6666 7.65372 25.28 7.20039 26.64H0.400391V26.56L8.60039 1.31996H17.4004L25.6004 26.52ZM12.9204 5.87996C12.6537 7.23996 12.2671 8.89329 11.7604 10.84C11.2537 12.7866 10.7204 14.7733 10.1604 16.8H15.8804C15.2937 14.7733 14.7471 12.7866 14.2404 10.84C13.7337 8.89329 13.3471 7.23996 13.0804 5.87996H12.9204Z" fill="white"/>
<path d="M49.856 20.16C49.856 22.2933 49.1893 23.9066 47.856 25C46.5493 26.0933 44.2293 26.64 40.896 26.64H28.416V1.31996H40.496C42.7094 1.31996 44.4294 1.55996 45.656 2.03996C46.9094 2.49329 47.7894 3.17329 48.296 4.07996C48.8027 4.98663 49.056 6.11996 49.056 7.47996C49.056 9.34663 48.6027 10.8 47.696 11.84C46.816 12.8533 45.1494 13.4666 42.696 13.68V13.8C44.5094 13.9333 45.936 14.24 46.976 14.72C48.016 15.1733 48.7494 15.84 49.176 16.72C49.6294 17.6 49.856 18.7466 49.856 20.16ZM38.736 6.35996H34.816V11.32H38.736C40.0427 11.32 40.9893 11.16 41.576 10.84C42.1627 10.4933 42.456 9.82663 42.456 8.83996C42.456 7.87996 42.1627 7.22663 41.576 6.87996C40.9893 6.53329 40.0427 6.35996 38.736 6.35996ZM39.536 16.56H34.816V21.64H39.536C40.8427 21.64 41.7893 21.4666 42.376 21.12C42.9627 20.7466 43.256 20.0666 43.256 19.08C43.256 18.0666 42.9627 17.4 42.376 17.08C41.7893 16.7333 40.8427 16.56 39.536 16.56Z" fill="white"/>
<path d="M52.6551 13.96C52.6551 10.7333 53.0151 8.17329 53.7351 6.27996C54.4817 4.38663 55.7484 3.02663 57.5351 2.19996C59.3484 1.37329 61.8684 0.959961 65.0951 0.959961C67.5217 0.959961 69.5351 1.18663 71.1351 1.63996C72.7351 2.09329 74.0017 2.82663 74.9351 3.83996C75.8684 4.85329 76.5217 6.19996 76.8951 7.87996C77.2951 9.53329 77.4951 11.56 77.4951 13.96C77.4951 16.3866 77.2951 18.44 76.8951 20.12C76.5217 21.7733 75.8684 23.1066 74.9351 24.12C74.0017 25.1333 72.7351 25.8666 71.1351 26.32C69.5351 26.7733 67.5217 27 65.0951 27C62.6684 27 60.6551 26.7733 59.0551 26.32C57.4551 25.8666 56.1884 25.1333 55.2551 24.12C54.3217 23.1066 53.6551 21.7733 53.2551 20.12C52.8551 18.44 52.6551 16.3866 52.6551 13.96ZM65.0951 21.4C66.8017 21.4 68.0817 21.1866 68.9351 20.76C69.7884 20.3333 70.3617 19.5866 70.6551 18.52C70.9484 17.4266 71.0951 15.9066 71.0951 13.96C71.0951 12.04 70.9484 10.5466 70.6551 9.47996C70.3617 8.41329 69.7884 7.66663 68.9351 7.23996C68.0817 6.78663 66.8017 6.55996 65.0951 6.55996C63.4151 6.55996 62.1351 6.78663 61.2551 7.23996C60.4017 7.66663 59.8151 8.41329 59.4951 9.47996C59.2017 10.5466 59.0551 12.04 59.0551 13.96C59.0551 15.9066 59.2017 17.4266 59.4951 18.52C59.8151 19.5866 60.4017 20.3333 61.2551 20.76C62.1351 21.1866 63.4151 21.4 65.0951 21.4Z" fill="white"/>
<path d="M103.422 1.31996V16.24C103.422 18.8533 103.102 20.9466 102.462 22.52C101.849 24.0933 100.769 25.24 99.222 25.96C97.6753 26.6533 95.4886 27 92.662 27C89.7286 27 87.4486 26.6533 85.822 25.96C84.222 25.24 83.102 24.0933 82.462 22.52C81.822 20.9466 81.502 18.8533 81.502 16.24V1.31996H87.902V16.12C87.902 17.48 88.0353 18.5466 88.302 19.32C88.5686 20.0933 89.0486 20.64 89.742 20.96C90.4353 21.2533 91.4086 21.4 92.662 21.4C93.8353 21.4 94.7286 21.2533 95.342 20.96C95.982 20.64 96.422 20.0933 96.662 19.32C96.902 18.5466 97.022 17.48 97.022 16.12V1.31996H103.422Z" fill="white"/>
<path d="M113.421 26.64V6.71996H106.221V1.31996H127.021V6.71996H119.821V26.64H113.421Z" fill="white"/>
<path d="M163.734 1.31996V16.24C163.734 18.8533 163.414 20.9466 162.774 22.52C162.161 24.0933 161.081 25.24 159.534 25.96C157.988 26.6533 155.801 27 152.974 27C150.041 27 147.761 26.6533 146.134 25.96C144.534 25.24 143.414 24.0933 142.774 22.52C142.134 20.9466 141.814 18.8533 141.814 16.24V1.31996H148.214V16.12C148.214 17.48 148.348 18.5466 148.614 19.32C148.881 20.0933 149.361 20.64 150.054 20.96C150.748 21.2533 151.721 21.4 152.974 21.4C154.148 21.4 155.041 21.2533 155.654 20.96C156.294 20.64 156.734 20.0933 156.974 19.32C157.214 18.5466 157.334 17.48 157.334 16.12V1.31996H163.734Z" fill="white"/>
<path d="M167.893 20.12C169.067 20.52 170.347 20.84 171.733 21.08C173.147 21.2933 174.547 21.4 175.933 21.4C177.827 21.4 179.227 21.32 180.133 21.16C181.067 20.9733 181.68 20.6933 181.973 20.32C182.267 19.9466 182.413 19.4666 182.413 18.88C182.413 18.3733 182.307 17.9733 182.093 17.68C181.88 17.3866 181.467 17.16 180.853 17C180.24 16.8133 179.333 16.6666 178.133 16.56L175.493 16.32C173.52 16.1333 171.96 15.72 170.813 15.08C169.693 14.44 168.893 13.5866 168.413 12.52C167.96 11.4266 167.733 10.12 167.733 8.59996C167.733 6.78663 168.093 5.31996 168.813 4.19996C169.56 3.07996 170.76 2.26663 172.413 1.75996C174.067 1.22663 176.267 0.959961 179.013 0.959961C182.587 0.959961 185.533 1.42663 187.853 2.35996L187.733 7.79996L187.613 7.95996C184.973 7.02663 182.213 6.55996 179.333 6.55996C177.947 6.55996 176.88 6.63996 176.133 6.79996C175.387 6.9333 174.867 7.15996 174.573 7.47996C174.28 7.79996 174.133 8.25329 174.133 8.83996C174.133 9.42663 174.227 9.86663 174.413 10.16C174.627 10.4533 175.04 10.68 175.653 10.84C176.267 10.9733 177.16 11.1066 178.333 11.24L180.853 11.52C182.987 11.76 184.627 12.1866 185.773 12.8C186.92 13.4133 187.707 14.24 188.133 15.28C188.587 16.2933 188.813 17.5333 188.813 19C188.813 20.7866 188.427 22.28 187.653 23.48C186.907 24.6533 185.68 25.5333 183.973 26.12C182.267 26.7066 179.987 27 177.133 27C175.267 27 173.587 26.9066 172.093 26.72C170.6 26.5066 169.147 26.2266 167.733 25.88V20.24L167.893 20.12Z" fill="white"/>
</mask>
<g mask="url(#mask0_1931_69)">
<rect x="-6" y="-7" width="202" height="42" fill="url(#paint0_linear_1931_69)"/>
</g>
<defs>
<linearGradient id="paint0_linear_1931_69" x1="50.9977" y1="57.5701" x2="79.0639" y2="-31.7229" gradientUnits="userSpaceOnUse">
<stop stop-color="#00337C"/>
<stop offset="1" stop-color="#03C988"/>
</linearGradient>
</defs>
</svg>
