<svg width="251" height="27" viewBox="0 0 251 27" fill="none" xmlns="http://www.w3.org/2000/svg">
<mask id="mask0_1931_68" style="mask-type:alpha" maskUnits="userSpaceOnUse" x="0" y="0" width="251" height="27">
<path d="M0.599609 13.96C0.599609 10.7333 0.959609 8.17329 1.67961 6.27996C2.42628 4.38663 3.69294 3.02663 5.47961 2.19996C7.29294 1.37329 9.81294 0.959961 13.0396 0.959961C15.4663 0.959961 17.4796 1.18663 19.0796 1.63996C20.6796 2.09329 21.9463 2.82663 22.8796 3.83996C23.8129 4.85329 24.4663 6.19996 24.8396 7.87996C25.2396 9.53329 25.4396 11.56 25.4396 13.96C25.4396 16.3866 25.2396 18.44 24.8396 20.12C24.4663 21.7733 23.8129 23.1066 22.8796 24.12C21.9463 25.1333 20.6796 25.8666 19.0796 26.32C17.4796 26.7733 15.4663 27 13.0396 27C10.6129 27 8.59961 26.7733 6.99961 26.32C5.39961 25.8666 4.13294 25.1333 3.19961 24.12C2.26628 23.1066 1.59961 21.7733 1.19961 20.12C0.799609 18.44 0.599609 16.3866 0.599609 13.96ZM13.0396 21.4C14.7463 21.4 16.0263 21.1866 16.8796 20.76C17.7329 20.3333 18.3063 19.5866 18.5996 18.52C18.8929 17.4266 19.0396 15.9066 19.0396 13.96C19.0396 12.04 18.8929 10.5466 18.5996 9.47996C18.3063 8.41329 17.7329 7.66663 16.8796 7.23996C16.0263 6.78663 14.7463 6.55996 13.0396 6.55996C11.3596 6.55996 10.0796 6.78663 9.19961 7.23996C8.34628 7.66663 7.75961 8.41329 7.43961 9.47996C7.14628 10.5466 6.99961 12.04 6.99961 13.96C6.99961 15.9066 7.14628 17.4266 7.43961 18.52C7.75961 19.5866 8.34628 20.3333 9.19961 20.76C10.0796 21.1866 11.3596 21.4 13.0396 21.4Z" fill="white"/>
<path d="M51.3665 1.31996V16.24C51.3665 18.8533 51.0465 20.9466 50.4065 22.52C49.7932 24.0933 48.7132 25.24 47.1665 25.96C45.6198 26.6533 43.4332 27 40.6065 27C37.6732 27 35.3932 26.6533 33.7665 25.96C32.1665 25.24 31.0465 24.0933 30.4065 22.52C29.7665 20.9466 29.4465 18.8533 29.4465 16.24V1.31996H35.8465V16.12C35.8465 17.48 35.9798 18.5466 36.2465 19.32C36.5131 20.0933 36.9932 20.64 37.6865 20.96C38.3798 21.2533 39.3532 21.4 40.6065 21.4C41.7798 21.4 42.6732 21.2533 43.2865 20.96C43.9265 20.64 44.3665 20.0933 44.6065 19.32C44.8465 18.5466 44.9665 17.48 44.9665 16.12V1.31996H51.3665Z" fill="white"/>
<path d="M62.5652 26.64H56.1652V1.31996H68.2452C71.4186 1.31996 73.7252 2.03996 75.1652 3.47996C76.6319 4.89329 77.3652 6.98663 77.3652 9.75996C77.3652 11.84 76.8452 13.6266 75.8052 15.12C74.7652 16.5866 73.3919 17.5066 71.6852 17.88L71.6452 18C72.3119 18.4266 73.0452 19.1333 73.8452 20.12C74.6452 21.1066 75.4319 22.1866 76.2052 23.36C77.0052 24.5066 77.7119 25.5866 78.3252 26.6V26.64H70.8852L66.5652 20.24C66.1919 19.68 65.8852 19.28 65.6452 19.04C65.4319 18.8 65.1652 18.6533 64.8452 18.6C64.5519 18.5466 64.0719 18.52 63.4052 18.52H62.5652V26.64ZM67.2052 6.51996H62.5652V13.32H67.2052C68.5386 13.32 69.4586 13.0533 69.9652 12.52C70.4986 11.9866 70.7652 11.12 70.7652 9.91996C70.7652 8.71996 70.4986 7.85329 69.9652 7.31996C69.4586 6.78663 68.5386 6.51996 67.2052 6.51996Z" fill="white"/>
<path d="M105.499 25.36C105.045 23.92 104.579 22.3866 104.099 20.76C103.645 19.1333 103.192 17.52 102.739 15.92C102.285 14.32 101.872 12.8266 101.499 11.44C101.125 10.0533 100.805 8.85329 100.539 7.83996C100.272 6.82663 100.085 6.10663 99.9787 5.67996L99.8187 5.71996C99.8987 6.19996 99.9653 6.83996 100.019 7.63996C100.072 8.41329 100.112 9.23996 100.139 10.12C100.165 10.9733 100.179 11.76 100.179 12.48V26.64H94.0587V1.31996H104.779C105.152 2.73329 105.539 4.22663 105.939 5.79996C106.365 7.34663 106.779 8.89329 107.179 10.44C107.605 11.96 107.979 13.4133 108.299 14.8C108.619 16.16 108.845 17.3466 108.979 18.36H109.059C109.192 17.3466 109.405 16.16 109.699 14.8C110.019 13.44 110.379 11.9866 110.779 10.44C111.179 8.89329 111.592 7.34663 112.019 5.79996C112.445 4.22663 112.832 2.73329 113.179 1.31996H123.739V26.64H117.699V12.48C117.699 11.76 117.712 10.9733 117.739 10.12C117.765 9.23996 117.805 8.41329 117.859 7.63996C117.939 6.83996 118.005 6.19996 118.059 5.71996L117.899 5.67996C117.792 6.10663 117.605 6.82663 117.339 7.83996C117.072 8.85329 116.739 10.0666 116.339 11.48C115.965 12.8666 115.552 14.36 115.099 15.96C114.645 17.56 114.179 19.1733 113.699 20.8C113.245 22.4 112.805 23.92 112.379 25.36H105.499Z" fill="white"/>
<path d="M135.065 26.64H128.665V1.31996H135.065V26.64Z" fill="white"/>
<path d="M139.236 20.12C140.41 20.52 141.69 20.84 143.076 21.08C144.49 21.2933 145.89 21.4 147.276 21.4C149.17 21.4 150.569 21.32 151.476 21.16C152.409 20.9733 153.023 20.6933 153.316 20.32C153.61 19.9466 153.756 19.4666 153.756 18.88C153.756 18.3733 153.65 17.9733 153.436 17.68C153.223 17.3866 152.81 17.16 152.196 17C151.583 16.8133 150.676 16.6666 149.476 16.56L146.836 16.32C144.863 16.1333 143.303 15.72 142.156 15.08C141.036 14.44 140.236 13.5866 139.756 12.52C139.303 11.4266 139.076 10.12 139.076 8.59996C139.076 6.78663 139.436 5.31996 140.156 4.19996C140.903 3.07996 142.103 2.26663 143.756 1.75996C145.409 1.22663 147.61 0.959961 150.356 0.959961C153.93 0.959961 156.876 1.42663 159.196 2.35996L159.076 7.79996L158.956 7.95996C156.316 7.02663 153.556 6.55996 150.676 6.55996C149.29 6.55996 148.223 6.63996 147.476 6.79996C146.729 6.9333 146.21 7.15996 145.916 7.47996C145.623 7.79996 145.476 8.25329 145.476 8.83996C145.476 9.42663 145.57 9.86663 145.756 10.16C145.97 10.4533 146.383 10.68 146.996 10.84C147.61 10.9733 148.503 11.1066 149.676 11.24L152.196 11.52C154.329 11.76 155.97 12.1866 157.116 12.8C158.263 13.4133 159.049 14.24 159.476 15.28C159.929 16.2933 160.156 17.5333 160.156 19C160.156 20.7866 159.77 22.28 158.996 23.48C158.25 24.6533 157.023 25.5333 155.316 26.12C153.61 26.7066 151.329 27 148.476 27C146.609 27 144.93 26.9066 143.436 26.72C141.943 26.5066 140.49 26.2266 139.076 25.88V20.24L139.236 20.12Z" fill="white"/>
<path d="M163.533 20.12C164.706 20.52 165.986 20.84 167.373 21.08C168.786 21.2933 170.186 21.4 171.573 21.4C173.466 21.4 174.866 21.32 175.773 21.16C176.706 20.9733 177.32 20.6933 177.613 20.32C177.906 19.9466 178.053 19.4666 178.053 18.88C178.053 18.3733 177.946 17.9733 177.733 17.68C177.52 17.3866 177.106 17.16 176.493 17C175.88 16.8133 174.973 16.6666 173.773 16.56L171.133 16.32C169.16 16.1333 167.6 15.72 166.453 15.08C165.333 14.44 164.533 13.5866 164.053 12.52C163.6 11.4266 163.373 10.12 163.373 8.59996C163.373 6.78663 163.733 5.31996 164.453 4.19996C165.2 3.07996 166.4 2.26663 168.053 1.75996C169.706 1.22663 171.906 0.959961 174.653 0.959961C178.226 0.959961 181.173 1.42663 183.493 2.35996L183.373 7.79996L183.253 7.95996C180.613 7.02663 177.853 6.55996 174.973 6.55996C173.586 6.55996 172.52 6.63996 171.773 6.79996C171.026 6.9333 170.506 7.15996 170.213 7.47996C169.92 7.79996 169.773 8.25329 169.773 8.83996C169.773 9.42663 169.866 9.86663 170.053 10.16C170.266 10.4533 170.68 10.68 171.293 10.84C171.906 10.9733 172.8 11.1066 173.973 11.24L176.493 11.52C178.626 11.76 180.266 12.1866 181.413 12.8C182.56 13.4133 183.346 14.24 183.773 15.28C184.226 16.2933 184.453 17.5333 184.453 19C184.453 20.7866 184.066 22.28 183.293 23.48C182.546 24.6533 181.32 25.5333 179.613 26.12C177.906 26.7066 175.626 27 172.773 27C170.906 27 169.226 26.9066 167.733 26.72C166.24 26.5066 164.786 26.2266 163.373 25.88V20.24L163.533 20.12Z" fill="white"/>
<path d="M194.87 26.64H188.47V1.31996H194.87V26.64Z" fill="white"/>
<path d="M198.881 13.96C198.881 10.7333 199.241 8.17329 199.961 6.27996C200.708 4.38663 201.974 3.02663 203.761 2.19996C205.574 1.37329 208.094 0.959961 211.321 0.959961C213.748 0.959961 215.761 1.18663 217.361 1.63996C218.961 2.09329 220.228 2.82663 221.161 3.83996C222.094 4.85329 222.748 6.19996 223.121 7.87996C223.521 9.53329 223.721 11.56 223.721 13.96C223.721 16.3866 223.521 18.44 223.121 20.12C222.748 21.7733 222.094 23.1066 221.161 24.12C220.228 25.1333 218.961 25.8666 217.361 26.32C215.761 26.7733 213.748 27 211.321 27C208.894 27 206.881 26.7733 205.281 26.32C203.681 25.8666 202.414 25.1333 201.481 24.12C200.548 23.1066 199.881 21.7733 199.481 20.12C199.081 18.44 198.881 16.3866 198.881 13.96ZM211.321 21.4C213.028 21.4 214.308 21.1866 215.161 20.76C216.014 20.3333 216.588 19.5866 216.881 18.52C217.174 17.4266 217.321 15.9066 217.321 13.96C217.321 12.04 217.174 10.5466 216.881 9.47996C216.588 8.41329 216.014 7.66663 215.161 7.23996C214.308 6.78663 213.028 6.55996 211.321 6.55996C209.641 6.55996 208.361 6.78663 207.481 7.23996C206.628 7.66663 206.041 8.41329 205.721 9.47996C205.428 10.5466 205.281 12.04 205.281 13.96C205.281 15.9066 205.428 17.4266 205.721 18.52C206.041 19.5866 206.628 20.3333 207.481 20.76C208.361 21.1866 209.641 21.4 211.321 21.4Z" fill="white"/>
<path d="M244.128 1.31996H250.528V26.64H244.168L236.968 15.92C236.408 15.0666 235.941 14.3466 235.568 13.76C235.194 13.1733 234.848 12.5866 234.528 12C234.208 11.4133 233.848 10.72 233.448 9.91996L233.328 10.08C233.701 11.36 233.928 12.56 234.008 13.68C234.088 14.7733 234.128 15.84 234.128 16.88V26.64H227.728V1.31996H234.088L241.288 12.04C241.848 12.8666 242.314 13.5866 242.688 14.2C243.061 14.7866 243.408 15.3733 243.728 15.96C244.048 16.5466 244.408 17.24 244.808 18.04L244.928 17.88C244.661 16.76 244.461 15.68 244.328 14.64C244.194 13.5733 244.128 12.52 244.128 11.48V1.31996Z" fill="white"/>
</mask>
<g mask="url(#mask0_1931_68)">
<rect x="-1" y="-7" width="252" height="42" fill="url(#paint0_linear_1931_68)"/>
</g>
<defs>
<linearGradient id="paint0_linear_1931_68" x1="70.1061" y1="57.5701" x2="93.3506" y2="-34.688" gradientUnits="userSpaceOnUse">
<stop stop-color="#00337C"/>
<stop offset="1" stop-color="#03C988"/>
</linearGradient>
</defs>
</svg>
