<svg width="250" height="27" viewBox="0 0 250 27" fill="none" xmlns="http://www.w3.org/2000/svg">
<mask id="mask0_1931_74" style="mask-type:alpha" maskUnits="userSpaceOnUse" x="0" y="0" width="250" height="27">
<path d="M6.80039 26.64H0.400391V1.31996H11.6804C14.2137 1.31996 16.2404 1.62663 17.7604 2.23996C19.2804 2.85329 20.3737 3.85329 21.0404 5.23996C21.7071 6.62663 22.0404 8.50663 22.0404 10.88C22.0404 13.12 21.7071 14.9466 21.0404 16.36C20.3737 17.7466 19.2804 18.7733 17.7604 19.44C16.2404 20.1066 14.2137 20.44 11.6804 20.44H6.80039V26.64ZM10.6404 6.55996H6.80039V15.2H10.6404C12.5337 15.2 13.8004 14.88 14.4404 14.24C15.0804 13.6 15.4004 12.48 15.4004 10.88C15.4004 9.35996 15.0804 8.26663 14.4404 7.59996C13.8004 6.90663 12.5337 6.55996 10.6404 6.55996Z" fill="white"/>
<path d="M48.6395 26.52V26.64H41.8395C41.6528 26 41.4261 25.2666 41.1595 24.44C40.9195 23.6133 40.6528 22.7333 40.3595 21.8H31.7195C31.1861 23.6666 30.6928 25.28 30.2395 26.64H23.4395V26.56L31.6395 1.31996H40.4395L48.6395 26.52ZM35.9595 5.87996C35.6928 7.23996 35.3061 8.89329 34.7995 10.84C34.2928 12.7866 33.7595 14.7733 33.1995 16.8H38.9195C38.3328 14.7733 37.7861 12.7866 37.2795 10.84C36.7728 8.89329 36.3861 7.23996 36.1195 5.87996H35.9595Z" fill="white"/>
<path d="M50.8151 20.12C51.9884 20.52 53.2684 20.84 54.6551 21.08C56.0684 21.2933 57.4684 21.4 58.8551 21.4C60.7484 21.4 62.1484 21.32 63.0551 21.16C63.9884 20.9733 64.6017 20.6933 64.8951 20.32C65.1884 19.9466 65.3351 19.4666 65.3351 18.88C65.3351 18.3733 65.2284 17.9733 65.0151 17.68C64.8017 17.3866 64.3884 17.16 63.7751 17C63.1617 16.8133 62.2551 16.6666 61.0551 16.56L58.4151 16.32C56.4417 16.1333 54.8817 15.72 53.7351 15.08C52.6151 14.44 51.8151 13.5866 51.3351 12.52C50.8817 11.4266 50.6551 10.12 50.6551 8.59996C50.6551 6.78663 51.0151 5.31996 51.7351 4.19996C52.4817 3.07996 53.6817 2.26663 55.3351 1.75996C56.9884 1.22663 59.1884 0.959961 61.9351 0.959961C65.5084 0.959961 68.4551 1.42663 70.7751 2.35996L70.6551 7.79996L70.5351 7.95996C67.8951 7.02663 65.1351 6.55996 62.2551 6.55996C60.8684 6.55996 59.8017 6.63996 59.0551 6.79996C58.3084 6.9333 57.7884 7.15996 57.4951 7.47996C57.2017 7.79996 57.0551 8.25329 57.0551 8.83996C57.0551 9.42663 57.1484 9.86663 57.3351 10.16C57.5484 10.4533 57.9617 10.68 58.5751 10.84C59.1884 10.9733 60.0817 11.1066 61.2551 11.24L63.7751 11.52C65.9084 11.76 67.5484 12.1866 68.6951 12.8C69.8417 13.4133 70.6284 14.24 71.0551 15.28C71.5084 16.2933 71.7351 17.5333 71.7351 19C71.7351 20.7866 71.3484 22.28 70.5751 23.48C69.8284 24.6533 68.6017 25.5333 66.8951 26.12C65.1884 26.7066 62.9084 27 60.0551 27C58.1884 27 56.5084 26.9066 55.0151 26.72C53.5217 26.5066 52.0684 26.2266 50.6551 25.88V20.24L50.8151 20.12Z" fill="white"/>
<path d="M80.952 26.64V6.71996H73.752V1.31996H94.552V6.71996H87.352V26.64H80.952Z" fill="white"/>
<path d="M109.346 26.64V1.31996H128.146V6.51996H115.746V11.32H126.506V16.52H115.746V21.44H128.146V26.64H109.346Z" fill="white"/>
<path d="M154.418 1.35996L146.538 26.64H137.738L130.258 1.35996H137.418C137.845 2.69329 138.298 4.21329 138.778 5.91996C139.258 7.62663 139.725 9.37329 140.178 11.16C140.658 12.92 141.071 14.5733 141.418 16.12C141.791 17.64 142.071 18.9066 142.258 19.92H142.418C142.605 18.9066 142.871 17.64 143.218 16.12C143.591 14.5733 144.005 12.92 144.458 11.16C144.938 9.39996 145.418 7.66663 145.898 5.95996C146.378 4.25329 146.831 2.71996 147.258 1.35996H154.418Z" fill="white"/>
<path d="M158.096 26.64V1.31996H176.896V6.51996H164.496V11.32H175.256V16.52H164.496V21.44H176.896V26.64H158.096Z" fill="white"/>
<path d="M196.488 1.31996H202.888V26.64H196.528L189.328 15.92C188.768 15.0666 188.301 14.3466 187.928 13.76C187.555 13.1733 187.208 12.5866 186.888 12C186.568 11.4133 186.208 10.72 185.808 9.91996L185.688 10.08C186.061 11.36 186.288 12.56 186.368 13.68C186.448 14.7733 186.488 15.84 186.488 16.88V26.64H180.088V1.31996H186.448L193.648 12.04C194.208 12.8666 194.675 13.5866 195.048 14.2C195.421 14.7866 195.768 15.3733 196.088 15.96C196.408 16.5466 196.768 17.24 197.168 18.04L197.288 17.88C197.021 16.76 196.821 15.68 196.688 14.64C196.555 13.5733 196.488 12.52 196.488 11.48V1.31996Z" fill="white"/>
<path d="M212.905 26.64V6.71996H205.705V1.31996H226.505V6.71996H219.305V26.64H212.905Z" fill="white"/>
<path d="M228.667 20.12C229.84 20.52 231.12 20.84 232.507 21.08C233.92 21.2933 235.32 21.4 236.707 21.4C238.6 21.4 240 21.32 240.907 21.16C241.84 20.9733 242.453 20.6933 242.747 20.32C243.04 19.9466 243.187 19.4666 243.187 18.88C243.187 18.3733 243.08 17.9733 242.867 17.68C242.653 17.3866 242.24 17.16 241.627 17C241.013 16.8133 240.107 16.6666 238.907 16.56L236.267 16.32C234.293 16.1333 232.733 15.72 231.587 15.08C230.467 14.44 229.667 13.5866 229.187 12.52C228.733 11.4266 228.507 10.12 228.507 8.59996C228.507 6.78663 228.867 5.31996 229.587 4.19996C230.333 3.07996 231.533 2.26663 233.187 1.75996C234.84 1.22663 237.04 0.959961 239.787 0.959961C243.36 0.959961 246.307 1.42663 248.627 2.35996L248.507 7.79996L248.387 7.95996C245.747 7.02663 242.987 6.55996 240.107 6.55996C238.72 6.55996 237.653 6.63996 236.907 6.79996C236.16 6.9333 235.64 7.15996 235.347 7.47996C235.053 7.79996 234.907 8.25329 234.907 8.83996C234.907 9.42663 235 9.86663 235.187 10.16C235.4 10.4533 235.813 10.68 236.427 10.84C237.04 10.9733 237.933 11.1066 239.107 11.24L241.627 11.52C243.76 11.76 245.4 12.1866 246.547 12.8C247.693 13.4133 248.48 14.24 248.907 15.28C249.36 16.2933 249.587 17.5333 249.587 19C249.587 20.7866 249.2 22.28 248.427 23.48C247.68 24.6533 246.453 25.5333 244.747 26.12C243.04 26.7066 240.76 27 237.907 27C236.04 27 234.36 26.9066 232.867 26.72C231.373 26.5066 229.92 26.2266 228.507 25.88V20.24L228.667 20.12Z" fill="white"/>
</mask>
<g mask="url(#mask0_1931_74)">
<rect x="-4" y="-7" width="263" height="42" fill="url(#paint0_linear_1931_74)"/>
</g>
<defs>
<linearGradient id="paint0_linear_1931_74" x1="70.2099" y1="57.5701" x2="92.5917" y2="-35.1413" gradientUnits="userSpaceOnUse">
<stop stop-color="#00337C"/>
<stop offset="1" stop-color="#03C988"/>
</linearGradient>
</defs>
</svg>
