<svg width="283" height="27" viewBox="0 0 283 27" fill="none" xmlns="http://www.w3.org/2000/svg">
<mask id="mask0_1931_70" style="mask-type:alpha" maskUnits="userSpaceOnUse" x="0" y="0" width="283" height="27">
<path d="M0.759609 20.12C1.93294 20.52 3.21294 20.84 4.59961 21.08C6.01294 21.2933 7.41294 21.4 8.79961 21.4C10.6929 21.4 12.0929 21.32 12.9996 21.16C13.9329 20.9733 14.5463 20.6933 14.8396 20.32C15.1329 19.9466 15.2796 19.4666 15.2796 18.88C15.2796 18.3733 15.1729 17.9733 14.9596 17.68C14.7463 17.3866 14.3329 17.16 13.7196 17C13.1063 16.8133 12.1996 16.6666 10.9996 16.56L8.35961 16.32C6.38628 16.1333 4.82628 15.72 3.67961 15.08C2.55961 14.44 1.75961 13.5866 1.27961 12.52C0.826276 11.4266 0.599609 10.12 0.599609 8.59996C0.599609 6.78663 0.959609 5.31996 1.67961 4.19996C2.42628 3.07996 3.62628 2.26663 5.27961 1.75996C6.93294 1.22663 9.13294 0.959961 11.8796 0.959961C15.4529 0.959961 18.3996 1.42663 20.7196 2.35996L20.5996 7.79996L20.4796 7.95996C17.8396 7.02663 15.0796 6.55996 12.1996 6.55996C10.8129 6.55996 9.74628 6.63996 8.99961 6.79996C8.25294 6.9333 7.73294 7.15996 7.43961 7.47996C7.14628 7.79996 6.99961 8.25329 6.99961 8.83996C6.99961 9.42663 7.09294 9.86663 7.27961 10.16C7.49294 10.4533 7.90628 10.68 8.51961 10.84C9.13294 10.9733 10.0263 11.1066 11.1996 11.24L13.7196 11.52C15.8529 11.76 17.4929 12.1866 18.6396 12.8C19.7863 13.4133 20.5729 14.24 20.9996 15.28C21.4529 16.2933 21.6796 17.5333 21.6796 19C21.6796 20.7866 21.2929 22.28 20.5196 23.48C19.7729 24.6533 18.5463 25.5333 16.8396 26.12C15.1329 26.7066 12.8529 27 9.99961 27C8.13294 27 6.45294 26.9066 4.95961 26.72C3.46628 26.5066 2.01294 26.2266 0.599609 25.88V20.24L0.759609 20.12Z" fill="white"/>
<path d="M30.8965 26.64V6.71996H23.6965V1.31996H44.4965V6.71996H37.2965V26.64H30.8965Z" fill="white"/>
<path d="M70.498 26.52V26.64H63.698C63.5114 26 63.2847 25.2666 63.018 24.44C62.778 23.6133 62.5114 22.7333 62.218 21.8H53.578C53.0447 23.6666 52.5514 25.28 52.098 26.64H45.298V26.56L53.498 1.31996H62.298L70.498 26.52ZM57.818 5.87996C57.5514 7.23996 57.1647 8.89329 56.658 10.84C56.1514 12.7866 55.618 14.7733 55.058 16.8H60.778C60.1914 14.7733 59.6447 12.7866 59.138 10.84C58.6314 8.89329 58.2447 7.23996 57.978 5.87996H57.818Z" fill="white"/>
<path d="M79.7137 26.64H73.3137V1.31996H85.3937C88.567 1.31996 90.8737 2.03996 92.3137 3.47996C93.7803 4.89329 94.5137 6.98663 94.5137 9.75996C94.5137 11.84 93.9937 13.6266 92.9537 15.12C91.9137 16.5866 90.5403 17.5066 88.8337 17.88L88.7937 18C89.4603 18.4266 90.1937 19.1333 90.9937 20.12C91.7937 21.1066 92.5803 22.1866 93.3537 23.36C94.1537 24.5066 94.8603 25.5866 95.4737 26.6V26.64H88.0337L83.7137 20.24C83.3403 19.68 83.0337 19.28 82.7937 19.04C82.5803 18.8 82.3137 18.6533 81.9937 18.6C81.7003 18.5466 81.2203 18.52 80.5537 18.52H79.7137V26.64ZM84.3537 6.51996H79.7137V13.32H84.3537C85.687 13.32 86.607 13.0533 87.1137 12.52C87.647 11.9866 87.9137 11.12 87.9137 9.91996C87.9137 8.71996 87.647 7.85329 87.1137 7.31996C86.607 6.78663 85.687 6.51996 84.3537 6.51996Z" fill="white"/>
<path d="M104.295 26.64V6.71996H97.0949V1.31996H117.895V6.71996H110.695V26.64H104.295Z" fill="white"/>
<path d="M142.616 1.31996V16.24C142.616 18.8533 142.296 20.9466 141.656 22.52C141.043 24.0933 139.963 25.24 138.416 25.96C136.87 26.6533 134.683 27 131.856 27C128.923 27 126.643 26.6533 125.016 25.96C123.416 25.24 122.296 24.0933 121.656 22.52C121.016 20.9466 120.696 18.8533 120.696 16.24V1.31996H127.096V16.12C127.096 17.48 127.23 18.5466 127.496 19.32C127.763 20.0933 128.243 20.64 128.936 20.96C129.63 21.2533 130.603 21.4 131.856 21.4C133.03 21.4 133.923 21.2533 134.536 20.96C135.176 20.64 135.616 20.0933 135.856 19.32C136.096 18.5466 136.216 17.48 136.216 16.12V1.31996H142.616Z" fill="white"/>
<path d="M153.815 26.64H147.415V1.31996H158.695C161.229 1.31996 163.255 1.62663 164.775 2.23996C166.295 2.85329 167.389 3.85329 168.055 5.23996C168.722 6.62663 169.055 8.50663 169.055 10.88C169.055 13.12 168.722 14.9466 168.055 16.36C167.389 17.7466 166.295 18.7733 164.775 19.44C163.255 20.1066 161.229 20.44 158.695 20.44H153.815V26.64ZM157.655 6.55996H153.815V15.2H157.655C159.549 15.2 160.815 14.88 161.455 14.24C162.095 13.6 162.415 12.48 162.415 10.88C162.415 9.35996 162.095 8.26663 161.455 7.59996C160.815 6.90663 159.549 6.55996 157.655 6.55996Z" fill="white"/>
<path d="M184.446 26.64V1.31996H203.246V6.51996H190.846V11.32H201.606V16.52H190.846V21.44H203.246V26.64H184.446Z" fill="white"/>
<path d="M222.759 13.72L230.159 26.64H222.159L217.559 17.68H217.439L212.839 26.64H204.839L212.239 13.72V13.52L205.319 1.31996H213.199L217.439 10.12H217.559L221.799 1.31996H229.679L222.759 13.52V13.72Z" fill="white"/>
<path d="M239.714 26.64H233.314V1.31996H244.594C247.127 1.31996 249.154 1.62663 250.674 2.23996C252.194 2.85329 253.287 3.85329 253.954 5.23996C254.62 6.62663 254.954 8.50663 254.954 10.88C254.954 13.12 254.62 14.9466 253.954 16.36C253.287 17.7466 252.194 18.7733 250.674 19.44C249.154 20.1066 247.127 20.44 244.594 20.44H239.714V26.64ZM243.554 6.55996H239.714V15.2H243.554C245.447 15.2 246.714 14.88 247.354 14.24C247.994 13.6 248.314 12.48 248.314 10.88C248.314 9.35996 247.994 8.26663 247.354 7.59996C246.714 6.90663 245.447 6.55996 243.554 6.55996Z" fill="white"/>
<path d="M257.553 13.96C257.553 10.7333 257.913 8.17329 258.633 6.27996C259.379 4.38663 260.646 3.02663 262.433 2.19996C264.246 1.37329 266.766 0.959961 269.993 0.959961C272.419 0.959961 274.433 1.18663 276.033 1.63996C277.633 2.09329 278.899 2.82663 279.833 3.83996C280.766 4.85329 281.419 6.19996 281.793 7.87996C282.193 9.53329 282.393 11.56 282.393 13.96C282.393 16.3866 282.193 18.44 281.793 20.12C281.419 21.7733 280.766 23.1066 279.833 24.12C278.899 25.1333 277.633 25.8666 276.033 26.32C274.433 26.7733 272.419 27 269.993 27C267.566 27 265.553 26.7733 263.953 26.32C262.353 25.8666 261.086 25.1333 260.153 24.12C259.219 23.1066 258.553 21.7733 258.153 20.12C257.753 18.44 257.553 16.3866 257.553 13.96ZM269.993 21.4C271.699 21.4 272.979 21.1866 273.833 20.76C274.686 20.3333 275.259 19.5866 275.553 18.52C275.846 17.4266 275.993 15.9066 275.993 13.96C275.993 12.04 275.846 10.5466 275.553 9.47996C275.259 8.41329 274.686 7.66663 273.833 7.23996C272.979 6.78663 271.699 6.55996 269.993 6.55996C268.313 6.55996 267.033 6.78663 266.153 7.23996C265.299 7.66663 264.713 8.41329 264.393 9.47996C264.099 10.5466 263.953 12.04 263.953 13.96C263.953 15.9066 264.099 17.4266 264.393 18.52C264.713 19.5866 265.299 20.3333 266.153 20.76C267.033 21.1866 268.313 21.4 269.993 21.4Z" fill="white"/>
</mask>
<g mask="url(#mask0_1931_70)">
<rect x="-1" y="-5" width="289" height="42" fill="url(#paint0_linear_1931_70)"/>
</g>
<defs>
<linearGradient id="paint0_linear_1931_70" x1="80.5463" y1="59.5701" x2="101.109" y2="-34.027" gradientUnits="userSpaceOnUse">
<stop stop-color="#00337C"/>
<stop offset="1" stop-color="#03C988"/>
</linearGradient>
</defs>
</svg>
