<svg width="680" height="232" viewBox="0 0 680 232" fill="none" xmlns="http://www.w3.org/2000/svg">
<path d="M8.8 33.64H2.4V8.32H8.8V33.64ZM20.0109 33.64H13.6109V8.32H20.0109V33.64ZM30.0219 33.64V13.72H22.8219V8.32H43.6219V13.72H36.4219V33.64H30.0219ZM58.4156 33.64V8.32H69.4956C71.709 8.32 73.5623 8.50667 75.0556 8.88C76.549 9.22667 77.749 9.85333 78.6556 10.76C79.5623 11.6667 80.2156 12.9333 80.6156 14.56C81.0156 16.16 81.2156 18.2267 81.2156 20.76C81.2156 23.4 81.0156 25.56 80.6156 27.24C80.2156 28.92 79.5623 30.2267 78.6556 31.16C77.749 32.0933 76.549 32.7467 75.0556 33.12C73.5623 33.4667 71.709 33.64 69.4956 33.64H58.4156ZM68.5756 13.72H64.8156V28.24H68.5756C70.1223 28.24 71.3356 28.0667 72.2156 27.72C73.1223 27.3733 73.7623 26.6667 74.1356 25.6C74.5356 24.5333 74.7356 22.92 74.7356 20.76C74.7356 18.7067 74.5356 17.1867 74.1356 16.2C73.7623 15.1867 73.1223 14.52 72.2156 14.2C71.3356 13.88 70.1223 13.72 68.5756 13.72ZM102.373 33C101.626 33.2667 100.586 33.5067 99.2525 33.72C97.9458 33.9067 96.3858 34 94.5725 34C92.2792 34 90.3192 33.7067 88.6925 33.12C87.0925 32.5067 85.8792 31.48 85.0525 30.04C84.2258 28.5733 83.8125 26.5467 83.8125 23.96C83.8125 20.44 84.6125 17.8933 86.2125 16.32C87.8392 14.7467 90.3458 13.96 93.7325 13.96C96.1592 13.96 98.0658 14.3067 99.4525 15C100.866 15.6933 101.866 16.68 102.453 17.96C103.066 19.2133 103.372 20.7067 103.372 22.44C103.372 22.9467 103.346 23.4933 103.293 24.08C103.266 24.6667 103.199 25.24 103.093 25.8L102.933 25.96H89.7725C89.9592 27.1333 90.5058 27.9067 91.4125 28.28C92.3458 28.6533 93.8525 28.84 95.9325 28.84C97.3192 28.84 98.4658 28.8133 99.3725 28.76C100.306 28.68 101.253 28.5733 102.213 28.44L102.373 28.56V33ZM97.8125 21.76C97.8125 21.12 97.7058 20.5733 97.4925 20.12C97.3058 19.64 96.9192 19.28 96.3325 19.04C95.7458 18.7733 94.8792 18.64 93.7325 18.64C92.0525 18.64 90.9458 18.9333 90.4125 19.52C89.9058 20.08 89.6525 20.8267 89.6525 21.76H97.8125ZM113.175 33.64H106.775V6.72H113.175V33.64ZM124.386 33.64H117.986V6.76H124.386V17.72H124.506C124.879 16.52 125.559 15.6 126.546 14.96C127.559 14.2933 128.879 13.96 130.506 13.96C132.053 13.96 133.319 14.2133 134.306 14.72C135.319 15.2267 136.066 16.12 136.546 17.4C137.053 18.6533 137.306 20.4267 137.306 22.72V33.64H130.906L130.866 23.96C130.866 22.4667 130.639 21.4 130.186 20.76C129.733 20.12 128.879 19.8 127.626 19.8C126.506 19.8 125.693 20.0933 125.186 20.68C124.679 21.2667 124.413 22.2533 124.386 23.64V33.64ZM147.698 6.92C147.778 7.88 147.818 8.68 147.818 9.32C147.818 9.69333 147.804 10.08 147.778 10.48C147.778 10.8533 147.751 11.28 147.698 11.76C147.138 11.8667 146.591 11.9467 146.058 12C145.524 12.0533 144.991 12.08 144.458 12.08C143.951 12.08 143.431 12.0533 142.898 12C142.391 11.9467 141.871 11.8667 141.338 11.76C141.284 11.3067 141.244 10.8933 141.218 10.52C141.191 10.12 141.178 9.73333 141.178 9.36C141.178 9.01333 141.191 8.64 141.218 8.24C141.244 7.84 141.284 7.4 141.338 6.92C141.871 6.78666 142.404 6.70667 142.938 6.68C143.498 6.62666 144.044 6.6 144.578 6.6C145.084 6.6 145.591 6.62666 146.098 6.68C146.631 6.70667 147.164 6.78666 147.698 6.92ZM147.698 33.64H141.298V14.16H147.698V33.64ZM152.927 11.72C153.087 11.7467 153.273 11.76 153.487 11.76C154.287 11.76 154.887 11.6267 155.287 11.36C155.687 11.0667 155.887 10.5733 155.887 9.88L155.847 9.84C155.393 10.1067 154.74 10.24 153.887 10.24C151.807 10.24 150.767 9.25333 150.767 7.28C150.767 6.26667 151.033 5.50667 151.567 5C152.1 4.46666 153.047 4.2 154.407 4.2C155.82 4.2 156.82 4.6 157.407 5.4C158.02 6.2 158.327 7.34666 158.327 8.84C158.327 10.7867 157.927 12.1333 157.127 12.88C156.327 13.6267 155.193 14 153.727 14C153.593 14 153.46 14 153.327 14C153.193 13.9733 153.047 13.9467 152.887 13.92V11.76L152.927 11.72ZM160.895 28.12C162.975 28.7067 165.282 29 167.815 29C169.042 29 169.962 28.96 170.575 28.88C171.188 28.8 171.602 28.6667 171.815 28.48C172.028 28.2933 172.135 28.04 172.135 27.72C172.135 27.2667 171.962 26.9867 171.615 26.88C171.295 26.7733 170.642 26.6267 169.655 26.44L166.495 25.84C164.468 25.44 163.002 24.8133 162.095 23.96C161.215 23.08 160.775 21.7733 160.775 20.04C160.775 17.6933 161.468 16.0933 162.855 15.24C164.268 14.3867 166.508 13.96 169.575 13.96C171.415 13.96 173.028 14.0667 174.415 14.28C175.828 14.4667 177.002 14.7067 177.935 15L177.855 19.84L177.735 19.96C175.575 19.2667 173.215 18.92 170.655 18.92C169.402 18.92 168.522 19.0133 168.015 19.2C167.535 19.36 167.295 19.6933 167.295 20.2C167.295 20.4667 167.362 20.68 167.495 20.84C167.655 21 168.002 21.16 168.535 21.32C169.068 21.4533 169.908 21.6267 171.055 21.84L173.975 22.4C175.602 22.7467 176.802 23.32 177.575 24.12C178.348 24.92 178.735 26.1867 178.735 27.92C178.735 29.44 178.455 30.6533 177.895 31.56C177.335 32.44 176.388 33.0667 175.055 33.44C173.748 33.8133 171.935 34 169.615 34C167.855 34 166.228 33.92 164.735 33.76C163.268 33.5733 161.948 33.36 160.775 33.12V28.2L160.895 28.12Z" fill="white"/>
<g style="mix-blend-mode:plus-lighter">
<mask id="mask0_1930_30" style="mask-type:alpha" maskUnits="userSpaceOnUse" x="0" y="49" width="680" height="183">
<path d="M46.2234 99.1241V99.3431H33.8134C33.4727 98.1751 33.0591 96.8368 32.5724 95.3281C32.1344 93.8195 31.6477 92.2135 31.1124 90.5101H15.3444C14.3711 93.9168 13.4707 96.8611 12.6434 99.3431H0.233398V99.1971L15.1984 53.1341H31.2584L46.2234 99.1241ZM23.0824 61.4561C22.5957 63.9381 21.8901 66.9555 20.9654 70.5081C20.0407 74.0608 19.0674 77.6865 18.0454 81.3851H28.4844C27.4137 77.6865 26.4161 74.0608 25.4914 70.5081C24.5667 66.9555 23.8611 63.9381 23.3744 61.4561H23.0824Z" fill="white"/>
<path d="M66.1079 99.3431H54.4279V63.7921H65.5239L66.1079 70.2891H66.3269C67.0082 68.0991 68.2249 66.4201 69.9769 65.2521C71.7289 64.0355 74.1622 63.4271 77.2769 63.4271C81.5109 63.4271 84.6256 64.6195 86.6209 67.0041C88.6649 69.3888 89.6869 73.5255 89.6869 79.4141V99.3431H78.0069L77.9339 81.6771C77.9339 78.9518 77.5202 77.0051 76.6929 75.8371C75.8656 74.6691 74.3082 74.0851 72.0209 74.0851C69.8796 74.0851 68.3709 74.6205 67.4949 75.6911C66.6189 76.7131 66.1566 78.4895 66.1079 81.0201V99.3431Z" fill="white"/>
<path d="M112.446 99.3431H100.766V63.7921H111.862L112.446 70.2891H112.665C113.347 68.0991 114.563 66.4201 116.315 65.2521C118.067 64.0355 120.501 63.4271 123.615 63.4271C127.849 63.4271 130.964 64.6195 132.959 67.0041C135.003 69.3888 136.025 73.5255 136.025 79.4141V99.3431H124.345L124.272 81.6771C124.272 78.9518 123.859 77.0051 123.031 75.8371C122.204 74.6691 120.647 74.0851 118.359 74.0851C116.218 74.0851 114.709 74.6205 113.833 75.6911C112.957 76.7131 112.495 78.4895 112.446 81.0201V99.3431Z" fill="white"/>
<path d="M158.785 100C154.308 100 151.12 98.8078 149.222 96.4231C147.324 94.0385 146.375 90.6318 146.375 86.2031V63.7921H158.055L158.128 83.3561C158.128 85.5461 158.517 87.1035 159.296 88.0281C160.075 88.9041 161.656 89.3421 164.041 89.3421C166.328 89.3421 167.861 88.9528 168.64 88.1741C169.467 87.3468 169.905 85.9598 169.954 84.0131V63.7921H181.634V99.3431H170.538L169.954 95.3281H169.735C169.102 96.7395 167.812 97.8831 165.866 98.7591C163.919 99.5865 161.559 100 158.785 100Z" fill="white"/>
<path d="M206.948 63.4271C211.62 63.4271 215.392 63.9138 218.263 64.8871C221.135 65.8605 223.227 67.6611 224.541 70.2891C225.904 72.8685 226.585 76.6158 226.585 81.5311V99.3431H216L215.635 95.9851H215.416C214.492 97.2018 213.056 98.1751 211.109 98.9051C209.163 99.6351 206.632 100 203.517 100C195.098 100 190.888 96.0581 190.888 88.1741C190.888 84.8161 191.983 82.1881 194.173 80.2901C196.412 78.3435 199.916 77.3701 204.685 77.3701H215.489C215.149 75.3261 214.273 73.9635 212.861 73.2821C211.45 72.5521 209.041 72.1871 205.634 72.1871C203.493 72.1871 201.376 72.3575 199.283 72.6981C197.239 72.9901 195.439 73.3308 193.881 73.7201L193.662 73.5741L193.735 65.1061C194.709 64.8141 195.95 64.5465 197.458 64.3031C198.967 64.0111 200.549 63.7921 202.203 63.6461C203.907 63.5001 205.488 63.4271 206.948 63.4271ZM206.51 91.3861C209.528 91.3861 211.791 91.0211 213.299 90.2911C214.808 89.5125 215.587 88.2958 215.635 86.6411V84.8161H207.386C205.245 84.8161 203.736 85.1325 202.86 85.7651C202.033 86.3491 201.619 87.1521 201.619 88.1741C201.619 89.3908 202.057 90.2425 202.933 90.7291C203.809 91.1671 205.002 91.3861 206.51 91.3861Z" fill="white"/>
<path d="M248.967 99.3431H237.287V50.2141H248.967V99.3431Z" fill="white"/>
<path d="M324.892 87.5171C324.892 91.4105 323.676 94.3548 321.242 96.3501C318.858 98.3455 314.624 99.3431 308.54 99.3431H285.764V53.1341H307.81C311.85 53.1341 314.989 53.5721 317.227 54.4481C319.515 55.2755 321.121 56.5165 322.045 58.1711C322.97 59.8258 323.432 61.8941 323.432 64.3761C323.432 67.7828 322.605 70.4351 320.95 72.3331C319.344 74.1825 316.303 75.3018 311.825 75.6911V75.9101C315.135 76.1535 317.738 76.7131 319.636 77.5891C321.534 78.4165 322.873 79.6331 323.651 81.2391C324.479 82.8451 324.892 84.9378 324.892 87.5171ZM304.598 62.3321H297.444V71.3841H304.598C306.983 71.3841 308.711 71.0921 309.781 70.5081C310.852 69.8755 311.387 68.6588 311.387 66.8581C311.387 65.1061 310.852 63.9138 309.781 63.2811C308.711 62.6485 306.983 62.3321 304.598 62.3321ZM306.058 80.9471H297.444V90.2181H306.058C308.443 90.2181 310.171 89.9018 311.241 89.2691C312.312 88.5878 312.847 87.3468 312.847 85.5461C312.847 83.6968 312.312 82.4801 311.241 81.8961C310.171 81.2635 308.443 80.9471 306.058 80.9471Z" fill="white"/>
<path d="M346.207 100C341.729 100 338.542 98.8078 336.644 96.4231C334.746 94.0385 333.797 90.6318 333.797 86.2031V63.7921H345.477L345.55 83.3561C345.55 85.5461 345.939 87.1035 346.718 88.0281C347.496 88.9041 349.078 89.3421 351.463 89.3421C353.75 89.3421 355.283 88.9528 356.062 88.1741C356.889 87.3468 357.327 85.9598 357.376 84.0131V63.7921H369.056V99.3431H357.96L357.376 95.3281H357.157C356.524 96.7395 355.234 97.8831 353.288 98.7591C351.341 99.5865 348.981 100 346.207 100Z" fill="white"/>
<path d="M379.259 89.2691C383.055 90.3398 387.265 90.8751 391.888 90.8751C394.127 90.8751 395.806 90.8021 396.925 90.6561C398.044 90.5101 398.799 90.2668 399.188 89.9261C399.577 89.5855 399.772 89.1231 399.772 88.5391C399.772 87.7118 399.456 87.2008 398.823 87.0061C398.239 86.8115 397.047 86.5438 395.246 86.2031L389.479 85.1081C385.78 84.3781 383.104 83.2345 381.449 81.6771C379.843 80.0711 379.04 77.6865 379.04 74.5231C379.04 70.2405 380.305 67.3205 382.836 65.7631C385.415 64.2058 389.503 63.4271 395.1 63.4271C398.458 63.4271 401.402 63.6218 403.933 64.0111C406.512 64.3518 408.654 64.7898 410.357 65.3251L410.211 74.1581L409.992 74.3771C406.05 73.1118 401.743 72.4791 397.071 72.4791C394.784 72.4791 393.178 72.6495 392.253 72.9901C391.377 73.2821 390.939 73.8905 390.939 74.8151C390.939 75.3018 391.061 75.6911 391.304 75.9831C391.596 76.2751 392.229 76.5671 393.202 76.8591C394.175 77.1025 395.708 77.4188 397.801 77.8081L403.13 78.8301C406.099 79.4628 408.289 80.5091 409.7 81.9691C411.111 83.4291 411.817 85.7408 411.817 88.9041C411.817 91.6781 411.306 93.8925 410.284 95.5471C409.262 97.1531 407.534 98.2968 405.101 98.9781C402.716 99.6595 399.407 100 395.173 100C391.961 100 388.992 99.8541 386.267 99.5621C383.59 99.2215 381.181 98.8321 379.04 98.3941V89.4151L379.259 89.2691Z" fill="white"/>
<path d="M432.096 50.5791C432.242 52.3311 432.315 53.7911 432.315 54.9591C432.315 55.6405 432.29 56.3461 432.242 57.0761C432.242 57.7575 432.193 58.5361 432.096 59.4121C431.074 59.6068 430.076 59.7528 429.103 59.8501C428.129 59.9475 427.156 59.9961 426.183 59.9961C425.258 59.9961 424.309 59.9475 423.336 59.8501C422.411 59.7528 421.462 59.6068 420.489 59.4121C420.391 58.5848 420.318 57.8305 420.27 57.1491C420.221 56.4191 420.197 55.7135 420.197 55.0321C420.197 54.3995 420.221 53.7181 420.27 52.9881C420.318 52.2581 420.391 51.4551 420.489 50.5791C421.462 50.3358 422.435 50.1898 423.409 50.1411C424.431 50.0438 425.428 49.9951 426.402 49.9951C427.326 49.9951 428.251 50.0438 429.176 50.1411C430.149 50.1898 431.122 50.3358 432.096 50.5791ZM432.096 99.3431H420.416V63.7921H432.096V99.3431Z" fill="white"/>
<path d="M454.924 99.3431H443.244V63.7921H454.34L454.924 70.2891H455.143C455.824 68.0991 457.041 66.4201 458.793 65.2521C460.545 64.0355 462.978 63.4271 466.093 63.4271C470.327 63.4271 473.442 64.6195 475.437 67.0041C477.481 69.3888 478.503 73.5255 478.503 79.4141V99.3431H466.823L466.75 81.6771C466.75 78.9518 466.336 77.0051 465.509 75.8371C464.682 74.6691 463.124 74.0851 460.837 74.0851C458.696 74.0851 457.187 74.6205 456.311 75.6911C455.435 76.7131 454.973 78.4895 454.924 81.0201V99.3431Z" fill="white"/>
<path d="M520.9 98.1751C519.537 98.6618 517.639 99.0998 515.206 99.4891C512.821 99.8298 509.974 100 506.665 100C502.479 100 498.902 99.4648 495.934 98.3941C493.014 97.2748 490.799 95.4011 489.291 92.7731C487.782 90.0965 487.028 86.3978 487.028 81.6771C487.028 75.2531 488.488 70.6055 491.408 67.7341C494.376 64.8628 498.951 63.4271 505.132 63.4271C509.56 63.4271 513.04 64.0598 515.571 65.3251C518.15 66.5905 519.975 68.3911 521.046 70.7271C522.165 73.0145 522.725 75.7398 522.725 78.9031C522.725 79.8278 522.676 80.8255 522.579 81.8961C522.53 82.9668 522.408 84.0131 522.214 85.0351L521.922 85.3271H497.905C498.245 87.4685 499.243 88.8798 500.898 89.5611C502.601 90.2425 505.351 90.5831 509.147 90.5831C511.677 90.5831 513.77 90.5345 515.425 90.4371C517.128 90.2911 518.856 90.0965 520.608 89.8531L520.9 90.0721V98.1751ZM512.578 77.6621C512.578 76.4941 512.383 75.4965 511.994 74.6691C511.653 73.7931 510.947 73.1361 509.877 72.6981C508.806 72.2115 507.224 71.9681 505.132 71.9681C502.066 71.9681 500.046 72.5035 499.073 73.5741C498.148 74.5961 497.686 75.9588 497.686 77.6621H512.578Z" fill="white"/>
<path d="M530.394 89.2691C534.19 90.3398 538.4 90.8751 543.023 90.8751C545.262 90.8751 546.941 90.8021 548.06 90.6561C549.18 90.5101 549.934 90.2668 550.323 89.9261C550.713 89.5855 550.907 89.1231 550.907 88.5391C550.907 87.7118 550.591 87.2008 549.958 87.0061C549.374 86.8115 548.182 86.5438 546.381 86.2031L540.614 85.1081C536.915 84.3781 534.239 83.2345 532.584 81.6771C530.978 80.0711 530.175 77.6865 530.175 74.5231C530.175 70.2405 531.44 67.3205 533.971 65.7631C536.55 64.2058 540.639 63.4271 546.235 63.4271C549.593 63.4271 552.538 63.6218 555.068 64.0111C557.648 64.3518 559.789 64.7898 561.492 65.3251L561.346 74.1581L561.127 74.3771C557.185 73.1118 552.878 72.4791 548.206 72.4791C545.919 72.4791 544.313 72.6495 543.388 72.9901C542.512 73.2821 542.074 73.8905 542.074 74.8151C542.074 75.3018 542.196 75.6911 542.439 75.9831C542.731 76.2751 543.364 76.5671 544.337 76.8591C545.31 77.1025 546.843 77.4188 548.936 77.8081L554.265 78.8301C557.234 79.4628 559.424 80.5091 560.835 81.9691C562.246 83.4291 562.952 85.7408 562.952 88.9041C562.952 91.6781 562.441 93.8925 561.419 95.5471C560.397 97.1531 558.669 98.2968 556.236 98.9781C553.851 99.6595 550.542 100 546.308 100C543.096 100 540.127 99.8541 537.402 99.5621C534.725 99.2215 532.317 98.8321 530.175 98.3941V89.4151L530.394 89.2691Z" fill="white"/>
<path d="M570.602 89.2691C574.398 90.3398 578.607 90.8751 583.231 90.8751C585.469 90.8751 587.148 90.8021 588.268 90.6561C589.387 90.5101 590.141 90.2668 590.531 89.9261C590.92 89.5855 591.115 89.1231 591.115 88.5391C591.115 87.7118 590.798 87.2008 590.166 87.0061C589.582 86.8115 588.389 86.5438 586.589 86.2031L580.822 85.1081C577.123 84.3781 574.446 83.2345 572.792 81.6771C571.186 80.0711 570.383 77.6865 570.383 74.5231C570.383 70.2405 571.648 67.3205 574.179 65.7631C576.758 64.2058 580.846 63.4271 586.443 63.4271C589.801 63.4271 592.745 63.6218 595.276 64.0111C597.855 64.3518 599.996 64.7898 601.7 65.3251L601.554 74.1581L601.335 74.3771C597.393 73.1118 593.086 72.4791 588.414 72.4791C586.126 72.4791 584.52 72.6495 583.596 72.9901C582.72 73.2821 582.282 73.8905 582.282 74.8151C582.282 75.3018 582.403 75.6911 582.647 75.9831C582.939 76.2751 583.571 76.5671 584.545 76.8591C585.518 77.1025 587.051 77.4188 589.144 77.8081L594.473 78.8301C597.441 79.4628 599.631 80.5091 601.043 81.9691C602.454 83.4291 603.16 85.7408 603.16 88.9041C603.16 91.6781 602.649 93.8925 601.627 95.5471C600.605 97.1531 598.877 98.2968 596.444 98.9781C594.059 99.6595 590.75 100 586.516 100C583.304 100 580.335 99.8541 577.61 99.5621C574.933 99.2215 572.524 98.8321 570.383 98.3941V89.4151L570.602 89.2691Z" fill="white"/>
<path d="M665.545 80.9471V74.8881H675.327V83.9401C675.327 85.8868 675.108 87.6388 674.67 89.1961L679.123 93.0651L673.648 99.6351L669.998 96.4231C666.737 98.8078 661.968 100 655.69 100C650.872 100 647.003 99.5378 644.083 98.6131C641.212 97.6885 639.119 96.1555 637.805 94.0141C636.54 91.8728 635.907 88.9771 635.907 85.3271C635.907 81.1418 636.661 78.1488 638.17 76.3481C639.679 74.4988 641.431 73.5011 643.426 73.3551L643.572 73.0631C642.355 71.8465 641.528 70.5811 641.09 69.2671C640.652 67.9045 640.433 66.2255 640.433 64.2301C640.433 60.1908 641.528 57.2221 643.718 55.3241C645.957 53.3775 649.947 52.4041 655.69 52.4041C660.07 52.4041 663.404 52.7935 665.691 53.5721C668.027 54.3508 669.609 55.6648 670.436 57.5141C671.312 59.3148 671.75 61.8211 671.75 65.0331V67.3691H661.092C661.189 65.0331 660.897 63.5001 660.216 62.7701C659.535 61.9915 658.075 61.6021 655.836 61.6021C653.889 61.6021 652.6 61.8941 651.967 62.4781C651.334 63.0621 651.018 64.0598 651.018 65.4711C651.018 66.5418 651.261 67.4908 651.748 68.3181C652.235 69.1455 653.208 70.1918 654.668 71.4571L665.399 80.9471H665.545ZM661.822 89.2691L649.777 78.6841C648.998 78.7815 648.317 79.2925 647.733 80.2171C647.198 81.1418 646.93 82.4558 646.93 84.1591C646.93 85.8138 647.173 87.0791 647.66 87.9551C648.147 88.8311 649.023 89.4395 650.288 89.7801C651.553 90.0721 653.354 90.2181 655.69 90.2181C658.172 90.2181 660.216 89.9505 661.822 89.4151V89.2691Z" fill="white"/>
<path d="M3.8834 165.343V119.134H38.1934V128.624H15.5634V137.384H35.2004V146.874H15.5634V155.853H38.1934V165.343H3.8834Z" fill="white"/>
<path d="M58.7651 165.343H47.0851V129.792H58.1811L58.7651 136.289H58.9841C59.6655 134.099 60.8821 132.42 62.6341 131.252C64.3861 130.035 66.8195 129.427 69.9341 129.427C74.1681 129.427 77.2828 130.619 79.2781 133.004C81.3221 135.389 82.3441 139.525 82.3441 145.414V165.343H70.6641L70.5911 147.677C70.5911 144.952 70.1775 143.005 69.3501 141.837C68.5228 140.669 66.9655 140.085 64.6781 140.085C62.5368 140.085 61.0281 140.62 60.1521 141.691C59.2761 142.713 58.8138 144.489 58.7651 147.02V165.343Z" fill="white"/>
<path d="M94.1536 154.685V139.355H89.7736V129.865H95.2486L97.4386 121.178H105.834V129.865H113.791V139.355H105.834V152.13C105.834 153.493 106.004 154.442 106.345 154.977C106.685 155.464 107.464 155.707 108.681 155.707C109.459 155.707 110.287 155.683 111.163 155.634C112.039 155.537 112.915 155.439 113.791 155.342L114.01 155.488V164.978C111.674 165.659 108.583 166 104.739 166C100.894 166 98.1686 165.124 96.5626 163.372C94.9566 161.62 94.1536 158.724 94.1536 154.685Z" fill="white"/>
<path d="M135.331 165.343H123.651V129.792H133.141L134.09 137.092H134.309C134.747 134.367 135.793 132.42 137.448 131.252C139.102 130.035 141.56 129.427 144.821 129.427C146.135 129.427 147.327 129.5 148.398 129.646C149.468 129.743 150.369 129.841 151.099 129.938V141.326L150.953 141.472C150.174 141.277 149.274 141.107 148.252 140.961C147.278 140.815 146.159 140.742 144.894 140.742C143.093 140.742 141.463 141.034 140.003 141.618C138.591 142.202 137.472 143.346 136.645 145.049C135.866 146.704 135.477 149.186 135.477 152.495L135.331 165.343Z" fill="white"/>
<path d="M190.613 164.175C189.25 164.662 187.352 165.1 184.919 165.489C182.534 165.83 179.687 166 176.378 166C172.192 166 168.616 165.465 165.647 164.394C162.727 163.275 160.512 161.401 159.004 158.773C157.495 156.096 156.741 152.398 156.741 147.677C156.741 141.253 158.201 136.605 161.121 133.734C164.09 130.863 168.664 129.427 174.845 129.427C179.274 129.427 182.753 130.06 185.284 131.325C187.863 132.59 189.688 134.391 190.759 136.727C191.878 139.014 192.438 141.74 192.438 144.903C192.438 145.828 192.389 146.825 192.292 147.896C192.243 148.967 192.122 150.013 191.927 151.035L191.635 151.327H167.618C167.958 153.468 168.956 154.88 170.611 155.561C172.314 156.242 175.064 156.583 178.86 156.583C181.391 156.583 183.483 156.534 185.138 156.437C186.841 156.291 188.569 156.096 190.321 155.853L190.613 156.072V164.175ZM182.291 143.662C182.291 142.494 182.096 141.496 181.707 140.669C181.366 139.793 180.66 139.136 179.59 138.698C178.519 138.211 176.938 137.968 174.845 137.968C171.779 137.968 169.759 138.503 168.786 139.574C167.861 140.596 167.399 141.959 167.399 143.662H182.291Z" fill="white"/>
<path d="M213.393 178.921H201.713V129.792H212.809L213.393 134.829V135.267H213.539C214.367 133.272 215.535 131.812 217.043 130.887C218.601 129.914 220.839 129.427 223.759 129.427C228.48 129.427 231.935 130.814 234.125 133.588C236.364 136.313 237.508 140.45 237.556 145.998C237.654 150.913 237.143 154.855 236.023 157.824C234.953 160.744 233.274 162.837 230.986 164.102C228.699 165.367 225.779 166 222.226 166C220.377 166 218.698 165.83 217.189 165.489C215.729 165.148 214.513 164.735 213.539 164.248L213.393 164.321V178.921ZM219.963 139.355C218.017 139.355 216.435 139.963 215.218 141.18C214.002 142.348 213.393 144.368 213.393 147.239V154.904C215.194 155.634 217.311 155.999 219.744 155.999C222.032 155.999 223.662 155.464 224.635 154.393C225.657 153.274 226.168 151.059 226.168 147.75C226.168 144.879 225.779 142.762 225 141.399C224.222 140.036 222.543 139.355 219.963 139.355Z" fill="white"/>
<path d="M258.52 165.343H246.84V129.792H256.33L257.279 137.092H257.498C257.936 134.367 258.982 132.42 260.637 131.252C262.292 130.035 264.749 129.427 268.01 129.427C269.324 129.427 270.516 129.5 271.587 129.646C272.658 129.743 273.558 129.841 274.288 129.938V141.326L274.142 141.472C273.363 141.277 272.463 141.107 271.441 140.961C270.468 140.815 269.348 140.742 268.083 140.742C266.282 140.742 264.652 141.034 263.192 141.618C261.781 142.202 260.661 143.346 259.834 145.049C259.055 146.704 258.666 149.186 258.666 152.495L258.52 165.343Z" fill="white"/>
<path d="M313.802 164.175C312.439 164.662 310.541 165.1 308.108 165.489C305.723 165.83 302.876 166 299.567 166C295.382 166 291.805 165.465 288.836 164.394C285.916 163.275 283.702 161.401 282.193 158.773C280.684 156.096 279.93 152.398 279.93 147.677C279.93 141.253 281.39 136.605 284.31 133.734C287.279 130.863 291.853 129.427 298.034 129.427C302.463 129.427 305.942 130.06 308.473 131.325C311.052 132.59 312.877 134.391 313.948 136.727C315.067 139.014 315.627 141.74 315.627 144.903C315.627 145.828 315.578 146.825 315.481 147.896C315.432 148.967 315.311 150.013 315.116 151.035L314.824 151.327H290.807C291.148 153.468 292.145 154.88 293.8 155.561C295.503 156.242 298.253 156.583 302.049 156.583C304.58 156.583 306.672 156.534 308.327 156.437C310.03 156.291 311.758 156.096 313.51 155.853L313.802 156.072V164.175ZM305.48 143.662C305.48 142.494 305.285 141.496 304.896 140.669C304.555 139.793 303.85 139.136 302.779 138.698C301.708 138.211 300.127 137.968 298.034 137.968C294.968 137.968 292.948 138.503 291.975 139.574C291.05 140.596 290.588 141.959 290.588 143.662H305.48Z" fill="white"/>
<path d="M336.583 165.343H324.903V129.792H335.999L336.583 136.289H336.802C337.483 134.099 338.7 132.42 340.452 131.252C342.204 130.035 344.637 129.427 347.752 129.427C351.986 129.427 355.1 130.619 357.096 133.004C359.14 135.389 360.162 139.525 360.162 145.414V165.343H348.482L348.409 147.677C348.409 144.952 347.995 143.005 347.168 141.837C346.34 140.669 344.783 140.085 342.496 140.085C340.354 140.085 338.846 140.62 337.97 141.691C337.094 142.713 336.631 144.489 336.583 147.02V165.343Z" fill="white"/>
<path d="M402.558 164.175C401.195 164.662 399.297 165.1 396.864 165.489C394.479 165.83 391.632 166 388.323 166C384.138 166 380.561 165.465 377.592 164.394C374.672 163.275 372.458 161.401 370.949 158.773C369.44 156.096 368.686 152.398 368.686 147.677C368.686 141.253 370.146 136.605 373.066 133.734C376.035 130.863 380.609 129.427 386.79 129.427C391.219 129.427 394.698 130.06 397.229 131.325C399.808 132.59 401.633 134.391 402.704 136.727C403.823 139.014 404.383 141.74 404.383 144.903C404.383 145.828 404.334 146.825 404.237 147.896C404.188 148.967 404.067 150.013 403.872 151.035L403.58 151.327H379.563C379.904 153.468 380.901 154.88 382.556 155.561C384.259 156.242 387.009 156.583 390.805 156.583C393.336 156.583 395.428 156.534 397.083 156.437C398.786 156.291 400.514 156.096 402.266 155.853L402.558 156.072V164.175ZM394.236 143.662C394.236 142.494 394.041 141.496 393.652 140.669C393.311 139.793 392.606 139.136 391.535 138.698C390.464 138.211 388.883 137.968 386.79 137.968C383.724 137.968 381.704 138.503 380.731 139.574C379.806 140.596 379.344 141.959 379.344 143.662H394.236Z" fill="white"/>
<path d="M425.339 166C420.861 166 417.674 164.808 415.776 162.423C413.878 160.038 412.929 156.632 412.929 152.203V129.792H424.609L424.682 149.356C424.682 151.546 425.071 153.103 425.85 154.028C426.628 154.904 428.21 155.342 430.595 155.342C432.882 155.342 434.415 154.953 435.194 154.174C436.021 153.347 436.459 151.96 436.508 150.013V129.792H448.188V165.343H437.092L436.508 161.328H436.289C435.656 162.739 434.366 163.883 432.42 164.759C430.473 165.586 428.113 166 425.339 166Z" fill="white"/>
<path d="M471.677 165.343H459.997V129.792H469.487L470.436 137.092H470.655C471.093 134.367 472.139 132.42 473.794 131.252C475.449 130.035 477.906 129.427 481.167 129.427C482.481 129.427 483.673 129.5 484.744 129.646C485.815 129.743 486.715 129.841 487.445 129.938V141.326L487.299 141.472C486.52 141.277 485.62 141.107 484.598 140.961C483.625 140.815 482.505 140.742 481.24 140.742C479.439 140.742 477.809 141.034 476.349 141.618C474.938 142.202 473.818 143.346 472.991 145.049C472.212 146.704 471.823 149.186 471.823 152.495L471.677 165.343Z" fill="white"/>
<path d="M494.036 155.269C497.832 156.34 502.042 156.875 506.665 156.875C508.904 156.875 510.583 156.802 511.702 156.656C512.822 156.51 513.576 156.267 513.965 155.926C514.355 155.585 514.549 155.123 514.549 154.539C514.549 153.712 514.233 153.201 513.6 153.006C513.016 152.811 511.824 152.544 510.023 152.203L504.256 151.108C500.558 150.378 497.881 149.234 496.226 147.677C494.62 146.071 493.817 143.686 493.817 140.523C493.817 136.24 495.083 133.32 497.613 131.763C500.193 130.206 504.281 129.427 509.877 129.427C513.235 129.427 516.18 129.622 518.71 130.011C521.29 130.352 523.431 130.79 525.134 131.325L524.988 140.158L524.769 140.377C520.827 139.112 516.52 138.479 511.848 138.479C509.561 138.479 507.955 138.649 507.03 138.99C506.154 139.282 505.716 139.89 505.716 140.815C505.716 141.302 505.838 141.691 506.081 141.983C506.373 142.275 507.006 142.567 507.979 142.859C508.953 143.102 510.486 143.419 512.578 143.808L517.907 144.83C520.876 145.463 523.066 146.509 524.477 147.969C525.889 149.429 526.594 151.741 526.594 154.904C526.594 157.678 526.083 159.892 525.061 161.547C524.039 163.153 522.312 164.297 519.878 164.978C517.494 165.659 514.184 166 509.95 166C506.738 166 503.77 165.854 501.044 165.562C498.368 165.221 495.959 164.832 493.817 164.394V155.415L494.036 155.269Z" fill="white"/>
<path d="M547.53 165.343H535.85V116.287H547.53V136.289H547.749C548.43 134.099 549.671 132.42 551.472 131.252C553.321 130.035 555.73 129.427 558.699 129.427C561.521 129.427 563.833 129.889 565.634 130.814C567.483 131.739 568.846 133.369 569.722 135.705C570.646 137.992 571.109 141.229 571.109 145.414V165.343H559.429L559.356 147.677C559.356 144.952 558.942 143.005 558.115 141.837C557.287 140.669 555.73 140.085 553.443 140.085C551.399 140.085 549.914 140.62 548.99 141.691C548.065 142.762 547.578 144.562 547.53 147.093V165.343Z" fill="white"/>
<path d="M593.14 116.579C593.286 118.331 593.359 119.791 593.359 120.959C593.359 121.64 593.335 122.346 593.286 123.076C593.286 123.757 593.237 124.536 593.14 125.412C592.118 125.607 591.12 125.753 590.147 125.85C589.174 125.947 588.2 125.996 587.227 125.996C586.302 125.996 585.353 125.947 584.38 125.85C583.455 125.753 582.506 125.607 581.533 125.412C581.436 124.585 581.363 123.83 581.314 123.149C581.265 122.419 581.241 121.713 581.241 121.032C581.241 120.399 581.265 119.718 581.314 118.988C581.363 118.258 581.436 117.455 581.533 116.579C582.506 116.336 583.48 116.19 584.453 116.141C585.475 116.044 586.473 115.995 587.446 115.995C588.371 115.995 589.295 116.044 590.22 116.141C591.193 116.19 592.167 116.336 593.14 116.579ZM593.14 165.343H581.46V129.792H593.14V165.343Z" fill="white"/>
<path d="M615.968 178.921H604.288V129.792H615.384L615.968 134.829V135.267H616.114C616.942 133.272 618.11 131.812 619.618 130.887C621.176 129.914 623.414 129.427 626.334 129.427C631.055 129.427 634.51 130.814 636.7 133.588C638.939 136.313 640.083 140.45 640.131 145.998C640.229 150.913 639.718 154.855 638.598 157.824C637.528 160.744 635.849 162.837 633.561 164.102C631.274 165.367 628.354 166 624.801 166C622.952 166 621.273 165.83 619.764 165.489C618.304 165.148 617.088 164.735 616.114 164.248L615.968 164.321V178.921ZM622.538 139.355C620.592 139.355 619.01 139.963 617.793 141.18C616.577 142.348 615.968 144.368 615.968 147.239V154.904C617.769 155.634 619.886 155.999 622.319 155.999C624.607 155.999 626.237 155.464 627.21 154.393C628.232 153.274 628.743 151.059 628.743 147.75C628.743 144.879 628.354 142.762 627.575 141.399C626.797 140.036 625.118 139.355 622.538 139.355Z" fill="white"/>
<path d="M38.3394 221.342V230.54C36.0034 231.027 33.7161 231.392 31.4774 231.635C29.2387 231.878 26.5864 232 23.5204 232C19.5784 232 16.2447 231.659 13.5194 230.978C10.8427 230.297 8.67707 229.104 7.0224 227.401C5.4164 225.649 4.2484 223.191 3.5184 220.028C2.7884 216.865 2.4234 212.801 2.4234 207.837C2.4234 203.068 2.7884 199.15 3.5184 196.084C4.2484 193.018 5.4164 190.658 7.0224 189.003C8.67707 187.3 10.8427 186.132 13.5194 185.499C16.2447 184.818 19.5784 184.477 23.5204 184.477C26.5864 184.477 29.2387 184.599 31.4774 184.842C33.7161 185.037 36.0034 185.402 38.3394 185.937V195.427L38.1204 195.573C36.0764 195.086 34.1054 194.746 32.2074 194.551C30.3094 194.308 27.9734 194.186 25.1994 194.186C22.9607 194.186 21.1114 194.356 19.6514 194.697C18.2401 194.989 17.1207 195.597 16.2934 196.522C15.4661 197.447 14.8821 198.809 14.5414 200.61C14.2494 202.411 14.1034 204.82 14.1034 207.837C14.1034 211 14.2494 213.555 14.5414 215.502C14.8821 217.4 15.4661 218.836 16.2934 219.809C17.1207 220.782 18.2401 221.439 19.6514 221.78C21.1114 222.121 22.9607 222.291 25.1994 222.291C27.9247 222.291 30.2364 222.218 32.1344 222.072C34.0811 221.877 36.0277 221.537 37.9744 221.05L38.3394 221.342Z" fill="white"/>
<path d="M45.0292 213.823C45.0292 207.302 46.4162 202.605 49.1902 199.734C51.9642 196.863 56.6605 195.427 63.2792 195.427C67.7078 195.427 71.2605 196.06 73.9372 197.325C76.6138 198.59 78.5362 200.586 79.7042 203.311C80.9208 205.988 81.5292 209.492 81.5292 213.823C81.5292 218.106 80.9208 221.585 79.7042 224.262C78.5362 226.939 76.6138 228.91 73.9372 230.175C71.2605 231.392 67.7078 232 63.2792 232C56.6605 232 51.9642 230.589 49.1902 227.766C46.4162 224.895 45.0292 220.247 45.0292 213.823ZM63.2792 221.999C66.1018 221.999 67.9998 221.391 68.9732 220.174C69.9952 218.909 70.5062 216.719 70.5062 213.604C70.5062 210.635 69.9952 208.518 68.9732 207.253C67.9998 205.939 66.1018 205.282 63.2792 205.282C60.5538 205.282 58.6558 205.939 57.5852 207.253C56.5632 208.518 56.0522 210.635 56.0522 213.604C56.0522 216.719 56.5632 218.909 57.5852 220.174C58.6558 221.391 60.5538 221.999 63.2792 221.999Z" fill="white"/>
<path d="M102.466 231.343H90.7859V195.792H101.882L102.466 202.289H102.685C103.366 200.099 104.583 198.42 106.335 197.252C108.087 196.035 110.52 195.427 113.635 195.427C117.869 195.427 120.984 196.619 122.979 199.004C125.023 201.389 126.045 205.525 126.045 211.414V231.343H114.365L114.292 213.677C114.292 210.952 113.878 209.005 113.051 207.837C112.224 206.669 110.666 206.085 108.379 206.085C106.238 206.085 104.729 206.62 103.853 207.691C102.977 208.713 102.515 210.489 102.466 213.02V231.343Z" fill="white"/>
<path d="M164.791 221.05V230.54C163.575 231.027 161.774 231.392 159.389 231.635C157.005 231.878 154.474 232 151.797 232C147.953 232 144.741 231.465 142.161 230.394C139.631 229.323 137.733 227.474 136.467 224.846C135.251 222.218 134.618 218.568 134.569 213.896C134.569 209.078 135.226 205.331 136.54 202.654C137.903 199.977 139.874 198.104 142.453 197.033C145.033 195.962 148.123 195.427 151.724 195.427C153.866 195.427 156.129 195.573 158.513 195.865C160.898 196.157 162.845 196.546 164.353 197.033L164.426 206.815L164.207 206.961C162.747 206.669 161.19 206.45 159.535 206.304C157.881 206.158 156.25 206.085 154.644 206.085C151.384 206.085 149.121 206.693 147.855 207.91C146.59 209.127 145.957 211.171 145.957 214.042C145.957 216.232 146.225 217.862 146.76 218.933C147.296 220.004 148.196 220.709 149.461 221.05C150.727 221.391 152.454 221.561 154.644 221.561C156.348 221.561 157.978 221.488 159.535 221.342C161.093 221.196 162.747 221.026 164.499 220.831L164.791 221.05Z" fill="white"/>
<path d="M186.089 231.343H174.409V182.214H186.089V231.343Z" fill="white"/>
<path d="M211.44 195.427C216.112 195.427 219.884 195.914 222.755 196.887C225.626 197.86 227.719 199.661 229.033 202.289C230.396 204.868 231.077 208.616 231.077 213.531V231.343H220.492L220.127 227.985H219.908C218.983 229.202 217.548 230.175 215.601 230.905C213.654 231.635 211.124 232 208.009 232C199.59 232 195.38 228.058 195.38 220.174C195.38 216.816 196.475 214.188 198.665 212.29C200.904 210.343 204.408 209.37 209.177 209.37H219.981C219.64 207.326 218.764 205.963 217.353 205.282C215.942 204.552 213.533 204.187 210.126 204.187C207.985 204.187 205.868 204.357 203.775 204.698C201.731 204.99 199.93 205.331 198.373 205.72L198.154 205.574L198.227 197.106C199.2 196.814 200.441 196.546 201.95 196.303C203.459 196.011 205.04 195.792 206.695 195.646C208.398 195.5 209.98 195.427 211.44 195.427ZM211.002 223.386C214.019 223.386 216.282 223.021 217.791 222.291C219.3 221.512 220.078 220.296 220.127 218.641V216.816H211.878C209.737 216.816 208.228 217.132 207.352 217.765C206.525 218.349 206.111 219.152 206.111 220.174C206.111 221.391 206.549 222.242 207.425 222.729C208.301 223.167 209.493 223.386 211.002 223.386Z" fill="white"/>
<path d="M275.285 196.011L263.678 231.343H249.078L238.128 195.938V195.792H251.268C252.29 199.588 253.239 203.7 254.115 208.129C255.04 212.558 255.867 216.816 256.597 220.904H256.889C257.619 216.816 258.422 212.558 259.298 208.129C260.223 203.7 261.196 199.588 262.218 195.792H275.285V196.011Z" fill="white"/>
<path d="M314.8 230.175C313.437 230.662 311.539 231.1 309.106 231.489C306.721 231.83 303.874 232 300.565 232C296.38 232 292.803 231.465 289.834 230.394C286.914 229.275 284.7 227.401 283.191 224.773C281.682 222.096 280.928 218.398 280.928 213.677C280.928 207.253 282.388 202.605 285.308 199.734C288.277 196.863 292.851 195.427 299.032 195.427C303.461 195.427 306.94 196.06 309.471 197.325C312.05 198.59 313.875 200.391 314.946 202.727C316.065 205.014 316.625 207.74 316.625 210.903C316.625 211.828 316.576 212.825 316.479 213.896C316.43 214.967 316.309 216.013 316.114 217.035L315.822 217.327H291.805C292.146 219.468 293.143 220.88 294.798 221.561C296.501 222.242 299.251 222.583 303.047 222.583C305.578 222.583 307.67 222.534 309.325 222.437C311.028 222.291 312.756 222.096 314.508 221.853L314.8 222.072V230.175ZM306.478 209.662C306.478 208.494 306.283 207.496 305.894 206.669C305.553 205.793 304.848 205.136 303.777 204.698C302.706 204.211 301.125 203.968 299.032 203.968C295.966 203.968 293.946 204.503 292.973 205.574C292.048 206.596 291.586 207.959 291.586 209.662H306.478Z" fill="white"/>
</mask>
<g mask="url(#mask0_1930_30)">
<rect x="-8.49707" y="50" width="687" height="182" fill="url(#paint0_linear_1930_30)"/>
</g>
</g>
<defs>
<linearGradient id="paint0_linear_1930_30" x1="185.352" y1="329.804" x2="332.087" y2="-36.5947" gradientUnits="userSpaceOnUse">
<stop stop-color="#00337C"/>
<stop offset="1" stop-color="#03C988"/>
</linearGradient>
</defs>
</svg>
