<svg width="215" height="27" viewBox="0 0 215 27" fill="none" xmlns="http://www.w3.org/2000/svg">
<mask id="mask0_1931_71" style="mask-type:alpha" maskUnits="userSpaceOnUse" x="0" y="0" width="215" height="27">
<path d="M25.6004 26.52V26.64H18.8004C18.6137 26 18.3871 25.2666 18.1204 24.44C17.8804 23.6133 17.6137 22.7333 17.3204 21.8H8.68039C8.14706 23.6666 7.65372 25.28 7.20039 26.64H0.400391V26.56L8.60039 1.31996H17.4004L25.6004 26.52ZM12.9204 5.87996C12.6537 7.23996 12.2671 8.89329 11.7604 10.84C11.2537 12.7866 10.7204 14.7733 10.1604 16.8H15.8804C15.2937 14.7733 14.7471 12.7866 14.2404 10.84C13.7337 8.89329 13.3471 7.23996 13.0804 5.87996H12.9204Z" fill="white"/>
<path d="M50.336 1.31996V16.24C50.336 18.8533 50.016 20.9466 49.376 22.52C48.7627 24.0933 47.6827 25.24 46.136 25.96C44.5894 26.6533 42.4027 27 39.576 27C36.6427 27 34.3627 26.6533 32.736 25.96C31.136 25.24 30.016 24.0933 29.376 22.52C28.736 20.9466 28.416 18.8533 28.416 16.24V1.31996H34.816V16.12C34.816 17.48 34.9493 18.5466 35.216 19.32C35.4827 20.0933 35.9627 20.64 36.656 20.96C37.3494 21.2533 38.3227 21.4 39.576 21.4C40.7493 21.4 41.6427 21.2533 42.256 20.96C42.896 20.64 43.336 20.0933 43.576 19.32C43.816 18.5466 43.936 17.48 43.936 16.12V1.31996H50.336Z" fill="white"/>
<path d="M60.3348 26.64V6.71996H53.1348V1.31996H73.9348V6.71996H66.7348V26.64H60.3348Z" fill="white"/>
<path d="M75.9363 13.96C75.9363 10.7333 76.2963 8.17329 77.0163 6.27996C77.763 4.38663 79.0297 3.02663 80.8163 2.19996C82.6297 1.37329 85.1497 0.959961 88.3763 0.959961C90.803 0.959961 92.8163 1.18663 94.4163 1.63996C96.0163 2.09329 97.283 2.82663 98.2163 3.83996C99.1497 4.85329 99.803 6.19996 100.176 7.87996C100.576 9.53329 100.776 11.56 100.776 13.96C100.776 16.3866 100.576 18.44 100.176 20.12C99.803 21.7733 99.1497 23.1066 98.2163 24.12C97.283 25.1333 96.0163 25.8666 94.4163 26.32C92.8163 26.7733 90.803 27 88.3763 27C85.9497 27 83.9363 26.7733 82.3363 26.32C80.7363 25.8666 79.4697 25.1333 78.5363 24.12C77.603 23.1066 76.9363 21.7733 76.5363 20.12C76.1363 18.44 75.9363 16.3866 75.9363 13.96ZM88.3763 21.4C90.083 21.4 91.363 21.1866 92.2163 20.76C93.0697 20.3333 93.643 19.5866 93.9363 18.52C94.2297 17.4266 94.3763 15.9066 94.3763 13.96C94.3763 12.04 94.2297 10.5466 93.9363 9.47996C93.643 8.41329 93.0697 7.66663 92.2163 7.23996C91.363 6.78663 90.083 6.55996 88.3763 6.55996C86.6963 6.55996 85.4163 6.78663 84.5363 7.23996C83.683 7.66663 83.0963 8.41329 82.7763 9.47996C82.483 10.5466 82.3363 12.04 82.3363 13.96C82.3363 15.9066 82.483 17.4266 82.7763 18.52C83.0963 19.5866 83.683 20.3333 84.5363 20.76C85.4163 21.1866 86.6963 21.4 88.3763 21.4Z" fill="white"/>
<path d="M116.775 26.64V1.31996H135.575V6.51996H123.175V11.32H133.935V16.52H123.175V21.44H135.575V26.64H116.775Z" fill="white"/>
<path d="M155.088 13.72L162.488 26.64H154.488L149.888 17.68H149.768L145.168 26.64H137.168L144.568 13.72V13.52L137.648 1.31996H145.528L149.768 10.12H149.888L154.128 1.31996H162.008L155.088 13.52V13.72Z" fill="white"/>
<path d="M172.043 26.64H165.643V1.31996H176.923C179.456 1.31996 181.483 1.62663 183.003 2.23996C184.523 2.85329 185.616 3.85329 186.283 5.23996C186.949 6.62663 187.283 8.50663 187.283 10.88C187.283 13.12 186.949 14.9466 186.283 16.36C185.616 17.7466 184.523 18.7733 183.003 19.44C181.483 20.1066 179.456 20.44 176.923 20.44H172.043V26.64ZM175.883 6.55996H172.043V15.2H175.883C177.776 15.2 179.043 14.88 179.683 14.24C180.323 13.6 180.643 12.48 180.643 10.88C180.643 9.35996 180.323 8.26663 179.683 7.59996C179.043 6.90663 177.776 6.55996 175.883 6.55996Z" fill="white"/>
<path d="M189.882 13.96C189.882 10.7333 190.242 8.17329 190.962 6.27996C191.708 4.38663 192.975 3.02663 194.762 2.19996C196.575 1.37329 199.095 0.959961 202.322 0.959961C204.748 0.959961 206.762 1.18663 208.362 1.63996C209.962 2.09329 211.228 2.82663 212.162 3.83996C213.095 4.85329 213.748 6.19996 214.122 7.87996C214.522 9.53329 214.722 11.56 214.722 13.96C214.722 16.3866 214.522 18.44 214.122 20.12C213.748 21.7733 213.095 23.1066 212.162 24.12C211.228 25.1333 209.962 25.8666 208.362 26.32C206.762 26.7733 204.748 27 202.322 27C199.895 27 197.882 26.7733 196.282 26.32C194.682 25.8666 193.415 25.1333 192.482 24.12C191.548 23.1066 190.882 21.7733 190.482 20.12C190.082 18.44 189.882 16.3866 189.882 13.96ZM202.322 21.4C204.028 21.4 205.308 21.1866 206.162 20.76C207.015 20.3333 207.588 19.5866 207.882 18.52C208.175 17.4266 208.322 15.9066 208.322 13.96C208.322 12.04 208.175 10.5466 207.882 9.47996C207.588 8.41329 207.015 7.66663 206.162 7.23996C205.308 6.78663 204.028 6.55996 202.322 6.55996C200.642 6.55996 199.362 6.78663 198.482 7.23996C197.628 7.66663 197.042 8.41329 196.722 9.47996C196.428 10.5466 196.282 12.04 196.282 13.96C196.282 15.9066 196.428 17.4266 196.722 18.52C197.042 19.5866 197.628 20.3333 198.482 20.76C199.362 21.1866 200.642 21.4 202.322 21.4Z" fill="white"/>
</mask>
<g mask="url(#mask0_1931_71)">
<rect x="-9" y="-5" width="238" height="42" fill="url(#paint0_linear_1931_71)"/>
</g>
<defs>
<linearGradient id="paint0_linear_1931_71" x1="58.1558" y1="59.5701" x2="82.591" y2="-32.0259" gradientUnits="userSpaceOnUse">
<stop stop-color="#00337C"/>
<stop offset="1" stop-color="#03C988"/>
</linearGradient>
</defs>
</svg>
