<svg width="463" height="27" viewBox="0 0 463 27" fill="none" xmlns="http://www.w3.org/2000/svg">
<mask id="mask0_1931_72" style="mask-type:alpha" maskUnits="userSpaceOnUse" x="0" y="0" width="463" height="27">
<path d="M17.5996 19.16C17.5996 18.28 17.6396 17.48 17.7196 16.76L17.6396 16.64C16.8929 16.7466 16.0796 16.8266 15.1996 16.88C14.3196 16.9066 13.5063 16.9066 12.7596 16.88V11.68L23.1996 11.64V25.24C21.9729 25.8 20.5729 26.24 18.9996 26.56C17.4529 26.8533 15.4796 27 13.0796 27C9.87961 27 7.37294 26.5733 5.55961 25.72C3.74628 24.84 2.46628 23.44 1.71961 21.52C0.972943 19.5733 0.599609 16.9866 0.599609 13.76C0.599609 11.1466 0.892943 8.99996 1.47961 7.31996C2.09294 5.63996 2.97294 4.34663 4.11961 3.43996C5.29294 2.50663 6.71961 1.86663 8.39961 1.51996C10.0796 1.14663 11.9996 0.959961 14.1596 0.959961C15.4396 0.959961 16.7196 1.01329 17.9996 1.11996C19.3063 1.22663 20.5996 1.42663 21.8796 1.71996V6.99996L21.7596 7.07996C20.6396 6.81329 19.5196 6.62663 18.3996 6.51996C17.3063 6.41329 16.1996 6.35996 15.0796 6.35996C13.4529 6.35996 12.0263 6.53329 10.7996 6.87996C9.59961 7.19996 8.66628 7.87996 7.99961 8.91996C7.33294 9.95996 6.99961 11.5733 6.99961 13.76C6.99961 15.92 7.17294 17.5733 7.51961 18.72C7.89294 19.84 8.57294 20.6133 9.55961 21.04C10.5729 21.44 12.0129 21.64 13.8796 21.64C14.1196 21.64 14.4929 21.64 14.9996 21.64C15.5063 21.6133 16.0129 21.5866 16.5196 21.56C17.0263 21.5333 17.3863 21.4933 17.5996 21.44V19.16Z" fill="white"/>
<path d="M46.0105 21.2V26.64H27.6105V1.31996H34.0105V21.2H46.0105Z" fill="white"/>
<path d="M55.2215 26.64H48.8215V1.31996H55.2215V26.64Z" fill="white"/>
<path d="M71.5924 25.36C71.1391 23.92 70.6724 22.3866 70.1924 20.76C69.7391 19.1333 69.2858 17.52 68.8324 15.92C68.3791 14.32 67.9658 12.8266 67.5924 11.44C67.2191 10.0533 66.8991 8.85329 66.6324 7.83996C66.3658 6.82663 66.1791 6.10663 66.0724 5.67996L65.9124 5.71996C65.9924 6.19996 66.0591 6.83996 66.1124 7.63996C66.1658 8.41329 66.2058 9.23996 66.2324 10.12C66.2591 10.9733 66.2724 11.76 66.2724 12.48V26.64H60.1524V1.31996H70.8724C71.2458 2.73329 71.6324 4.22663 72.0324 5.79996C72.4591 7.34663 72.8724 8.89329 73.2724 10.44C73.6991 11.96 74.0724 13.4133 74.3924 14.8C74.7124 16.16 74.9391 17.3466 75.0724 18.36H75.1524C75.2858 17.3466 75.4991 16.16 75.7924 14.8C76.1124 13.44 76.4724 11.9866 76.8724 10.44C77.2724 8.89329 77.6858 7.34663 78.1124 5.79996C78.5391 4.22663 78.9258 2.73329 79.2724 1.31996H89.8324V26.64H83.7924V12.48C83.7924 11.76 83.8058 10.9733 83.8324 10.12C83.8591 9.23996 83.8991 8.41329 83.9524 7.63996C84.0324 6.83996 84.0991 6.19996 84.1524 5.71996L83.9924 5.67996C83.8858 6.10663 83.6991 6.82663 83.4324 7.83996C83.1658 8.85329 82.8324 10.0666 82.4324 11.48C82.0591 12.8666 81.6458 14.36 81.1924 15.96C80.7391 17.56 80.2724 19.1733 79.7924 20.8C79.3391 22.4 78.8991 23.92 78.4724 25.36H71.5924Z" fill="white"/>
<path d="M101.159 26.64H94.759V1.31996H106.039C108.572 1.31996 110.599 1.62663 112.119 2.23996C113.639 2.85329 114.732 3.85329 115.399 5.23996C116.066 6.62663 116.399 8.50663 116.399 10.88C116.399 13.12 116.066 14.9466 115.399 16.36C114.732 17.7466 113.639 18.7733 112.119 19.44C110.599 20.1066 108.572 20.44 106.039 20.44H101.159V26.64ZM104.999 6.55996H101.159V15.2H104.999C106.892 15.2 108.159 14.88 108.799 14.24C109.439 13.6 109.759 12.48 109.759 10.88C109.759 9.35996 109.439 8.26663 108.799 7.59996C108.159 6.90663 106.892 6.55996 104.999 6.55996Z" fill="white"/>
<path d="M119.158 20.12C120.331 20.52 121.611 20.84 122.998 21.08C124.411 21.2933 125.811 21.4 127.198 21.4C129.091 21.4 130.491 21.32 131.398 21.16C132.331 20.9733 132.945 20.6933 133.238 20.32C133.531 19.9466 133.678 19.4666 133.678 18.88C133.678 18.3733 133.571 17.9733 133.358 17.68C133.145 17.3866 132.731 17.16 132.118 17C131.505 16.8133 130.598 16.6666 129.398 16.56L126.758 16.32C124.785 16.1333 123.225 15.72 122.078 15.08C120.958 14.44 120.158 13.5866 119.678 12.52C119.225 11.4266 118.998 10.12 118.998 8.59996C118.998 6.78663 119.358 5.31996 120.078 4.19996C120.825 3.07996 122.025 2.26663 123.678 1.75996C125.331 1.22663 127.531 0.959961 130.278 0.959961C133.851 0.959961 136.798 1.42663 139.118 2.35996L138.998 7.79996L138.878 7.95996C136.238 7.02663 133.478 6.55996 130.598 6.55996C129.211 6.55996 128.145 6.63996 127.398 6.79996C126.651 6.9333 126.131 7.15996 125.838 7.47996C125.545 7.79996 125.398 8.25329 125.398 8.83996C125.398 9.42663 125.491 9.86663 125.678 10.16C125.891 10.4533 126.305 10.68 126.918 10.84C127.531 10.9733 128.425 11.1066 129.598 11.24L132.118 11.52C134.251 11.76 135.891 12.1866 137.038 12.8C138.185 13.4133 138.971 14.24 139.398 15.28C139.851 16.2933 140.078 17.5333 140.078 19C140.078 20.7866 139.691 22.28 138.918 23.48C138.171 24.6533 136.945 25.5333 135.238 26.12C133.531 26.7066 131.251 27 128.398 27C126.531 27 124.851 26.9066 123.358 26.72C121.865 26.5066 120.411 26.2266 118.998 25.88V20.24L119.158 20.12Z" fill="white"/>
<path d="M144.095 26.64V1.31996H162.895V6.51996H150.495V11.32H161.255V16.52H150.495V21.44H162.895V26.64H144.095Z" fill="white"/>
<path d="M165.447 20.12C166.62 20.52 167.9 20.84 169.287 21.08C170.7 21.2933 172.1 21.4 173.487 21.4C175.38 21.4 176.78 21.32 177.687 21.16C178.62 20.9733 179.234 20.6933 179.527 20.32C179.82 19.9466 179.967 19.4666 179.967 18.88C179.967 18.3733 179.86 17.9733 179.647 17.68C179.434 17.3866 179.02 17.16 178.407 17C177.794 16.8133 176.887 16.6666 175.687 16.56L173.047 16.32C171.074 16.1333 169.514 15.72 168.367 15.08C167.247 14.44 166.447 13.5866 165.967 12.52C165.514 11.4266 165.287 10.12 165.287 8.59996C165.287 6.78663 165.647 5.31996 166.367 4.19996C167.114 3.07996 168.314 2.26663 169.967 1.75996C171.62 1.22663 173.82 0.959961 176.567 0.959961C180.14 0.959961 183.087 1.42663 185.407 2.35996L185.287 7.79996L185.167 7.95996C182.527 7.02663 179.767 6.55996 176.887 6.55996C175.5 6.55996 174.434 6.63996 173.687 6.79996C172.94 6.9333 172.42 7.15996 172.127 7.47996C171.834 7.79996 171.687 8.25329 171.687 8.83996C171.687 9.42663 171.78 9.86663 171.967 10.16C172.18 10.4533 172.594 10.68 173.207 10.84C173.82 10.9733 174.714 11.1066 175.887 11.24L178.407 11.52C180.54 11.76 182.18 12.1866 183.327 12.8C184.474 13.4133 185.26 14.24 185.687 15.28C186.14 16.2933 186.367 17.5333 186.367 19C186.367 20.7866 185.98 22.28 185.207 23.48C184.46 24.6533 183.234 25.5333 181.527 26.12C179.82 26.7066 177.54 27 174.687 27C172.82 27 171.14 26.9066 169.647 26.72C168.154 26.5066 166.7 26.2266 165.287 25.88V20.24L165.447 20.12Z" fill="white"/>
<path d="M201.576 13.96C201.576 10.7333 201.936 8.17329 202.656 6.27996C203.403 4.38663 204.67 3.02663 206.456 2.19996C208.27 1.37329 210.79 0.959961 214.016 0.959961C216.443 0.959961 218.456 1.18663 220.056 1.63996C221.656 2.09329 222.923 2.82663 223.856 3.83996C224.79 4.85329 225.443 6.19996 225.816 7.87996C226.216 9.53329 226.416 11.56 226.416 13.96C226.416 16.3866 226.216 18.44 225.816 20.12C225.443 21.7733 224.79 23.1066 223.856 24.12C222.923 25.1333 221.656 25.8666 220.056 26.32C218.456 26.7733 216.443 27 214.016 27C211.59 27 209.576 26.7733 207.976 26.32C206.376 25.8666 205.11 25.1333 204.176 24.12C203.243 23.1066 202.576 21.7733 202.176 20.12C201.776 18.44 201.576 16.3866 201.576 13.96ZM214.016 21.4C215.723 21.4 217.003 21.1866 217.856 20.76C218.71 20.3333 219.283 19.5866 219.576 18.52C219.87 17.4266 220.016 15.9066 220.016 13.96C220.016 12.04 219.87 10.5466 219.576 9.47996C219.283 8.41329 218.71 7.66663 217.856 7.23996C217.003 6.78663 215.723 6.55996 214.016 6.55996C212.336 6.55996 211.056 6.78663 210.176 7.23996C209.323 7.66663 208.736 8.41329 208.416 9.47996C208.123 10.5466 207.976 12.04 207.976 13.96C207.976 15.9066 208.123 17.4266 208.416 18.52C208.736 19.5866 209.323 20.3333 210.176 20.76C211.056 21.1866 212.336 21.4 214.016 21.4Z" fill="white"/>
<path d="M236.823 26.64H230.423V1.31996H249.223V6.51996H236.823V12.32H248.423V17.52H236.823V26.64Z" fill="white"/>
<path d="M282.612 21.2V26.64H264.212V1.31996H270.612V21.2H282.612Z" fill="white"/>
<path d="M308.623 26.52V26.64H301.823C301.636 26 301.41 25.2666 301.143 24.44C300.903 23.6133 300.636 22.7333 300.343 21.8H291.703C291.17 23.6666 290.676 25.28 290.223 26.64H283.423V26.56L291.623 1.31996H300.423L308.623 26.52ZM295.943 5.87996C295.676 7.23996 295.29 8.89329 294.783 10.84C294.276 12.7866 293.743 14.7733 293.183 16.8H298.903C298.316 14.7733 297.77 12.7866 297.263 10.84C296.756 8.89329 296.37 7.23996 296.103 5.87996H295.943Z" fill="white"/>
<path d="M310.799 20.12C311.972 20.52 313.252 20.84 314.639 21.08C316.052 21.2933 317.452 21.4 318.839 21.4C320.732 21.4 322.132 21.32 323.039 21.16C323.972 20.9733 324.585 20.6933 324.879 20.32C325.172 19.9466 325.319 19.4666 325.319 18.88C325.319 18.3733 325.212 17.9733 324.999 17.68C324.785 17.3866 324.372 17.16 323.759 17C323.145 16.8133 322.239 16.6666 321.039 16.56L318.399 16.32C316.425 16.1333 314.865 15.72 313.719 15.08C312.599 14.44 311.799 13.5866 311.319 12.52C310.865 11.4266 310.639 10.12 310.639 8.59996C310.639 6.78663 310.999 5.31996 311.719 4.19996C312.465 3.07996 313.665 2.26663 315.319 1.75996C316.972 1.22663 319.172 0.959961 321.919 0.959961C325.492 0.959961 328.439 1.42663 330.759 2.35996L330.639 7.79996L330.519 7.95996C327.879 7.02663 325.119 6.55996 322.239 6.55996C320.852 6.55996 319.785 6.63996 319.039 6.79996C318.292 6.9333 317.772 7.15996 317.479 7.47996C317.185 7.79996 317.039 8.25329 317.039 8.83996C317.039 9.42663 317.132 9.86663 317.319 10.16C317.532 10.4533 317.945 10.68 318.559 10.84C319.172 10.9733 320.065 11.1066 321.239 11.24L323.759 11.52C325.892 11.76 327.532 12.1866 328.679 12.8C329.825 13.4133 330.612 14.24 331.039 15.28C331.492 16.2933 331.719 17.5333 331.719 19C331.719 20.7866 331.332 22.28 330.559 23.48C329.812 24.6533 328.585 25.5333 326.879 26.12C325.172 26.7066 322.892 27 320.039 27C318.172 27 316.492 26.9066 314.999 26.72C313.505 26.5066 312.052 26.2266 310.639 25.88V20.24L310.799 20.12Z" fill="white"/>
<path d="M340.936 26.64V6.71996H333.736V1.31996H354.536V6.71996H347.336V26.64H340.936Z" fill="white"/>
<path d="M375.129 26.64V18.8L366.929 1.43996V1.31996H373.929C374.756 3.47996 375.409 5.21329 375.889 6.51996C376.396 7.79996 376.783 8.81329 377.049 9.55996C377.343 10.28 377.569 10.8666 377.729 11.32C377.889 11.7733 378.063 12.2533 378.249 12.76H378.409C378.596 12.2533 378.769 11.7733 378.929 11.32C379.089 10.8666 379.303 10.28 379.569 9.55996C379.863 8.81329 380.249 7.79996 380.729 6.51996C381.236 5.21329 381.903 3.47996 382.729 1.31996H389.729V1.43996L381.529 18.8V26.64H375.129Z" fill="white"/>
<path d="M392.142 26.64V1.31996H410.942V6.51996H398.542V11.32H409.302V16.52H398.542V21.44H410.942V26.64H392.142Z" fill="white"/>
<path d="M437.334 26.52V26.64H430.534C430.347 26 430.121 25.2666 429.854 24.44C429.614 23.6133 429.347 22.7333 429.054 21.8H420.414C419.881 23.6666 419.387 25.28 418.934 26.64H412.134V26.56L420.334 1.31996H429.134L437.334 26.52ZM424.654 5.87996C424.387 7.23996 424.001 8.89329 423.494 10.84C422.987 12.7866 422.454 14.7733 421.894 16.8H427.614C427.027 14.7733 426.481 12.7866 425.974 10.84C425.467 8.89329 425.081 7.23996 424.814 5.87996H424.654Z" fill="white"/>
<path d="M446.55 26.64H440.15V1.31996H452.23C455.403 1.31996 457.71 2.03996 459.15 3.47996C460.616 4.89329 461.35 6.98663 461.35 9.75996C461.35 11.84 460.83 13.6266 459.79 15.12C458.75 16.5866 457.376 17.5066 455.67 17.88L455.63 18C456.296 18.4266 457.03 19.1333 457.83 20.12C458.63 21.1066 459.416 22.1866 460.19 23.36C460.99 24.5066 461.696 25.5866 462.31 26.6V26.64H454.87L450.55 20.24C450.176 19.68 449.87 19.28 449.63 19.04C449.416 18.8 449.15 18.6533 448.83 18.6C448.536 18.5466 448.056 18.52 447.39 18.52H446.55V26.64ZM451.19 6.51996H446.55V13.32H451.19C452.523 13.32 453.443 13.0533 453.95 12.52C454.483 11.9866 454.75 11.12 454.75 9.91996C454.75 8.71996 454.483 7.85329 453.95 7.31996C453.443 6.78663 452.523 6.51996 451.19 6.51996Z" fill="white"/>
</mask>
<g mask="url(#mask0_1931_72)">
<rect x="-4" y="-7" width="469" height="42" fill="url(#paint0_linear_1931_72)"/>
</g>
<defs>
<linearGradient id="paint0_linear_1931_72" x1="128.336" y1="57.5701" x2="141.38" y2="-38.7788" gradientUnits="userSpaceOnUse">
<stop stop-color="#00337C"/>
<stop offset="1" stop-color="#03C988"/>
</linearGradient>
</defs>
</svg>
