<svg width="582" height="100" viewBox="50 0 40 40" fill="none" xmlns="http://www.w3.org/2000/svg">
    <path d="M7.6 33.64V13.72H0.4V8.32H21.2V13.72H14V33.64H7.6ZM30.4016 33.64H24.0016V8.32H36.0816C39.2549 8.32 41.5616 9.04 43.0016 10.48C44.4682 11.8933 45.2016 13.9867 45.2016 16.76C45.2016 18.84 44.6816 20.6267 43.6416 22.12C42.6016 23.5867 41.2282 24.5067 39.5216 24.88L39.4816 25C40.1482 25.4267 40.8816 26.1333 41.6816 27.12C42.4816 28.1067 43.2682 29.1867 44.0416 30.36C44.8416 31.5067 45.5482 32.5867 46.1616 33.6V33.64H38.7216L34.4016 27.24C34.0282 26.68 33.7216 26.28 33.4816 26.04C33.2682 25.8 33.0016 25.6533 32.6816 25.6C32.3882 25.5467 31.9082 25.52 31.2416 25.52H30.4016V33.64ZM35.0416 13.52H30.4016V20.32H35.0416C36.3749 20.32 37.2949 20.0533 37.8016 19.52C38.3349 18.9867 38.6016 18.12 38.6016 16.92C38.6016 15.72 38.3349 14.8533 37.8016 14.32C37.2949 13.7867 36.3749 13.52 35.0416 13.52ZM72.9828 33.52V33.64H66.1828C65.9961 33 65.7695 32.2667 65.5028 31.44C65.2628 30.6133 64.9961 29.7333 64.7028 28.8H56.0628C55.5295 30.6667 55.0361 32.28 54.5828 33.64H47.7828V33.56L55.9828 8.32H64.7828L72.9828 33.52ZM60.3028 12.88C60.0361 14.24 59.6495 15.8933 59.1428 17.84C58.6361 19.7867 58.1028 21.7733 57.5428 23.8H63.2628C62.6761 21.7733 62.1295 19.7867 61.6228 17.84C61.1161 15.8933 60.7295 14.24 60.4628 12.88H60.3028Z" fill="#1BD8D7"/>
    <path d="M94.28 29.16V34.2C93 34.4667 91.7467 34.6667 90.52 34.8C89.2933 34.9333 87.84 35 86.16 35C84 35 82.1733 34.8133 80.68 34.44C79.2133 34.0667 78.0267 33.4133 77.12 32.48C76.24 31.52 75.6 30.1733 75.2 28.44C74.8 26.7067 74.6 24.48 74.6 21.76C74.6 19.1467 74.8 17 75.2 15.32C75.6 13.64 76.24 12.3467 77.12 11.44C78.0267 10.5067 79.2133 9.86667 80.68 9.52C82.1733 9.14667 84 8.96 86.16 8.96C87.84 8.96 89.2933 9.02667 90.52 9.16C91.7467 9.26667 93 9.46667 94.28 9.76V14.96L94.16 15.04C93.04 14.7733 91.96 14.5867 90.92 14.48C89.88 14.3467 88.6 14.28 87.08 14.28C85.8533 14.28 84.84 14.3733 84.04 14.56C83.2667 14.72 82.6533 15.0533 82.2 15.56C81.7467 16.0667 81.4267 16.8133 81.24 17.8C81.08 18.7867 81 20.1067 81 21.76C81 23.4933 81.08 24.8933 81.24 25.96C81.4267 27 81.7467 27.7867 82.2 28.32C82.6533 28.8533 83.2667 29.2133 84.04 29.4C84.84 29.5867 85.8533 29.68 87.08 29.68C88.5733 29.68 89.84 29.64 90.88 29.56C91.9467 29.4533 93.0133 29.2667 94.08 29L94.28 29.16ZM104.066 34.64H97.6656V9.32H104.066V19.92C104.119 19.92 104.159 19.92 104.186 19.92C104.452 19.92 104.759 19.7067 105.106 19.28C105.479 18.8533 105.812 18.4267 106.106 18L111.466 9.32H118.426V9.44L113.866 16.8C113.466 17.4667 113.012 18.1867 112.506 18.96C111.999 19.7067 111.492 20.3733 110.986 20.96C110.506 21.52 110.079 21.8667 109.706 22V22.12C110.079 22.28 110.506 22.6267 110.986 23.16C111.492 23.6667 111.999 24.2667 112.506 24.96C113.039 25.6267 113.546 26.2933 114.026 26.96L119.346 34.52V34.64H111.986L106.986 26.96V27C106.826 26.7333 106.572 26.3867 106.226 25.96C105.906 25.5067 105.559 25.0933 105.186 24.72C104.839 24.3467 104.532 24.16 104.266 24.16C104.212 24.16 104.172 24.16 104.146 24.16C104.119 24.16 104.092 24.16 104.066 24.16V34.64ZM121.283 28.12C122.457 28.52 123.737 28.84 125.123 29.08C126.537 29.2933 127.937 29.4 129.323 29.4C131.217 29.4 132.617 29.32 133.523 29.16C134.457 28.9733 135.07 28.6933 135.363 28.32C135.657 27.9467 135.803 27.4667 135.803 26.88C135.803 26.3733 135.697 25.9733 135.483 25.68C135.27 25.3867 134.857 25.16 134.243 25C133.63 24.8133 132.723 24.6667 131.523 24.56L128.883 24.32C126.91 24.1333 125.35 23.72 124.203 23.08C123.083 22.44 122.283 21.5867 121.803 20.52C121.35 19.4267 121.123 18.12 121.123 16.6C121.123 14.7867 121.483 13.32 122.203 12.2C122.95 11.08 124.15 10.2667 125.803 9.76C127.457 9.22667 129.657 8.96 132.403 8.96C135.977 8.96 138.923 9.42667 141.243 10.36L141.123 15.8L141.003 15.96C138.363 15.0267 135.603 14.56 132.723 14.56C131.337 14.56 130.27 14.64 129.523 14.8C128.777 14.9333 128.257 15.16 127.963 15.48C127.67 15.8 127.523 16.2533 127.523 16.84C127.523 17.4267 127.617 17.8667 127.803 18.16C128.017 18.4533 128.43 18.68 129.043 18.84C129.657 18.9733 130.55 19.1067 131.723 19.24L134.243 19.52C136.377 19.76 138.017 20.1867 139.163 20.8C140.31 21.4133 141.097 22.24 141.523 23.28C141.977 24.2933 142.203 25.5333 142.203 27C142.203 28.7867 141.817 30.28 141.043 31.48C140.297 32.6533 139.07 33.5333 137.363 34.12C135.657 34.7067 133.377 35 130.523 35C128.657 35 126.977 34.9067 125.483 34.72C123.99 34.5067 122.537 34.2267 121.123 33.88V28.24L121.283 28.12Z" fill="#FFC438"/>
    </svg>