<svg width="735" height="120" viewBox="90 0 73 51" fill="none" xmlns="http://www.w3.org/2000/svg">
    <path d="M23.84 27.16C23.84 29.2933 23.1733 30.9067 21.84 32C20.5333 33.0933 18.2133 33.64 14.88 33.64H2.4V8.32H3.96H14.48C16.6933 8.32 18.4133 8.56 19.64 9.04C20.8933 9.49333 21.7733 10.1733 22.28 11.08C22.7867 11.9867 23.04 13.12 23.04 14.48C23.04 16.3467 22.5867 17.8 21.68 18.84C20.8 19.8533 19.1333 20.4667 16.68 20.68V20.8C18.4933 20.9333 19.92 21.24 20.96 21.72C22 22.1733 22.7333 22.84 23.16 23.72C23.6133 24.6 23.84 25.7467 23.84 27.16ZM12.72 13.36H8.8V18.32H12.72C14.0267 18.32 14.9733 18.16 15.56 17.84C16.1467 17.4933 16.44 16.8267 16.44 15.84C16.44 14.88 16.1467 14.2267 15.56 13.88C14.9733 13.5333 14.0267 13.36 12.72 13.36ZM13.52 23.56H8.8V28.64H13.52C14.8267 28.64 15.7733 28.4667 16.36 28.12C16.9467 27.7467 17.24 27.0667 17.24 26.08C17.24 25.0667 16.9467 24.4 16.36 24.08C15.7733 23.7333 14.8267 23.56 13.52 23.56ZM45.8391 28.2V33.64H27.4391V8.32H33.8391V28.2H45.8391ZM70.57 8.32V23.24C70.57 25.8533 70.25 27.9467 69.61 29.52C68.9967 31.0933 67.9167 32.24 66.37 32.96C64.8233 33.6533 62.6367 34 59.81 34C56.8767 34 54.5967 33.6533 52.97 32.96C51.37 32.24 50.25 31.0933 49.61 29.52C48.97 27.9467 48.65 25.8533 48.65 23.24V8.32H55.05V23.12C55.05 24.48 55.1833 25.5467 55.45 26.32C55.7167 27.0933 56.1967 27.64 56.89 27.96C57.5833 28.2533 58.5567 28.4 59.81 28.4C60.9833 28.4 61.8767 28.2533 62.49 27.96C63.13 27.64 63.57 27.0933 63.81 26.32C64.05 25.5467 64.17 24.48 64.17 23.12V8.32H70.57ZM75.3688 33.64V8.32H94.1688V13.52H81.7688V18.32H92.5288V23.52H81.7688V28.44H94.1688V33.64H75.3688ZM103.761 33.64H97.3609V8.32H108.641C111.174 8.32 113.201 8.62667 114.721 9.24C116.241 9.85333 117.334 10.8533 118.001 12.24C118.668 13.6267 119.001 15.5067 119.001 17.88C119.001 20.12 118.668 21.9467 118.001 23.36C117.334 24.7467 116.241 25.7733 114.721 26.44C113.201 27.1067 111.174 27.44 108.641 27.44H103.761V33.64ZM107.601 13.56H103.761V22.2H107.601C109.494 22.2 110.761 21.88 111.401 21.24C112.041 20.6 112.361 19.48 112.361 17.88C112.361 16.36 112.041 15.2667 111.401 14.6C110.761 13.9067 109.494 13.56 107.601 13.56ZM128.8 33.64H122.4V8.32H134.48C137.653 8.32 139.96 9.04 141.4 10.48C142.867 11.8933 143.6 13.9867 143.6 16.76C143.6 18.84 143.08 20.6267 142.04 22.12C141 23.5867 139.627 24.5067 137.92 24.88L137.88 25C138.547 25.4267 139.28 26.1333 140.08 27.12C140.88 28.1067 141.667 29.1867 142.44 30.36C143.24 31.5067 143.947 32.5867 144.56 33.6V33.64H137.12L132.8 27.24C132.427 26.68 132.12 26.28 131.88 26.04C131.667 25.8 131.4 25.6533 131.08 25.6C130.787 25.5467 130.307 25.52 129.64 25.52H128.8V33.64ZM133.44 13.52H128.8V20.32H133.44C134.773 20.32 135.693 20.0533 136.2 19.52C136.733 18.9867 137 18.12 137 16.92C137 15.72 136.733 14.8533 136.2 14.32C135.693 13.7867 134.773 13.52 133.44 13.52ZM154.581 33.64H148.181V8.32H154.581V33.64ZM175.792 8.32H182.192V33.64H175.832L168.632 22.92C168.072 22.0667 167.606 21.3467 167.232 20.76C166.859 20.1733 166.512 19.5867 166.192 19C165.872 18.4133 165.512 17.72 165.112 16.92L164.992 17.08C165.366 18.36 165.592 19.56 165.672 20.68C165.752 21.7733 165.792 22.84 165.792 23.88V33.64H159.392V8.32H165.752L172.952 19.04C173.512 19.8667 173.979 20.5867 174.352 21.2C174.726 21.7867 175.072 22.3733 175.392 22.96C175.712 23.5467 176.072 24.24 176.472 25.04L176.592 24.88C176.326 23.76 176.126 22.68 175.992 21.64C175.859 20.5733 175.792 19.52 175.792 18.48V8.32ZM192.209 33.64V13.72H185.009V8.32H205.809V13.72H198.609V33.64H192.209Z" fill="#1BD8D7"/>
    <path d="M219.8 24.44L229.08 9.12H238.24V24.88H242.44V29.6H238.32V33.72H232.32L232.2 29.6H219.8V24.44ZM232.64 24.88V12.72L225.88 24.88H232.64ZM251.948 27.96C252.001 28.5467 252.041 29.0533 252.068 29.48C252.095 29.88 252.108 30.3067 252.108 30.76C252.108 31.1867 252.095 31.6267 252.068 32.08C252.041 32.5067 252.001 33 251.948 33.56C251.281 33.6667 250.615 33.76 249.948 33.84C249.281 33.92 248.615 33.96 247.948 33.96C247.308 33.96 246.668 33.92 246.028 33.84C245.388 33.76 244.735 33.6667 244.068 33.56C243.988 33.0267 243.935 32.5467 243.908 32.12C243.881 31.6667 243.868 31.2267 243.868 30.8C243.868 30.4 243.881 29.9733 243.908 29.52C243.935 29.0667 243.988 28.5467 244.068 27.96C245.401 27.72 246.721 27.6 248.028 27.6C249.335 27.6 250.641 27.72 251.948 27.96ZM275.701 21.44C275.701 24.48 275.354 26.92 274.661 28.76C273.967 30.6 272.847 31.9333 271.301 32.76C269.754 33.5867 267.687 34 265.101 34C262.541 34 260.487 33.5867 258.941 32.76C257.394 31.9333 256.274 30.6 255.581 28.76C254.887 26.92 254.541 24.48 254.541 21.44C254.541 18.3733 254.887 15.92 255.581 14.08C256.274 12.24 257.394 10.9067 258.941 10.08C260.487 9.25333 262.541 8.84 265.101 8.84C267.687 8.84 269.754 9.25333 271.301 10.08C272.847 10.9067 273.967 12.24 274.661 14.08C275.354 15.92 275.701 18.3733 275.701 21.44ZM265.101 28.68C266.914 28.68 268.101 28.0933 268.661 26.92C269.247 25.72 269.541 23.8933 269.541 21.44C269.541 18.96 269.247 17.1333 268.661 15.96C268.101 14.7867 266.914 14.2 265.101 14.2C263.314 14.2 262.127 14.7867 261.541 15.96C260.981 17.1333 260.701 18.96 260.701 21.44C260.701 23.8933 260.981 25.72 261.541 26.92C262.127 28.0933 263.314 28.68 265.101 28.68Z" fill="#FFC438"/>
    </svg>