<svg width="731" height="234" viewBox="0 0 731 234" fill="none" xmlns="http://www.w3.org/2000/svg">
<path d="M8.8 33.64H2.4V8.32H8.8V33.64ZM20.0109 33.64H13.6109V14.16H19.6909L20.0109 17.72H20.1309C20.5043 16.52 21.1709 15.6 22.1309 14.96C23.0909 14.2933 24.4243 13.96 26.1309 13.96C28.4509 13.96 30.1576 14.6133 31.2509 15.92C32.3709 17.2267 32.9309 19.4933 32.9309 22.72V33.64H26.5309L26.4909 23.96C26.4909 22.4667 26.2643 21.4 25.8109 20.76C25.3576 20.12 24.5043 19.8 23.2509 19.8C22.0776 19.8 21.2509 20.0933 20.7709 20.68C20.2909 21.24 20.0376 22.2133 20.0109 23.6V33.64ZM35.9219 24.92C35.9219 22.52 36.2419 20.5067 36.8819 18.88C37.5485 17.2533 38.6152 16.0267 40.0819 15.2C41.5485 14.3733 43.5219 13.96 46.0019 13.96C47.9752 13.96 49.7085 14.0133 51.2019 14.12C52.7219 14.2 54.1752 14.3067 55.5619 14.44L55.6819 14.52V41.08H49.2819V30.8H49.1619C48.8152 31.8667 48.1485 32.6667 47.1619 33.2C46.1752 33.7333 44.9752 34 43.5619 34C41.1885 34 39.3219 33.2533 37.9619 31.76C36.6019 30.24 35.9219 27.96 35.9219 24.92ZM42.1619 23.96C42.1619 25.5067 42.3885 26.6667 42.8419 27.44C43.3219 28.1867 44.2552 28.56 45.6419 28.56C46.7085 28.56 47.5752 28.2267 48.2419 27.56C48.9352 26.8933 49.2819 25.7867 49.2819 24.24V19.6C48.8285 19.5467 48.3219 19.5067 47.7619 19.48C47.2285 19.4267 46.7219 19.4 46.2419 19.4C44.7752 19.4 43.7219 19.7467 43.0819 20.44C42.4685 21.1067 42.1619 22.28 42.1619 23.96ZM66.8859 34C64.4326 34 62.6859 33.3467 61.6459 32.04C60.6059 30.7333 60.0859 28.8667 60.0859 26.44V14.16H66.4859L66.5259 24.88C66.5259 26.08 66.7393 26.9333 67.1659 27.44C67.5926 27.92 68.4593 28.16 69.7659 28.16C71.0193 28.16 71.8593 27.9467 72.2859 27.52C72.7393 27.0667 72.9793 26.3067 73.0059 25.24V14.16H79.4059V33.64H73.3259L73.0059 31.44H72.8859C72.5393 32.2133 71.8326 32.84 70.7659 33.32C69.6993 33.7733 68.4059 34 66.8859 34ZM90.2369 6.92C90.3169 7.88 90.3569 8.68 90.3569 9.32C90.3569 9.69333 90.3435 10.08 90.3169 10.48C90.3169 10.8533 90.2902 11.28 90.2369 11.76C89.6769 11.8667 89.1302 11.9467 88.5969 12C88.0635 12.0533 87.5302 12.08 86.9969 12.08C86.4902 12.08 85.9702 12.0533 85.4369 12C84.9302 11.9467 84.4102 11.8667 83.8769 11.76C83.8235 11.3067 83.7835 10.8933 83.7569 10.52C83.7302 10.12 83.7169 9.73333 83.7169 9.36C83.7169 9.01333 83.7302 8.64 83.7569 8.24C83.7835 7.84 83.8235 7.4 83.8769 6.92C84.4102 6.78666 84.9435 6.70667 85.4769 6.68C86.0369 6.62666 86.5835 6.6 87.1169 6.6C87.6235 6.6 88.1302 6.62666 88.6369 6.68C89.1702 6.70667 89.7035 6.78666 90.2369 6.92ZM90.2369 33.64H83.8369V14.16H90.2369V33.64ZM93.7856 28.12C95.8656 28.7067 98.1723 29 100.706 29C101.932 29 102.852 28.96 103.466 28.88C104.079 28.8 104.492 28.6667 104.706 28.48C104.919 28.2933 105.026 28.04 105.026 27.72C105.026 27.2667 104.852 26.9867 104.506 26.88C104.186 26.7733 103.532 26.6267 102.546 26.44L99.3856 25.84C97.359 25.44 95.8923 24.8133 94.9856 23.96C94.1056 23.08 93.6656 21.7733 93.6656 20.04C93.6656 17.6933 94.359 16.0933 95.7456 15.24C97.159 14.3867 99.399 13.96 102.466 13.96C104.306 13.96 105.919 14.0667 107.306 14.28C108.719 14.4667 109.892 14.7067 110.826 15L110.746 19.84L110.626 19.96C108.466 19.2667 106.106 18.92 103.546 18.92C102.292 18.92 101.412 19.0133 100.906 19.2C100.426 19.36 100.186 19.6933 100.186 20.2C100.186 20.4667 100.252 20.68 100.386 20.84C100.546 21 100.892 21.16 101.426 21.32C101.959 21.4533 102.799 21.6267 103.946 21.84L106.866 22.4C108.492 22.7467 109.692 23.32 110.466 24.12C111.239 24.92 111.626 26.1867 111.626 27.92C111.626 29.44 111.346 30.6533 110.786 31.56C110.226 32.44 109.279 33.0667 107.946 33.44C106.639 33.8133 104.826 34 102.506 34C100.746 34 99.119 33.92 97.6256 33.76C96.159 33.5733 94.839 33.36 93.6656 33.12V28.2L93.7856 28.12ZM121.057 6.92C121.137 7.88 121.177 8.68 121.177 9.32C121.177 9.69333 121.164 10.08 121.137 10.48C121.137 10.8533 121.111 11.28 121.057 11.76C120.497 11.8667 119.951 11.9467 119.417 12C118.884 12.0533 118.351 12.08 117.817 12.08C117.311 12.08 116.791 12.0533 116.257 12C115.751 11.9467 115.231 11.8667 114.697 11.76C114.644 11.3067 114.604 10.8933 114.577 10.52C114.551 10.12 114.537 9.73333 114.537 9.36C114.537 9.01333 114.551 8.64 114.577 8.24C114.604 7.84 114.644 7.4 114.697 6.92C115.231 6.78666 115.764 6.70667 116.297 6.68C116.857 6.62666 117.404 6.6 117.937 6.6C118.444 6.6 118.951 6.62666 119.457 6.68C119.991 6.70667 120.524 6.78666 121.057 6.92ZM121.057 33.64H114.657V14.16H121.057V33.64ZM125.886 27.8V19.4H123.486V14.2H126.486L127.686 9.44H132.286V14.2H136.646V19.4H132.286V26.4C132.286 27.1467 132.379 27.6667 132.566 27.96C132.753 28.2267 133.179 28.36 133.846 28.36C134.273 28.36 134.726 28.3467 135.206 28.32C135.686 28.2667 136.166 28.2133 136.646 28.16L136.766 28.24V33.44C135.486 33.8133 133.793 34 131.686 34C129.579 34 128.086 33.52 127.206 32.56C126.326 31.6 125.886 30.0133 125.886 27.8ZM146.409 6.92C146.489 7.88 146.529 8.68 146.529 9.32C146.529 9.69333 146.515 10.08 146.489 10.48C146.489 10.8533 146.462 11.28 146.409 11.76C145.849 11.8667 145.302 11.9467 144.769 12C144.235 12.0533 143.702 12.08 143.169 12.08C142.662 12.08 142.142 12.0533 141.609 12C141.102 11.9467 140.582 11.8667 140.049 11.76C139.995 11.3067 139.955 10.8933 139.929 10.52C139.902 10.12 139.889 9.73333 139.889 9.36C139.889 9.01333 139.902 8.64 139.929 8.24C139.955 7.84 139.995 7.4 140.049 6.92C140.582 6.78666 141.115 6.70667 141.649 6.68C142.209 6.62666 142.755 6.6 143.289 6.6C143.795 6.6 144.302 6.62666 144.809 6.68C145.342 6.70667 145.875 6.78666 146.409 6.92ZM146.409 33.64H140.009V14.16H146.409V33.64ZM149.438 24.04C149.438 20.4667 150.198 17.8933 151.718 16.32C153.238 14.7467 155.811 13.96 159.438 13.96C161.864 13.96 163.811 14.3067 165.278 15C166.744 15.6933 167.798 16.7867 168.438 18.28C169.104 19.7467 169.438 21.6667 169.438 24.04C169.438 26.3867 169.104 28.2933 168.438 29.76C167.798 31.2267 166.744 32.3067 165.278 33C163.811 33.6667 161.864 34 159.438 34C155.811 34 153.238 33.2267 151.718 31.68C150.198 30.1067 149.438 27.56 149.438 24.04ZM159.438 28.52C160.984 28.52 162.024 28.1867 162.558 27.52C163.118 26.8267 163.398 25.6267 163.398 23.92C163.398 22.2933 163.118 21.1333 162.558 20.44C162.024 19.72 160.984 19.36 159.438 19.36C157.944 19.36 156.904 19.72 156.318 20.44C155.758 21.1333 155.478 22.2933 155.478 23.92C155.478 25.6267 155.758 26.8267 156.318 27.52C156.904 28.1867 157.944 28.52 159.438 28.52ZM179.23 33.64H172.83V14.16H178.91L179.23 17.72H179.35C179.723 16.52 180.39 15.6 181.35 14.96C182.31 14.2933 183.643 13.96 185.35 13.96C187.67 13.96 189.376 14.6133 190.47 15.92C191.59 17.2267 192.15 19.4933 192.15 22.72V33.64H185.75L185.71 23.96C185.71 22.4667 185.483 21.4 185.03 20.76C184.576 20.12 183.723 19.8 182.47 19.8C181.296 19.8 180.47 20.0933 179.99 20.68C179.51 21.24 179.256 22.2133 179.23 23.6V33.64ZM207.133 24.04C207.133 20.4667 207.893 17.8933 209.413 16.32C210.933 14.7467 213.506 13.96 217.133 13.96C219.559 13.96 221.506 14.3067 222.973 15C224.439 15.6933 225.493 16.7867 226.133 18.28C226.799 19.7467 227.133 21.6667 227.133 24.04C227.133 26.3867 226.799 28.2933 226.133 29.76C225.493 31.2267 224.439 32.3067 222.973 33C221.506 33.6667 219.559 34 217.133 34C213.506 34 210.933 33.2267 209.413 31.68C207.893 30.1067 207.133 27.56 207.133 24.04ZM217.133 28.52C218.679 28.52 219.719 28.1867 220.253 27.52C220.813 26.8267 221.093 25.6267 221.093 23.92C221.093 22.2933 220.813 21.1333 220.253 20.44C219.719 19.72 218.679 19.36 217.133 19.36C215.639 19.36 214.599 19.72 214.013 20.44C213.453 21.1333 213.173 22.2933 213.173 23.92C213.173 25.6267 213.453 26.8267 214.013 27.52C214.599 28.1867 215.639 28.52 217.133 28.52ZM228.925 19.36V14.16H231.765V13.16C231.765 10.52 232.378 8.62667 233.605 7.48C234.832 6.30667 236.658 5.72 239.085 5.72C239.938 5.72 240.725 5.8 241.445 5.96C242.165 6.09333 242.792 6.25333 243.325 6.44V10.92L243.205 11C242.725 10.9467 242.245 10.9067 241.765 10.88C241.285 10.8267 240.832 10.8 240.405 10.8C239.498 10.8 238.858 10.9733 238.485 11.32C238.138 11.64 237.965 12.1467 237.965 12.84V14.16H243.325V19.36H237.965V33.64H231.765V19.36H228.925Z" fill="white"/>
<g style="mix-blend-mode:plus-lighter">
<mask id="mask0_1930_35" style="mask-type:alpha" maskUnits="userSpaceOnUse" x="2" y="58" width="729" height="176">
<path d="M2.98516 109.301C6.10619 110.365 9.51094 111.216 13.1994 111.854C16.9588 112.422 20.6828 112.706 24.3713 112.706C29.4075 112.706 33.1314 112.493 35.5431 112.067C38.0258 111.571 39.6572 110.826 40.4375 109.833C41.2177 108.84 41.6079 107.563 41.6079 106.003C41.6079 104.655 41.3241 103.591 40.7567 102.811C40.1892 102.03 39.0898 101.427 37.4583 101.002C35.8269 100.505 33.4152 100.115 30.2232 99.8314L23.2009 99.193C17.9519 98.6965 13.8024 97.597 10.7523 95.8946C7.7731 94.1923 5.64513 91.9224 4.36835 89.0851C3.1625 86.1769 2.55957 82.7012 2.55957 78.6581C2.55957 73.8347 3.51716 69.9334 5.43233 66.9542C7.41844 63.9751 10.6104 61.8116 15.0082 60.4639C19.406 59.0453 25.2579 58.3359 32.564 58.3359C42.0689 58.3359 49.9069 59.5773 56.0781 62.0599L55.7589 76.5301L55.4397 76.9557C48.4174 74.4731 41.0759 73.2317 33.4152 73.2317C29.7267 73.2317 26.8894 73.4445 24.9033 73.8701C22.9172 74.2248 21.534 74.8277 20.7537 75.6789C19.9735 76.5301 19.5833 77.7359 19.5833 79.2965C19.5833 80.857 19.8316 82.0274 20.3281 82.8076C20.8956 83.5879 21.995 84.1908 23.6265 84.6164C25.2579 84.971 27.6342 85.3257 30.7552 85.6804L37.4583 86.4252C43.1329 87.0636 47.4952 88.1985 50.5453 89.8299C53.5954 91.4614 55.6879 93.6603 56.8228 96.4266C58.0287 99.1221 58.6316 102.42 58.6316 106.322C58.6316 111.074 57.6031 115.046 55.5461 118.238C53.56 121.359 50.2971 123.7 45.7574 125.261C41.2177 126.821 35.153 127.601 27.5632 127.601C22.598 127.601 18.1292 127.353 14.157 126.857C10.1848 126.289 6.31899 125.544 2.55957 124.622V109.62L2.98516 109.301Z" fill="white"/>
<path d="M132.943 59.2935V98.9802C132.943 105.932 132.092 111.5 130.389 115.685C128.758 119.87 125.885 122.92 121.771 124.835C117.657 126.679 111.84 127.601 104.322 127.601C96.5189 127.601 90.4542 126.679 86.1273 124.835C81.8714 122.92 78.8922 119.87 77.1899 115.685C75.4875 111.5 74.6363 105.932 74.6363 98.9802V59.2935H91.6601V98.661C91.6601 102.279 92.0147 105.116 92.7241 107.173C93.4334 109.23 94.7102 110.684 96.5544 111.535C98.3987 112.315 100.988 112.706 104.322 112.706C107.443 112.706 109.819 112.315 111.45 111.535C113.153 110.684 114.323 109.23 114.961 107.173C115.6 105.116 115.919 102.279 115.919 98.661V59.2935H132.943Z" fill="white"/>
<path d="M149.325 109.301C152.446 110.365 155.851 111.216 159.539 111.854C163.298 112.422 167.022 112.706 170.711 112.706C175.747 112.706 179.471 112.493 181.883 112.067C184.365 111.571 185.997 110.826 186.777 109.833C187.557 108.84 187.947 107.563 187.947 106.003C187.947 104.655 187.664 103.591 187.096 102.811C186.529 102.03 185.429 101.427 183.798 101.002C182.166 100.505 179.755 100.115 176.563 99.8314L169.541 99.193C164.292 98.6965 160.142 97.597 157.092 95.8946C154.113 94.1923 151.985 91.9224 150.708 89.0851C149.502 86.1769 148.899 82.7012 148.899 78.6581C148.899 73.8347 149.857 69.9334 151.772 66.9542C153.758 63.9751 156.95 61.8116 161.348 60.4639C165.746 59.0453 171.598 58.3359 178.904 58.3359C188.409 58.3359 196.247 59.5773 202.418 62.0599L202.098 76.5301L201.779 76.9557C194.757 74.4731 187.415 73.2317 179.755 73.2317C176.066 73.2317 173.229 73.4445 171.243 73.8701C169.257 74.2248 167.874 74.8277 167.093 75.6789C166.313 76.5301 165.923 77.7359 165.923 79.2965C165.923 80.857 166.171 82.0274 166.668 82.8076C167.235 83.5879 168.335 84.1908 169.966 84.6164C171.598 84.971 173.974 85.3257 177.095 85.6804L183.798 86.4252C189.473 87.0636 193.835 88.1985 196.885 89.8299C199.935 91.4614 202.028 93.6603 203.162 96.4266C204.368 99.1221 204.971 102.42 204.971 106.322C204.971 111.074 203.943 115.046 201.886 118.238C199.9 121.359 196.637 123.7 192.097 125.261C187.557 126.821 181.493 127.601 173.903 127.601C168.938 127.601 164.469 127.353 160.497 126.857C156.524 126.289 152.659 125.544 148.899 124.622V109.62L149.325 109.301Z" fill="white"/>
<path d="M234.808 126.644V73.6573H215.656V59.2935H270.983V73.6573H251.832V126.644H234.808Z" fill="white"/>
<path d="M345.466 126.325V126.644H327.379C326.882 124.941 326.279 122.991 325.57 120.792C324.931 118.593 324.222 116.252 323.442 113.77H300.46C299.041 118.735 297.729 123.026 296.523 126.644H278.435V126.431L300.247 59.2935H323.655L345.466 126.325ZM311.738 71.423C311.029 75.0405 310 79.4383 308.652 84.6164C307.305 89.7945 305.886 95.0789 304.397 100.47H319.612C318.051 95.0789 316.597 89.7945 315.249 84.6164C313.901 79.4383 312.873 75.0405 312.164 71.423H311.738Z" fill="white"/>
<path d="M375.3 126.644H358.276V59.2935H375.3V126.644Z" fill="white"/>
<path d="M437.04 59.2935H454.064V126.644H437.146L417.994 98.129C416.505 95.8592 415.264 93.944 414.271 92.3835C413.277 90.823 412.355 89.2625 411.504 87.7019C410.653 86.1414 409.695 84.2972 408.631 82.1692L408.312 82.5948C409.305 85.9996 409.908 89.1915 410.121 92.1707C410.334 95.0789 410.44 97.9162 410.44 100.683V126.644H393.416V59.2935H410.334L429.486 87.8083C430.975 90.0072 432.216 91.9224 433.209 93.5539C434.203 95.1144 435.125 96.6749 435.976 98.2354C436.827 99.7959 437.785 101.64 438.849 103.768L439.168 103.343C438.458 100.363 437.927 97.4906 437.572 94.7243C437.217 91.887 437.04 89.0851 437.04 86.3188V59.2935Z" fill="white"/>
<path d="M533.908 126.325V126.644H515.82C515.324 124.941 514.721 122.991 514.012 120.792C513.373 118.593 512.664 116.252 511.884 113.77H488.902C487.483 118.735 486.171 123.026 484.965 126.644H466.877V126.431L488.689 59.2935H512.097L533.908 126.325ZM500.18 71.423C499.471 75.0405 498.442 79.4383 497.094 84.6164C495.747 89.7945 494.328 95.0789 492.838 100.47H508.053C506.493 95.0789 505.039 89.7945 503.691 84.6164C502.343 79.4383 501.315 75.0405 500.606 71.423H500.18Z" fill="white"/>
<path d="M603.747 109.407C603.747 115.082 601.974 119.373 598.427 122.281C594.952 125.19 588.781 126.644 579.914 126.644H546.718V59.2935H578.85C584.737 59.2935 589.313 59.9319 592.575 61.2087C595.909 62.4145 598.25 64.2233 599.598 66.635C600.946 69.0467 601.619 72.0614 601.619 75.6789C601.619 80.6442 600.413 84.51 598.002 87.2764C595.661 89.9718 591.228 91.6032 584.702 92.1707V92.4899C589.525 92.8445 593.32 93.6603 596.087 94.9371C598.853 96.1429 600.804 97.9162 601.939 100.257C603.144 102.598 603.747 105.648 603.747 109.407ZM574.168 72.6997H563.741V85.8932H574.168C577.644 85.8932 580.162 85.4676 581.723 84.6164C583.283 83.6943 584.064 81.921 584.064 79.2965C584.064 76.7429 583.283 75.005 581.723 74.0829C580.162 73.1608 577.644 72.6997 574.168 72.6997ZM576.296 99.8314H563.741V113.344H576.296C579.772 113.344 582.29 112.883 583.851 111.961C585.411 110.968 586.192 109.159 586.192 106.534C586.192 103.839 585.411 102.066 583.851 101.215C582.29 100.292 579.772 99.8314 576.296 99.8314Z" fill="white"/>
<path d="M667.584 112.174V126.644H618.641V59.2935H635.664V112.174H667.584Z" fill="white"/>
<path d="M680.381 126.644V59.2935H730.388V73.1253H697.405V85.8932H726.026V99.725H697.405V112.812H730.388V126.644H680.381Z" fill="white"/>
<path d="M21.7113 233.042H4.68754V165.692H21.7113V233.042Z" fill="white"/>
<path d="M83.4516 165.692H100.475V233.042H83.558L64.4062 204.528C62.9167 202.258 61.6753 200.343 60.6823 198.782C59.6892 197.222 58.7671 195.661 57.9159 194.101C57.0647 192.54 56.1072 190.696 55.0432 188.568L54.724 188.993C55.717 192.398 56.3199 195.59 56.5327 198.569C56.7455 201.478 56.8519 204.315 56.8519 207.081V233.042H39.8282V165.692H56.7455L75.8973 194.207C77.3869 196.406 78.6282 198.321 79.6212 199.952C80.6143 201.513 81.5364 203.073 82.3876 204.634C83.2388 206.195 84.1964 208.039 85.2604 210.167L85.5796 209.741C84.8702 206.762 84.3382 203.889 83.9836 201.123C83.6289 198.286 83.4516 195.484 83.4516 192.717V165.692Z" fill="white"/>
<path d="M162.232 165.692H179.256V233.042H162.339L143.187 204.528C141.697 202.258 140.456 200.343 139.463 198.782C138.47 197.222 137.548 195.661 136.697 194.101C135.845 192.54 134.888 190.696 133.824 188.568L133.505 188.993C134.498 192.398 135.101 195.59 135.313 198.569C135.526 201.478 135.633 204.315 135.633 207.081V233.042H118.609V165.692H135.526L154.678 194.207C156.168 196.406 157.409 198.321 158.402 199.952C159.395 201.513 160.317 203.073 161.168 204.634C162.019 206.195 162.977 208.039 164.041 210.167L164.36 209.741C163.651 206.762 163.119 203.889 162.764 201.123C162.41 198.286 162.232 195.484 162.232 192.717V165.692Z" fill="white"/>
<path d="M195.262 199.314C195.262 190.731 196.219 183.922 198.134 178.886C200.12 173.849 203.49 170.232 208.242 168.033C213.066 165.834 219.769 164.735 228.351 164.735C234.806 164.735 240.162 165.337 244.418 166.543C248.674 167.749 252.043 169.7 254.526 172.395C257.008 175.091 258.746 178.673 259.739 183.141C260.803 187.539 261.335 192.93 261.335 199.314C261.335 205.769 260.803 211.231 259.739 215.699C258.746 220.097 257.008 223.644 254.526 226.339C252.043 229.035 248.674 230.985 244.418 232.191C240.162 233.397 234.806 234 228.351 234C221.897 234 216.541 233.397 212.285 232.191C208.029 230.985 204.66 229.035 202.177 226.339C199.695 223.644 197.921 220.097 196.858 215.699C195.794 211.231 195.262 205.769 195.262 199.314ZM228.351 219.104C232.891 219.104 236.296 218.537 238.566 217.402C240.836 216.267 242.361 214.281 243.141 211.443C243.921 208.535 244.311 204.492 244.311 199.314C244.311 194.207 243.921 190.235 243.141 187.397C242.361 184.56 240.836 182.574 238.566 181.439C236.296 180.233 232.891 179.63 228.351 179.63C223.883 179.63 220.478 180.233 218.137 181.439C215.867 182.574 214.307 184.56 213.456 187.397C212.675 190.235 212.285 194.207 212.285 199.314C212.285 204.492 212.675 208.535 213.456 211.443C214.307 214.281 215.867 216.267 218.137 217.402C220.478 218.537 223.883 219.104 228.351 219.104Z" fill="white"/>
<path d="M338.705 165.799L317.745 233.042H294.337L274.44 165.799H293.486C294.621 169.345 295.826 173.388 297.103 177.928C298.38 182.468 299.621 187.114 300.827 191.866C302.104 196.548 303.203 200.945 304.126 205.06C305.119 209.103 305.863 212.472 306.36 215.167H306.786C307.282 212.472 307.991 209.103 308.914 205.06C309.907 200.945 311.006 196.548 312.212 191.866C313.489 187.185 314.765 182.574 316.042 178.034C317.319 173.495 318.525 169.416 319.66 165.799H338.705Z" fill="white"/>
<path d="M415.519 232.723V233.042H397.431C396.935 231.34 396.332 229.389 395.623 227.19C394.984 224.992 394.275 222.651 393.495 220.168H370.512C369.094 225.133 367.782 229.425 366.576 233.042H348.488V232.83L370.3 165.692H393.707L415.519 232.723ZM381.791 177.822C381.081 181.439 380.053 185.837 378.705 191.015C377.357 196.193 375.939 201.477 374.449 206.868H389.664C388.104 201.477 386.65 196.193 385.302 191.015C383.954 185.837 382.926 181.439 382.216 177.822H381.791Z" fill="white"/>
<path d="M442.16 233.042V180.056H423.009V165.692H478.336V180.056H459.184V233.042H442.16Z" fill="white"/>
<path d="M508.132 233.042H491.108V165.692H508.132V233.042Z" fill="white"/>
<path d="M524.12 199.314C524.12 190.731 525.078 183.922 526.993 178.886C528.979 173.849 532.349 170.232 537.101 168.033C541.924 165.834 548.628 164.735 557.21 164.735C563.665 164.735 569.021 165.337 573.277 166.543C577.533 167.749 580.902 169.7 583.384 172.395C585.867 175.091 587.605 178.673 588.598 183.141C589.662 187.539 590.194 192.93 590.194 199.314C590.194 205.769 589.662 211.231 588.598 215.699C587.605 220.097 585.867 223.644 583.384 226.339C580.902 229.035 577.533 230.985 573.277 232.191C569.021 233.397 563.665 234 557.21 234C550.756 234 545.4 233.397 541.144 232.191C536.888 230.985 533.519 229.035 531.036 226.339C528.554 223.644 526.78 220.097 525.716 215.699C524.652 211.231 524.12 205.769 524.12 199.314ZM557.21 219.104C561.75 219.104 565.155 218.537 567.425 217.402C569.695 216.267 571.22 214.281 572 211.443C572.78 208.535 573.17 204.492 573.17 199.314C573.17 194.207 572.78 190.235 572 187.397C571.22 184.56 569.695 182.574 567.425 181.439C565.155 180.233 561.75 179.63 557.21 179.63C552.742 179.63 549.337 180.233 546.996 181.439C544.726 182.574 543.166 184.56 542.315 187.397C541.534 190.235 541.144 194.207 541.144 199.314C541.144 204.492 541.534 208.535 542.315 211.443C543.166 214.281 544.726 216.267 546.996 217.402C549.337 218.537 552.742 219.104 557.21 219.104Z" fill="white"/>
<path d="M649.795 165.692H666.819V233.042H649.902L630.75 204.528C629.26 202.258 628.019 200.343 627.026 198.782C626.033 197.222 625.111 195.661 624.26 194.101C623.409 192.54 622.451 190.696 621.387 188.568L621.068 188.993C622.061 192.398 622.664 195.59 622.877 198.569C623.089 201.478 623.196 204.315 623.196 207.081V233.042H606.172V165.692H623.089L642.241 194.207C643.731 196.406 644.972 198.321 645.965 199.952C646.958 201.513 647.88 203.073 648.731 204.634C649.583 206.195 650.54 208.039 651.604 210.167L651.923 209.741C651.214 206.762 650.682 203.889 650.327 201.123C649.973 198.286 649.795 195.484 649.795 192.717V165.692Z" fill="white"/>
</mask>
<g mask="url(#mask0_1930_35)">
<rect x="-1.69531" y="56.1152" width="736.478" height="177.885" fill="url(#paint0_linear_1930_35)"/>
</g>
</g>
<defs>
<linearGradient id="paint0_linear_1930_35" x1="206.114" y1="329.593" x2="339.996" y2="-37.0739" gradientUnits="userSpaceOnUse">
<stop stop-color="#00337C"/>
<stop offset="1" stop-color="#03C988"/>
</linearGradient>
</defs>
</svg>
