<svg width="299" height="27" viewBox="0 0 299 27" fill="none" xmlns="http://www.w3.org/2000/svg">
<mask id="mask0_1931_75" style="mask-type:alpha" maskUnits="userSpaceOnUse" x="0" y="0" width="300" height="27">
<path d="M6.80039 26.64H0.400391V1.31996H11.6804C14.2137 1.31996 16.2404 1.62663 17.7604 2.23996C19.2804 2.85329 20.3737 3.85329 21.0404 5.23996C21.7071 6.62663 22.0404 8.50663 22.0404 10.88C22.0404 13.12 21.7071 14.9466 21.0404 16.36C20.3737 17.7466 19.2804 18.7733 17.7604 19.44C16.2404 20.1066 14.2137 20.44 11.6804 20.44H6.80039V26.64ZM10.6404 6.55996H6.80039V15.2H10.6404C12.5337 15.2 13.8004 14.88 14.4404 14.24C15.0804 13.6 15.4004 12.48 15.4004 10.88C15.4004 9.35996 15.0804 8.26663 14.4404 7.59996C13.8004 6.90663 12.5337 6.55996 10.6404 6.55996Z" fill="white"/>
<path d="M48.6395 26.52V26.64H41.8395C41.6528 26 41.4261 25.2666 41.1595 24.44C40.9195 23.6133 40.6528 22.7333 40.3595 21.8H31.7195C31.1861 23.6666 30.6928 25.28 30.2395 26.64H23.4395V26.56L31.6395 1.31996H40.4395L48.6395 26.52ZM35.9595 5.87996C35.6928 7.23996 35.3061 8.89329 34.7995 10.84C34.2928 12.7866 33.7595 14.7733 33.1995 16.8H38.9195C38.3328 14.7733 37.7861 12.7866 37.2795 10.84C36.7728 8.89329 36.3861 7.23996 36.1195 5.87996H35.9595Z" fill="white"/>
<path d="M50.8151 20.12C51.9884 20.52 53.2684 20.84 54.6551 21.08C56.0684 21.2933 57.4684 21.4 58.8551 21.4C60.7484 21.4 62.1484 21.32 63.0551 21.16C63.9884 20.9733 64.6017 20.6933 64.8951 20.32C65.1884 19.9466 65.3351 19.4666 65.3351 18.88C65.3351 18.3733 65.2284 17.9733 65.0151 17.68C64.8017 17.3866 64.3884 17.16 63.7751 17C63.1617 16.8133 62.2551 16.6666 61.0551 16.56L58.4151 16.32C56.4417 16.1333 54.8817 15.72 53.7351 15.08C52.6151 14.44 51.8151 13.5866 51.3351 12.52C50.8817 11.4266 50.6551 10.12 50.6551 8.59996C50.6551 6.78663 51.0151 5.31996 51.7351 4.19996C52.4817 3.07996 53.6817 2.26663 55.3351 1.75996C56.9884 1.22663 59.1884 0.959961 61.9351 0.959961C65.5084 0.959961 68.4551 1.42663 70.7751 2.35996L70.6551 7.79996L70.5351 7.95996C67.8951 7.02663 65.1351 6.55996 62.2551 6.55996C60.8684 6.55996 59.8017 6.63996 59.0551 6.79996C58.3084 6.9333 57.7884 7.15996 57.4951 7.47996C57.2017 7.79996 57.0551 8.25329 57.0551 8.83996C57.0551 9.42663 57.1484 9.86663 57.3351 10.16C57.5484 10.4533 57.9617 10.68 58.5751 10.84C59.1884 10.9733 60.0817 11.1066 61.2551 11.24L63.7751 11.52C65.9084 11.76 67.5484 12.1866 68.6951 12.8C69.8417 13.4133 70.6284 14.24 71.0551 15.28C71.5084 16.2933 71.7351 17.5333 71.7351 19C71.7351 20.7866 71.3484 22.28 70.5751 23.48C69.8284 24.6533 68.6017 25.5333 66.8951 26.12C65.1884 26.7066 62.9084 27 60.0551 27C58.1884 27 56.5084 26.9066 55.0151 26.72C53.5217 26.5066 52.0684 26.2266 50.6551 25.88V20.24L50.8151 20.12Z" fill="white"/>
<path d="M80.952 26.64V6.71996H73.752V1.31996H94.552V6.71996H87.352V26.64H80.952Z" fill="white"/>
<path d="M108.706 20.12C109.879 20.52 111.159 20.84 112.546 21.08C113.959 21.2933 115.359 21.4 116.746 21.4C118.639 21.4 120.039 21.32 120.946 21.16C121.879 20.9733 122.492 20.6933 122.786 20.32C123.079 19.9466 123.226 19.4666 123.226 18.88C123.226 18.3733 123.119 17.9733 122.906 17.68C122.692 17.3866 122.279 17.16 121.666 17C121.052 16.8133 120.146 16.6666 118.946 16.56L116.306 16.32C114.332 16.1333 112.772 15.72 111.626 15.08C110.506 14.44 109.706 13.5866 109.226 12.52C108.772 11.4266 108.546 10.12 108.546 8.59996C108.546 6.78663 108.906 5.31996 109.626 4.19996C110.372 3.07996 111.572 2.26663 113.226 1.75996C114.879 1.22663 117.079 0.959961 119.826 0.959961C123.399 0.959961 126.346 1.42663 128.666 2.35996L128.546 7.79996L128.426 7.95996C125.786 7.02663 123.026 6.55996 120.146 6.55996C118.759 6.55996 117.692 6.63996 116.946 6.79996C116.199 6.9333 115.679 7.15996 115.386 7.47996C115.092 7.79996 114.946 8.25329 114.946 8.83996C114.946 9.42663 115.039 9.86663 115.226 10.16C115.439 10.4533 115.852 10.68 116.466 10.84C117.079 10.9733 117.972 11.1066 119.146 11.24L121.666 11.52C123.799 11.76 125.439 12.1866 126.586 12.8C127.732 13.4133 128.519 14.24 128.946 15.28C129.399 16.2933 129.626 17.5333 129.626 19C129.626 20.7866 129.239 22.28 128.466 23.48C127.719 24.6533 126.492 25.5333 124.786 26.12C123.079 26.7066 120.799 27 117.946 27C116.079 27 114.399 26.9066 112.906 26.72C111.412 26.5066 109.959 26.2266 108.546 25.88V20.24L108.706 20.12Z" fill="white"/>
<path d="M140.043 26.64H133.643V1.31996H144.923C147.456 1.31996 149.483 1.62663 151.003 2.23996C152.523 2.85329 153.616 3.85329 154.283 5.23996C154.949 6.62663 155.283 8.50663 155.283 10.88C155.283 13.12 154.949 14.9466 154.283 16.36C153.616 17.7466 152.523 18.7733 151.003 19.44C149.483 20.1066 147.456 20.44 144.923 20.44H140.043V26.64ZM143.883 6.55996H140.043V15.2H143.883C145.776 15.2 147.043 14.88 147.683 14.24C148.323 13.6 148.643 12.48 148.643 10.88C148.643 9.35996 148.323 8.26663 147.683 7.59996C147.043 6.90663 145.776 6.55996 143.883 6.55996Z" fill="white"/>
<path d="M158.682 26.64V1.31996H177.482V6.51996H165.082V11.32H175.842V16.52H165.082V21.44H177.482V26.64H158.682Z" fill="white"/>
<path d="M203.874 26.52V26.64H197.074C196.887 26 196.66 25.2666 196.394 24.44C196.154 23.6133 195.887 22.7333 195.594 21.8H186.954C186.42 23.6666 185.927 25.28 185.474 26.64H178.674V26.56L186.874 1.31996H195.674L203.874 26.52ZM191.194 5.87996C190.927 7.23996 190.54 8.89329 190.034 10.84C189.527 12.7866 188.994 14.7733 188.434 16.8H194.154C193.567 14.7733 193.02 12.7866 192.514 10.84C192.007 8.89329 191.621 7.23996 191.354 5.87996H191.194Z" fill="white"/>
<path d="M213.089 26.64H206.689V1.31996H213.089V11.92C213.143 11.92 213.183 11.92 213.209 11.92C213.476 11.92 213.783 11.7066 214.129 11.28C214.503 10.8533 214.836 10.4266 215.129 9.99996L220.489 1.31996H227.449V1.43996L222.889 8.79996C222.489 9.46663 222.036 10.1866 221.529 10.96C221.023 11.7066 220.516 12.3733 220.009 12.96C219.529 13.52 219.103 13.8666 218.729 14V14.12C219.103 14.28 219.529 14.6266 220.009 15.16C220.516 15.6666 221.023 16.2666 221.529 16.96C222.063 17.6266 222.569 18.2933 223.049 18.96L228.369 26.52V26.64H221.009L216.009 18.96V19C215.849 18.7333 215.596 18.3866 215.249 17.96C214.929 17.5066 214.583 17.0933 214.209 16.72C213.863 16.3466 213.556 16.16 213.289 16.16C213.236 16.16 213.196 16.16 213.169 16.16C213.143 16.16 213.116 16.16 213.089 16.16V26.64Z" fill="white"/>
<path d="M230.947 26.64V1.31996H249.747V6.51996H237.347V11.32H248.107V16.52H237.347V21.44H249.747V26.64H230.947Z" fill="white"/>
<path d="M259.339 26.64H252.939V1.31996H265.019C268.193 1.31996 270.499 2.03996 271.939 3.47996C273.406 4.89329 274.139 6.98663 274.139 9.75996C274.139 11.84 273.619 13.6266 272.579 15.12C271.539 16.5866 270.166 17.5066 268.459 17.88L268.419 18C269.086 18.4266 269.819 19.1333 270.619 20.12C271.419 21.1066 272.206 22.1866 272.979 23.36C273.779 24.5066 274.486 25.5866 275.099 26.6V26.64H267.659L263.339 20.24C262.966 19.68 262.659 19.28 262.419 19.04C262.206 18.8 261.939 18.6533 261.619 18.6C261.326 18.5466 260.846 18.52 260.179 18.52H259.339V26.64ZM263.979 6.51996H259.339V13.32H263.979C265.313 13.32 266.233 13.0533 266.739 12.52C267.273 11.9866 267.539 11.12 267.539 9.91996C267.539 8.71996 267.273 7.85329 266.739 7.31996C266.233 6.78663 265.313 6.51996 263.979 6.51996Z" fill="white"/>
<path d="M278.081 20.12C279.254 20.52 280.534 20.84 281.921 21.08C283.334 21.2933 284.734 21.4 286.121 21.4C288.014 21.4 289.414 21.32 290.321 21.16C291.254 20.9733 291.867 20.6933 292.161 20.32C292.454 19.9466 292.601 19.4666 292.601 18.88C292.601 18.3733 292.494 17.9733 292.281 17.68C292.067 17.3866 291.654 17.16 291.041 17C290.427 16.8133 289.521 16.6666 288.321 16.56L285.681 16.32C283.707 16.1333 282.147 15.72 281.001 15.08C279.881 14.44 279.081 13.5866 278.601 12.52C278.147 11.4266 277.921 10.12 277.921 8.59996C277.921 6.78663 278.281 5.31996 279.001 4.19996C279.747 3.07996 280.947 2.26663 282.601 1.75996C284.254 1.22663 286.454 0.959961 289.201 0.959961C292.774 0.959961 295.721 1.42663 298.041 2.35996L297.921 7.79996L297.801 7.95996C295.161 7.02663 292.401 6.55996 289.521 6.55996C288.134 6.55996 287.067 6.63996 286.321 6.79996C285.574 6.9333 285.054 7.15996 284.761 7.47996C284.467 7.79996 284.321 8.25329 284.321 8.83996C284.321 9.42663 284.414 9.86663 284.601 10.16C284.814 10.4533 285.227 10.68 285.841 10.84C286.454 10.9733 287.347 11.1066 288.521 11.24L291.041 11.52C293.174 11.76 294.814 12.1866 295.961 12.8C297.107 13.4133 297.894 14.24 298.321 15.28C298.774 16.2933 299.001 17.5333 299.001 19C299.001 20.7866 298.614 22.28 297.841 23.48C297.094 24.6533 295.867 25.5333 294.161 26.12C292.454 26.7066 290.174 27 287.321 27C285.454 27 283.774 26.9066 282.281 26.72C280.787 26.5066 279.334 26.2266 277.921 25.88V20.24L278.081 20.12Z" fill="white"/>
</mask>
<g mask="url(#mask0_1931_75)">
<rect x="-8" y="-7" width="314" height="42" fill="url(#paint0_linear_1931_75)"/>
</g>
<defs>
<linearGradient id="paint0_linear_1931_75" x1="80.6005" y1="57.5701" x2="99.6602" y2="-36.6906" gradientUnits="userSpaceOnUse">
<stop stop-color="#00337C"/>
<stop offset="1" stop-color="#03C988"/>
</linearGradient>
</defs>
</svg>
