<svg width="367" height="27" viewBox="0 0 367 27" fill="none" xmlns="http://www.w3.org/2000/svg">
<path d="M0.76 20.12C1.93333 20.52 3.21333 20.84 4.6 21.08C6.01333 21.2933 7.41333 21.4 8.8 21.4C10.6933 21.4 12.0933 21.32 13 21.16C13.9333 20.9733 14.5467 20.6933 14.84 20.32C15.1333 19.9467 15.28 19.4667 15.28 18.88C15.28 18.3733 15.1733 17.9733 14.96 17.68C14.7467 17.3867 14.3333 17.16 13.72 17C13.1067 16.8133 12.2 16.6667 11 16.56L8.36 16.32C6.38667 16.1333 4.82667 15.72 3.68 15.08C2.56 14.44 1.76 13.5867 1.28 12.52C0.826667 11.4267 0.6 10.12 0.6 8.6C0.6 6.78667 0.96 5.32 1.68 4.2C2.42667 3.08 3.62667 2.26666 5.28 1.76C6.93333 1.22667 9.13333 0.959999 11.88 0.959999C15.4533 0.959999 18.4 1.42667 20.72 2.36L20.6 7.8L20.48 7.96C17.84 7.02667 15.08 6.56 12.2 6.56C10.8133 6.56 9.74667 6.64 9 6.8C8.25333 6.93333 7.73333 7.16 7.44 7.48C7.14667 7.8 7 8.25333 7 8.84C7 9.42667 7.09333 9.86667 7.28 10.16C7.49333 10.4533 7.90667 10.68 8.52 10.84C9.13333 10.9733 10.0267 11.1067 11.2 11.24L13.72 11.52C15.8533 11.76 17.4933 12.1867 18.64 12.8C19.7867 13.4133 20.5733 14.24 21 15.28C21.4533 16.2933 21.68 17.5333 21.68 19C21.68 20.7867 21.2933 22.28 20.52 23.48C19.7733 24.6533 18.5467 25.5333 16.84 26.12C15.1333 26.7067 12.8533 27 10 27C8.13333 27 6.45333 26.9067 4.96 26.72C3.46667 26.5067 2.01333 26.2267 0.6 25.88V20.24L0.76 20.12ZM30.8969 26.64V6.72H23.6969V1.32H44.4969V6.72H37.2969V26.64H30.8969ZM70.4984 26.52V26.64H63.6984C63.5118 26 63.2851 25.2667 63.0184 24.44C62.7784 23.6133 62.5118 22.7333 62.2184 21.8H53.5784C53.0451 23.6667 52.5518 25.28 52.0984 26.64H45.2984V26.56L53.4984 1.32H62.2984L70.4984 26.52ZM57.8184 5.88C57.5518 7.24 57.1651 8.89333 56.6584 10.84C56.1518 12.7867 55.6184 14.7733 55.0584 16.8H60.7784C60.1918 14.7733 59.6451 12.7867 59.1384 10.84C58.6318 8.89333 58.2451 7.24 57.9784 5.88H57.8184ZM79.7141 26.64H73.3141V1.32H85.3941C88.5674 1.32 90.8741 2.04 92.3141 3.48C93.7807 4.89333 94.5141 6.98667 94.5141 9.76C94.5141 11.84 93.9941 13.6267 92.9541 15.12C91.9141 16.5867 90.5407 17.5067 88.8341 17.88L88.7941 18C89.4607 18.4267 90.1941 19.1333 90.9941 20.12C91.7941 21.1067 92.5807 22.1867 93.3541 23.36C94.1541 24.5067 94.8607 25.5867 95.4741 26.6V26.64H88.0341L83.7141 20.24C83.3407 19.68 83.0341 19.28 82.7941 19.04C82.5807 18.8 82.3141 18.6533 81.9941 18.6C81.7007 18.5467 81.2207 18.52 80.5541 18.52H79.7141V26.64ZM84.3541 6.52H79.7141V13.32H84.3541C85.6874 13.32 86.6074 13.0533 87.1141 12.52C87.6474 11.9867 87.9141 11.12 87.9141 9.92C87.9141 8.72 87.6474 7.85333 87.1141 7.32C86.6074 6.78667 85.6874 6.52 84.3541 6.52ZM104.295 26.64V6.72H97.0953V1.32H117.895V6.72H110.695V26.64H104.295ZM142.617 1.32V16.24C142.617 18.8533 142.297 20.9467 141.657 22.52C141.044 24.0933 139.964 25.24 138.417 25.96C136.87 26.6533 134.684 27 131.857 27C128.924 27 126.644 26.6533 125.017 25.96C123.417 25.24 122.297 24.0933 121.657 22.52C121.017 20.9467 120.697 18.8533 120.697 16.24V1.32H127.097V16.12C127.097 17.48 127.23 18.5467 127.497 19.32C127.764 20.0933 128.244 20.64 128.937 20.96C129.63 21.2533 130.604 21.4 131.857 21.4C133.03 21.4 133.924 21.2533 134.537 20.96C135.177 20.64 135.617 20.0933 135.857 19.32C136.097 18.5467 136.217 17.48 136.217 16.12V1.32H142.617ZM153.816 26.64H147.416V1.32H158.696C161.229 1.32 163.256 1.62667 164.776 2.24C166.296 2.85333 167.389 3.85333 168.056 5.24C168.722 6.62667 169.056 8.50667 169.056 10.88C169.056 13.12 168.722 14.9467 168.056 16.36C167.389 17.7467 166.296 18.7733 164.776 19.44C163.256 20.1067 161.229 20.44 158.696 20.44H153.816V26.64ZM157.656 6.56H153.816V15.2H157.656C159.549 15.2 160.816 14.88 161.456 14.24C162.096 13.6 162.416 12.48 162.416 10.88C162.416 9.36 162.096 8.26667 161.456 7.6C160.816 6.90667 159.549 6.56 157.656 6.56Z" fill="white"/>
<path d="M203.327 21.16V26.2C202.047 26.4667 200.794 26.6667 199.567 26.8C198.34 26.9333 196.887 27 195.207 27C193.047 27 191.22 26.8133 189.727 26.44C188.26 26.0667 187.074 25.4133 186.167 24.48C185.287 23.52 184.647 22.1733 184.247 20.44C183.847 18.7067 183.647 16.48 183.647 13.76C183.647 11.1467 183.847 9 184.247 7.32C184.647 5.64 185.287 4.34667 186.167 3.44C187.074 2.50667 188.26 1.86667 189.727 1.52C191.22 1.14667 193.047 0.959999 195.207 0.959999C196.887 0.959999 198.34 1.02667 199.567 1.16C200.794 1.26667 202.047 1.46667 203.327 1.76V6.96L203.207 7.04C202.087 6.77333 201.007 6.58667 199.967 6.48C198.927 6.34667 197.647 6.28 196.127 6.28C194.9 6.28 193.887 6.37333 193.087 6.56C192.314 6.72 191.7 7.05333 191.247 7.56C190.794 8.06667 190.474 8.81333 190.287 9.8C190.127 10.7867 190.047 12.1067 190.047 13.76C190.047 15.4933 190.127 16.8933 190.287 17.96C190.474 19 190.794 19.7867 191.247 20.32C191.7 20.8533 192.314 21.2133 193.087 21.4C193.887 21.5867 194.9 21.68 196.127 21.68C197.62 21.68 198.887 21.64 199.927 21.56C200.994 21.4533 202.06 21.2667 203.127 21L203.327 21.16ZM225.113 21.2V26.64H206.713V1.32H213.113V21.2H225.113ZM234.323 26.64H227.923V1.32H234.323V26.64ZM255.534 1.32H261.934V26.64H255.574L248.374 15.92C247.814 15.0667 247.348 14.3467 246.974 13.76C246.601 13.1733 246.254 12.5867 245.934 12C245.614 11.4133 245.254 10.72 244.854 9.92L244.734 10.08C245.108 11.36 245.334 12.56 245.414 13.68C245.494 14.7733 245.534 15.84 245.534 16.88V26.64H239.134V1.32H245.494L252.694 12.04C253.254 12.8667 253.721 13.5867 254.094 14.2C254.468 14.7867 254.814 15.3733 255.134 15.96C255.454 16.5467 255.814 17.24 256.214 18.04L256.334 17.88C256.068 16.76 255.868 15.68 255.734 14.64C255.601 13.5733 255.534 12.52 255.534 11.48V1.32ZM273.152 26.64H266.752V1.32H273.152V26.64ZM296.843 21.16V26.2C295.563 26.4667 294.309 26.6667 293.083 26.8C291.856 26.9333 290.403 27 288.723 27C286.563 27 284.736 26.8133 283.243 26.44C281.776 26.0667 280.589 25.4133 279.683 24.48C278.803 23.52 278.163 22.1733 277.763 20.44C277.363 18.7067 277.163 16.48 277.163 13.76C277.163 11.1467 277.363 9 277.763 7.32C278.163 5.64 278.803 4.34667 279.683 3.44C280.589 2.50667 281.776 1.86667 283.243 1.52C284.736 1.14667 286.563 0.959999 288.723 0.959999C290.403 0.959999 291.856 1.02667 293.083 1.16C294.309 1.26667 295.563 1.46667 296.843 1.76V6.96L296.723 7.04C295.603 6.77333 294.523 6.58667 293.483 6.48C292.443 6.34667 291.163 6.28 289.643 6.28C288.416 6.28 287.403 6.37333 286.603 6.56C285.829 6.72 285.216 7.05333 284.763 7.56C284.309 8.06667 283.989 8.81333 283.803 9.8C283.643 10.7867 283.563 12.1067 283.563 13.76C283.563 15.4933 283.643 16.8933 283.803 17.96C283.989 19 284.309 19.7867 284.763 20.32C285.216 20.8533 285.829 21.2133 286.603 21.4C287.403 21.5867 288.416 21.68 289.643 21.68C291.136 21.68 292.403 21.64 293.443 21.56C294.509 21.4533 295.576 21.2667 296.643 21L296.843 21.16ZM310.62 17.44L319.9 2.12H329.06V17.88H333.26V22.6H329.14V26.72H323.14L323.02 22.6H310.62V17.44ZM323.46 17.88V5.72L316.7 17.88H323.46ZM342.768 20.96C342.822 21.5467 342.862 22.0533 342.888 22.48C342.915 22.88 342.928 23.3067 342.928 23.76C342.928 24.1867 342.915 24.6267 342.888 25.08C342.862 25.5067 342.822 26 342.768 26.56C342.102 26.6667 341.435 26.76 340.768 26.84C340.102 26.92 339.435 26.96 338.768 26.96C338.128 26.96 337.488 26.92 336.848 26.84C336.208 26.76 335.555 26.6667 334.888 26.56C334.808 26.0267 334.755 25.5467 334.728 25.12C334.702 24.6667 334.688 24.2267 334.688 23.8C334.688 23.4 334.702 22.9733 334.728 22.52C334.755 22.0667 334.808 21.5467 334.888 20.96C336.222 20.72 337.542 20.6 338.848 20.6C340.155 20.6 341.462 20.72 342.768 20.96ZM366.521 14.44C366.521 17.48 366.174 19.92 365.481 21.76C364.788 23.6 363.668 24.9333 362.121 25.76C360.574 26.5867 358.508 27 355.921 27C353.361 27 351.308 26.5867 349.761 25.76C348.214 24.9333 347.094 23.6 346.401 21.76C345.708 19.92 345.361 17.48 345.361 14.44C345.361 11.3733 345.708 8.92 346.401 7.08C347.094 5.24 348.214 3.90667 349.761 3.08C351.308 2.25333 353.361 1.84 355.921 1.84C358.508 1.84 360.574 2.25333 362.121 3.08C363.668 3.90667 364.788 5.24 365.481 7.08C366.174 8.92 366.521 11.3733 366.521 14.44ZM355.921 21.68C357.734 21.68 358.921 21.0933 359.481 19.92C360.068 18.72 360.361 16.8933 360.361 14.44C360.361 11.96 360.068 10.1333 359.481 8.96C358.921 7.78667 357.734 7.2 355.921 7.2C354.134 7.2 352.948 7.78667 352.361 8.96C351.801 10.1333 351.521 11.96 351.521 14.44C351.521 16.8933 351.801 18.72 352.361 19.92C352.948 21.0933 354.134 21.68 355.921 21.68Z" fill="#0DBFE1"/>
</svg>
